<svg width="88" height="38" viewBox="0 0 88 38" fill="none" xmlns="http://www.w3.org/2000/svg">
<path d="M9.0803 14.6213H3.80541L3.80187 19.1281H6.6729L6.67645 19.6351H3.80541V28.5918H0V14.1008H9.0803V14.6213Z" fill="#6A7B61"/>
<path d="M18.2949 28.0713H19.2515V28.5918H13.5316V28.0713H14.4882V14.6175H13.5316V14.1008H19.2515V14.6213H18.2949V28.0713Z" fill="#6A7B61"/>
<path d="M28.6433 21.2829C29.8599 21.2972 30.8018 20.938 31.47 20.2053C32.0783 19.5719 32.3604 18.7764 32.3156 17.8184C32.2863 16.8612 31.9598 16.0518 31.336 15.3894C30.6394 14.6571 29.7414 14.2911 28.6433 14.2911V21.2829ZM36.878 28.5918H32.6719L29.4175 21.8123H28.6406L28.6433 28.5918H24.8379V14.1008H32.0938C33.3099 14.1008 34.2811 14.4389 35.0087 15.1148C35.6769 15.7204 36.0399 16.4809 36.0993 17.396C36.1583 18.3115 35.9134 19.1285 35.365 19.8465C34.7567 20.6352 33.9106 21.1351 32.8281 21.3461C33.1839 22.0224 34.5336 24.4379 36.878 28.5918Z" fill="#6A7B61"/>
<path d="M52.8469 0.200188H53.3952V13.5458C53.3952 15.7651 52.8233 17.6655 51.6822 19.2481C50.5539 20.8307 49.1816 21.6211 47.5649 21.6211C45.9619 21.6211 44.5962 20.8307 43.4693 19.2481C42.3264 17.6655 41.7554 15.7651 41.7554 13.5458V0.200188H45.5608V14.1623C45.5608 15.8884 45.9619 17.2651 46.7631 18.2922C47.4899 19.2174 48.3653 19.6591 49.3893 19.6178C50.4279 19.577 50.9807 18.899 51.6928 17.9127C52.4795 16.7825 52.8469 15.4366 52.8469 13.5458V0.200188Z" fill="#6A7B61"/>
<path d="M71.0845 28.5918H59.6448V28.0713L67.453 14.6175H59.8409L59.8449 14.1008H71.2851V14.6213L63.44 28.0713H71.0743L71.0845 28.5918Z" fill="#6A7B61"/>
<path d="M82.3683 23.0996L80.1118 15.1165L77.8543 23.0996H82.3683ZM82.5049 23.6176H77.7021L76.301 28.5918H75.7362L79.8313 14.1008L83.6417 14.097L87.7324 28.5918H83.9043L82.5049 23.6176Z" fill="#6A7B61"/>
<path d="M50.9708 26.1163C50.9708 27.914 49.4352 29.3711 47.5416 29.3711C45.648 29.3711 44.1124 27.914 44.1124 26.1163C44.1124 24.319 47.5416 21.5598 47.5416 21.5598C47.5416 21.5598 50.9708 24.319 50.9708 26.1163Z" fill="#6A7B61"/>
<path d="M23.9119 37.7324H23.454L21.4167 35.4356V37.7324H20.8779V34.533H21.3359L23.3688 36.8681V34.533H23.9119V37.7324Z" fill="#6A7B61"/>
<path d="M27.5342 35.1589L26.9254 36.5194H28.1426L27.5342 35.1589ZM28.6862 37.7324L28.3539 36.9877H26.7142L26.3818 37.7324H25.7982L27.2826 34.533H27.7858L29.2698 37.7324H28.6862Z" fill="#6A7B61"/>
<path d="M31.2012 37.7324V34.533H31.7395V37.7324H31.2012Z" fill="#6A7B61"/>
<path d="M36.4234 37.7324H34.0435V34.533H34.5817V37.2691H36.4234V37.7324Z" fill="#6A7B61"/>
<path d="M43.3024 34.7099C43.5358 34.8725 43.6823 35.0923 43.7427 35.3691L43.2048 35.4744C43.1742 35.3055 43.0885 35.1694 42.9479 35.0658C42.8072 34.9626 42.6359 34.9108 42.4349 34.9108C42.237 34.9108 42.0772 34.9559 41.9569 35.0469C41.8362 35.1374 41.7754 35.2545 41.7754 35.3977C41.7754 35.5093 41.8101 35.5969 41.8788 35.6605C41.9476 35.7241 42.0559 35.7705 42.2032 35.7987L42.9328 35.947C43.5097 36.0678 43.7981 36.3589 43.7981 36.8209C43.7981 37.12 43.6801 37.358 43.4436 37.5344C43.207 37.7114 42.8942 37.7998 42.505 37.7998C42.1327 37.7998 41.8176 37.716 41.5593 37.5492C41.3011 37.382 41.152 37.1486 41.1116 36.8492L41.6849 36.735C41.7253 36.9355 41.8225 37.0876 41.9769 37.1908C42.1313 37.2944 42.3239 37.3462 42.5556 37.3462C42.777 37.3462 42.9505 37.3007 43.0761 37.2101C43.2021 37.1191 43.2647 36.9991 43.2647 36.8492C43.2647 36.7283 43.2288 36.6365 43.1569 36.5724C43.0846 36.5088 42.963 36.4596 42.7921 36.4246L42.0577 36.2814C41.4905 36.1571 41.2074 35.8673 41.2074 35.412C41.2074 35.1286 41.3201 34.9003 41.5469 34.7267C41.7732 34.5532 42.0723 34.4664 42.4446 34.4664C42.7837 34.4664 43.0695 34.5482 43.3024 34.7099Z" fill="#6A7B61"/>
<path d="M47.3093 34.9963V37.7324H46.7662V34.9963H45.584V34.533H48.4968V34.9963H47.3093Z" fill="#6A7B61"/>
<path d="M53.361 36.3197C53.361 36.7616 53.2305 37.1192 52.9687 37.3917C52.7069 37.6638 52.3634 37.7998 51.9374 37.7998C51.5016 37.7998 51.1502 37.6638 50.8835 37.3917C50.6172 37.1192 50.4836 36.7616 50.4836 36.3197V34.5334H51.0219V36.3197C51.0219 36.6188 51.1058 36.8584 51.2735 37.0383C51.4413 37.2177 51.6623 37.3078 51.9374 37.3078C52.2023 37.3078 52.4162 37.2169 52.5787 37.0358C52.742 36.8542 52.8227 36.6154 52.8227 36.3197V34.5334H53.361V36.3197Z" fill="#6A7B61"/>
<path d="M56.8073 37.2691C57.2093 37.2691 57.5302 37.1638 57.768 36.954C58.0063 36.7439 58.1248 36.4701 58.1248 36.1327C58.1248 35.7949 58.0063 35.5215 57.768 35.3114C57.5302 35.1012 57.2093 34.9963 56.8073 34.9963H56.1678V37.2691H56.8073ZM56.8073 34.533C57.374 34.533 57.8262 34.6821 58.1625 34.9795C58.4998 35.2773 58.6684 35.6614 58.6684 36.1327C58.6684 36.6036 58.4998 36.9882 58.1625 37.2859C57.8262 37.5837 57.374 37.7324 56.8073 37.7324H55.6295V34.533H56.8073Z" fill="#6A7B61"/>
<path d="M60.8116 37.7324V34.533H61.3499V37.7324H60.8116Z" fill="#6A7B61"/>
<path d="M66.1196 36.9785C66.3539 36.7523 66.4715 36.4722 66.4715 36.1378C66.4715 35.8004 66.3539 35.5178 66.1196 35.2903C65.8848 35.0624 65.596 34.9491 65.2543 34.9491C64.9117 34.9491 64.6246 35.0624 64.3911 35.2903C64.1582 35.5178 64.0415 35.8004 64.0415 36.1378C64.0415 36.4722 64.1582 36.7523 64.3911 36.9785C64.6246 37.2042 64.9117 37.3175 65.2543 37.3175C65.596 37.3175 65.8848 37.2042 66.1196 36.9785ZM66.5043 34.9534C66.8447 35.2785 67.0151 35.6728 67.0151 36.1378C67.0151 36.6023 66.8447 36.9957 66.5043 37.3175C66.164 37.6389 65.7473 37.7998 65.2543 37.7998C64.7608 37.7998 64.345 37.6389 64.0064 37.3175C63.6678 36.9957 63.4983 36.6023 63.4983 36.1378C63.4983 35.6702 63.6678 35.2743 64.0064 34.9517C64.345 34.6282 64.7608 34.4664 65.2543 34.4664C65.7473 34.4664 66.164 34.629 66.5043 34.9534Z" fill="#6A7B61"/>
</svg>
