<svg width="148" height="67" viewBox="0 0 148 67" fill="none" xmlns="http://www.w3.org/2000/svg">
<path d="M15.318 25.6303H6.41954L6.41356 33.6403H11.2568L11.2628 34.5414H6.41954V50.4604H0V24.7052H15.318V25.6303Z" fill="white"/>
<path d="M30.8625 49.5353H32.4762V50.4604H22.827V49.5353H24.4407V25.6235H22.827V24.7052H32.4762V25.6303H30.8625V49.5353Z" fill="white"/>
<path d="M48.3199 37.4702C50.3721 37.4956 51.9611 36.8572 53.0883 35.5548C54.1144 34.4292 54.5905 33.0153 54.5149 31.3126C54.4655 29.6113 53.9146 28.1728 52.8623 26.9955C51.6872 25.6939 50.1723 25.0435 48.3199 25.0435V37.4702ZM62.2113 50.4604H55.1159L49.6259 38.411H48.3154L48.3199 50.4604H41.9003V24.7052H54.1406C56.1922 24.7052 57.8305 25.3062 59.058 26.5075C60.1852 27.5838 60.7975 28.9355 60.8977 30.5619C60.9973 32.189 60.5841 33.6411 59.659 34.9172C58.6329 36.319 57.2056 37.2075 55.3793 37.5824C55.9796 38.7845 58.2564 43.0776 62.2113 50.4604Z" fill="white"/>
<path d="M89.1498 -0.000160217H90.0749V23.7193C90.0749 27.6637 89.1101 31.0415 87.1851 33.8542C85.2817 36.6669 82.9668 38.0718 80.2394 38.0718C77.5352 38.0718 75.2314 36.6669 73.3303 33.8542C71.4023 31.0415 70.439 27.6637 70.439 23.7193V-0.000160217H76.8586V24.815C76.8586 27.883 77.5352 30.3297 78.8869 32.1552C80.1129 33.7996 81.5896 34.5847 83.317 34.5113C85.0692 34.4387 86.0018 33.2337 87.203 31.4808C88.5301 29.472 89.1498 27.0799 89.1498 23.7193V-0.000160217Z" fill="white"/>
<path d="M119.916 50.4604H100.618V49.5353L113.79 25.6235H100.949L100.955 24.7052H120.254V25.6303L107.02 49.5353H119.899L119.916 50.4604Z" fill="white"/>
<path d="M138.951 40.699L135.145 26.5105L131.336 40.699H138.951ZM139.182 41.6196H131.08L128.716 50.4604H127.763L134.671 24.7052L141.099 24.6984L148 50.4604H141.542L139.182 41.6196Z" fill="white"/>
<path d="M85.9852 46.0618C85.9852 49.257 83.3948 51.8467 80.2004 51.8467C77.006 51.8467 74.4155 49.257 74.4155 46.0618C74.4155 42.8674 80.2004 37.9635 80.2004 37.9635C80.2004 37.9635 85.9852 42.8674 85.9852 46.0618Z" fill="white"/>
<path d="M40.3373 66.707H39.5649L36.1287 62.6257V66.707H35.2201V61.0217H35.9925L39.4212 65.1712V61.0217H40.3373V66.707Z" fill="white"/>
<path d="M46.4482 62.1339L45.4213 64.5515H47.4744L46.4482 62.1339ZM48.3912 66.707L47.8306 65.3837H45.0651L44.5045 66.707H43.5202L46.0239 61.0217H46.8726L49.3755 66.707H48.3912Z" fill="white"/>
<path d="M52.6349 66.707V61.0217H53.5428V66.707H52.6349Z" fill="white"/>
<path d="M61.4435 66.707H57.4295V61.0217H58.3374V65.8837H61.4435V66.707Z" fill="white"/>
<path d="M73.0482 61.3355C73.4419 61.6244 73.6889 62.0151 73.7907 62.5068L72.8836 62.6939C72.8319 62.3938 72.6875 62.152 72.4502 61.9679C72.2129 61.7845 71.924 61.6925 71.585 61.6925C71.2512 61.6925 70.9817 61.7726 70.7789 61.9342C70.5753 62.0952 70.4728 62.3032 70.4728 62.5577C70.4728 62.756 70.5312 62.9117 70.6472 63.0247C70.7632 63.1378 70.9458 63.2201 71.1943 63.2702L72.4248 63.5337C73.3978 63.7485 73.8843 64.2657 73.8843 65.0868C73.8843 65.6182 73.6852 66.041 73.2862 66.3546C72.8873 66.669 72.3596 66.8262 71.7032 66.8262C71.0753 66.8262 70.5439 66.6772 70.1083 66.3808C69.6727 66.0837 69.4212 65.669 69.3531 65.1369L70.3201 64.9341C70.3882 65.2903 70.5521 65.5605 70.8126 65.7439C71.073 65.928 71.3979 66.0201 71.7886 66.0201C72.1621 66.0201 72.4547 65.9392 72.6665 65.7783C72.8791 65.6167 72.9846 65.4033 72.9846 65.1369C72.9846 64.9221 72.924 64.7589 72.8027 64.6452C72.6807 64.5321 72.4756 64.4446 72.1875 64.3825L70.9488 64.128C69.9923 63.9072 69.5147 63.3922 69.5147 62.5832C69.5147 62.0794 69.7049 61.6738 70.0873 61.3654C70.469 61.057 70.9735 60.9029 71.6015 60.9029C72.1733 60.9029 72.6553 61.0481 73.0482 61.3355Z" fill="white"/>
<path d="M79.8079 61.845V66.707H78.8918V61.845H76.8979V61.0217H81.8108V61.845H79.8079Z" fill="white"/>
<path d="M90.0163 64.1961C90.0163 64.9812 89.7963 65.6167 89.3547 66.1009C88.9131 66.5844 88.3338 66.8262 87.6153 66.8262C86.8803 66.8262 86.2875 66.5844 85.8377 66.1009C85.3886 65.6167 85.1633 64.9812 85.1633 64.1961V61.0219H86.0712V64.1961C86.0712 64.7275 86.2127 65.1534 86.4956 65.473C86.7785 65.7918 87.1512 65.952 87.6153 65.952C88.0621 65.952 88.4229 65.7903 88.6968 65.4685C88.9722 65.1459 89.1084 64.7215 89.1084 64.1961V61.0219H90.0163V64.1961Z" fill="white"/>
<path d="M95.8308 65.8837C96.5089 65.8837 97.05 65.6966 97.4512 65.3239C97.8531 64.9504 98.0529 64.4639 98.0529 63.8644C98.0529 63.2641 97.8531 62.7783 97.4512 62.4049C97.05 62.0314 96.5089 61.845 95.8308 61.845H94.7522V65.8837H95.8308ZM95.8308 61.0217C96.7866 61.0217 97.5492 61.2867 98.1166 61.8151C98.6854 62.3442 98.9698 63.0268 98.9698 63.8644C98.9698 64.7011 98.6854 65.3845 98.1166 65.9137C97.5492 66.4428 96.7866 66.707 95.8308 66.707H93.8444V61.0217H95.8308Z" fill="white"/>
<path d="M102.586 66.707V61.0217H103.494V66.707H102.586Z" fill="white"/>
<path d="M111.54 65.3667C111.935 64.9648 112.133 64.467 112.133 63.8727C112.133 63.2732 111.935 62.771 111.54 62.3669C111.144 61.9619 110.656 61.7606 110.08 61.7606C109.502 61.7606 109.018 61.9619 108.624 62.3669C108.231 62.771 108.034 63.2732 108.034 63.8727C108.034 64.467 108.231 64.9648 108.624 65.3667C109.018 65.7678 109.502 65.9692 110.08 65.9692C110.656 65.9692 111.144 65.7678 111.54 65.3667ZM112.188 61.7681C112.763 62.3459 113.05 63.0464 113.05 63.8727C113.05 64.6983 112.763 65.3974 112.188 65.9692C111.614 66.5403 110.912 66.8262 110.08 66.8262C109.248 66.8262 108.546 66.5403 107.975 65.9692C107.404 65.3974 107.118 64.6983 107.118 63.8727C107.118 63.042 107.404 62.3384 107.975 61.7651C108.546 61.1903 109.248 60.9029 110.08 60.9029C110.912 60.9029 111.614 61.1918 112.188 61.7681Z" fill="white"/>
</svg>
