<svg width="110" height="110" viewBox="0 0 110 110" fill="none" xmlns="http://www.w3.org/2000/svg">
<circle opacity="0.08" cx="55" cy="55" r="55" fill="#D5B899"/>
<path fill-rule="evenodd" clip-rule="evenodd" d="M63.004 17.0454L63.004 17.0454L63.004 17.0454L63.0039 17.0454L63.0039 17.0455C62.7565 17.4166 62.6671 17.5507 62.608 17.6972C62.5745 17.7801 62.5508 17.867 62.5136 18.003L62.4363 18.4275L62.3463 18.8985C62.3218 19.0292 62.2977 19.1601 62.2736 19.2911L62.2733 19.293C62.0329 20.6008 61.7912 21.9156 61.0662 23.0523C59.8187 24.845 58.1557 25.7733 56.0365 26.1928C55.637 26.2641 55.2379 26.3373 54.8391 26.4123L54.26 26.5251L54.1502 26.5447C53.5945 26.6439 53.3645 26.6849 52.9279 27.1215C52.9036 27.3637 52.8915 27.4848 52.8915 27.6059C52.8915 27.727 52.9036 27.8481 52.9279 28.0904C53.1581 28.3206 53.2515 28.414 53.3631 28.4735C53.4394 28.5142 53.524 28.539 53.6666 28.5807L54.0905 28.658L54.5603 28.748C54.6817 28.7707 54.8034 28.7931 54.9251 28.8155C56.3066 29.0699 57.7027 29.327 58.9348 30.0281C61.3559 31.6611 61.8612 33.9537 62.4075 36.664C62.5314 37.313 62.6267 37.6006 63.004 38.1665C63.3192 38.1854 63.4704 38.1944 63.6214 38.1937C63.7605 38.1929 63.8996 38.1839 64.1666 38.1665C64.2676 37.7479 64.363 37.3214 64.4592 36.8916L64.4592 36.8915L64.4592 36.8914L64.4592 36.8913L64.4592 36.8912C64.8223 35.2683 65.1958 33.5988 65.9196 32.1376C67.2037 30.1543 69.1626 29.4809 71.3614 28.9618L71.7925 28.8609C72.0763 28.7934 72.3601 28.7263 72.6441 28.6596C73.1289 28.556 73.5755 28.439 74.0489 28.2841L74.0489 28.2841C74.153 27.972 74.2011 27.8274 74.1991 27.6836C74.1973 27.5596 74.1581 27.4362 74.0852 27.2063C73.6161 26.6835 73.4984 26.6512 72.8378 26.5281C71.1997 26.2687 69.3831 25.9694 67.933 25.1232C66.1672 23.8669 65.3755 22.132 64.9356 20.0632C64.858 19.6776 64.7797 19.2921 64.701 18.9067L64.5829 18.3488L64.5671 18.2704C64.4541 17.7066 64.4089 17.4815 63.9728 17.0454L63.9728 17.0454C63.7306 17.0151 63.6095 17 63.4884 17C63.3673 17 63.2462 17.0151 63.004 17.0454ZM63.2764 22.2454L63.3915 21.8897H63.5853C64.559 24.0562 65.4688 25.623 67.6181 26.8066C68.1745 27.0875 68.6849 27.3563 69.2046 27.7028C66.9942 28.6962 65.4114 29.5946 64.2877 31.8447C64.2656 31.8934 64.2442 31.941 64.2232 31.9877C63.99 32.5062 63.8123 32.9013 63.3915 33.3222L63.2363 32.8075C62.4961 30.7435 61.2063 29.303 59.2739 28.3326C58.7341 28.0811 58.2703 27.8412 57.7721 27.509C58.1629 27.3899 58.5499 27.2585 58.9348 27.1215C61.0853 26.0308 62.466 24.516 63.2764 22.2454ZM40.3393 22.7809C39.6935 21.3004 39.0542 19.8348 37.9108 18.6554C36.4812 17.409 34.4929 17.5439 32.7091 17.7493L32.1944 17.8205C26.9082 18.5265 22.301 21.4283 19.0179 25.5713C16.1986 29.3972 14.4779 34.3398 15.1425 39.1353C15.7698 40.6215 16.7771 41.3984 18.2212 42.0451C18.6476 42.2276 19.0726 42.4134 19.4964 42.6018C19.8532 42.7608 20.2101 42.9197 20.5676 43.0771C21.3767 43.4331 22.182 43.7964 22.9851 44.1657L23.4187 44.3656C23.8637 44.5708 24.3086 44.776 24.7535 44.9814L25.4215 45.2902L25.4217 45.2903C26.8968 45.9723 28.3719 46.6542 29.8583 47.3113C30.4872 47.5883 31.1156 47.8663 31.7433 48.1458C32.0428 48.2794 32.3426 48.4125 32.6425 48.5453L32.8905 48.6522C34.3953 49.2998 35.7868 49.8986 36.9093 51.1616C37.0735 51.3522 37.1542 51.4459 37.2388 51.5361C37.3206 51.6234 37.406 51.7074 37.5741 51.8727L37.5741 51.8727L37.9174 52.1929L38.2544 52.5095L38.6009 52.8325C40.402 54.5114 42.2553 56.128 44.1597 57.6889C44.499 57.9632 44.8381 58.2377 45.177 58.5124C46.9561 60.0053 48.8097 61.3799 50.686 62.7478L50.9902 62.9691C50.6944 63.5098 50.3976 63.9501 49.9759 64.402L49.8335 64.5387C49.2445 65.1043 48.6562 65.6692 48.1108 66.2776C47.4825 67.0152 46.8356 67.7133 46.1459 68.3947C45.5699 68.9638 45.0135 69.536 44.4867 70.1508C44.1347 70.5624 43.7779 70.957 43.3975 71.3429C43.3214 71.4181 43.2451 71.493 43.1689 71.568L43.1675 71.5693C42.6779 72.0507 42.1894 72.5311 41.7323 73.0445C41.2524 73.6057 40.7723 74.1551 40.2533 74.6809L40.1546 74.7784C39.4493 75.475 38.7493 76.1663 38.1044 76.9207C37.582 77.5318 37.0293 78.0995 36.4573 78.6646C35.8813 79.2336 35.325 79.8058 34.7982 80.4206C34.309 80.9927 33.796 81.5269 33.2601 82.0556C32.7162 82.5921 32.1957 83.1353 31.6978 83.7147C31.369 84.0976 31.0389 84.4705 30.6851 84.8304C29.9701 85.5337 29.2672 86.2456 28.5817 86.9777L28.2705 87.3116C28.1723 87.4158 28.0713 87.5205 27.9693 87.6263L27.969 87.6265L27.9687 87.6268C27.2417 88.3804 26.4649 89.1854 26.2987 90.2265L26.3207 90.7147C26.3438 91.5077 26.4495 92.0425 26.902 92.713C27.6633 93.5361 28.3639 93.8132 29.4695 93.8635C30.9196 93.8072 31.6806 93.1541 32.6667 92.168L32.6775 92.1568C33.0868 91.7323 33.4914 91.3127 33.9315 90.9199C34.6113 90.3429 35.2615 89.7517 35.8898 89.1182C36.5815 88.4171 37.2701 87.722 38.0196 87.0815C38.6271 86.5635 39.1903 86.0146 39.7514 85.4466C40.197 84.9956 40.64 84.5493 41.1131 84.1273C41.8878 83.4667 42.6212 82.7803 43.3362 82.0556C43.9358 81.4478 44.5397 80.8545 45.1891 80.2995C45.7966 79.7815 46.3598 79.2326 46.921 78.6646C47.3665 78.2136 47.8095 77.7674 48.2827 77.3453C49.0573 76.6847 49.7907 75.9984 50.5057 75.2736C51.1093 74.6618 51.7177 74.0649 52.3708 73.5054C52.7681 73.166 53.1504 72.8232 53.5228 72.4564C54.2628 71.7057 55.0076 70.9632 55.7786 70.2444L56.0888 69.957C56.6733 69.4083 57.2154 68.9005 57.9659 68.5885C58.8488 69.3277 59.7011 70.0949 60.5455 70.8774C61.2999 71.5769 62.0563 72.2735 62.8223 72.9605C63.7242 73.7692 64.6179 74.5866 65.5101 75.4061C65.8044 75.6765 66.0988 75.9468 66.3935 76.2168L66.5071 76.3208C67.3619 77.1034 68.2168 77.886 69.0676 78.6729C70.0171 79.5512 70.9669 80.4286 71.9295 81.2926C72.8312 82.1011 73.7246 82.9183 74.6166 83.7375C75.1055 84.1867 75.5948 84.6355 76.0843 85.0841L76.6647 85.616L80.1527 88.8133L80.4433 89.0798L81.0247 89.6127L81.1179 89.6978L81.1201 89.6998C81.579 90.1188 82.0378 90.5378 82.4904 90.9636C82.7029 91.1643 82.9173 91.3788 83.1357 91.5973C84.0063 92.4681 84.9396 93.4017 86.0627 93.7787C87.3517 93.9393 88.6652 94.0068 89.7443 93.1974C90.577 92.3454 91.2095 91.4501 91.343 90.2386C91.3586 89.6504 91.3696 89.2328 91.2843 88.8359C91.0754 87.8645 90.2889 87.0173 87.5773 84.0962C87.1296 83.615 86.6848 83.1313 86.2412 82.6463C85.4093 81.7365 84.5741 80.8297 83.7374 79.9241C83.0809 79.2136 82.4252 78.5023 81.7718 77.7889C81.0441 76.9941 80.3157 76.2001 79.5849 75.4082L79.2928 75.0919C78.8012 74.5595 78.3095 74.0271 77.8172 73.4952L77.4958 73.1482C76.7784 72.3736 76.061 71.5991 75.3546 70.8146C74.4788 69.8352 73.5905 68.8692 72.6925 67.9103C71.95 67.1177 71.2108 66.3234 70.4884 65.5124C70.0727 65.0455 69.653 64.5836 69.2235 64.1295L68.8103 63.6958C68.5261 63.3969 68.2417 63.0982 67.9572 62.7996L67.5395 62.366L67.1466 61.9534C66.6901 61.4779 66.3737 61.0531 66.1043 60.4501C66.5878 59.9707 67.0709 59.4909 67.5534 59.0105L68.151 58.4155L68.4257 58.1435C69.3491 57.2293 70.2715 56.3162 71.1234 55.3334C71.4799 54.9167 71.8365 54.5214 72.2202 54.1283C73.525 52.857 74.7742 51.5386 76.0161 50.206C76.3864 49.8081 76.7568 49.4104 77.1281 49.0137L77.2483 48.8854C78.3013 47.7621 79.3541 46.6391 80.3828 45.4934C81.0189 44.7815 81.6619 44.0765 82.3084 43.3741C82.7901 42.8507 83.2703 42.3265 83.739 41.7913L83.8309 41.6847L83.8312 41.6844C84.2198 41.2334 84.6062 40.7851 85.0287 40.3645C85.536 39.8735 86.0176 39.3837 86.4677 38.8386C87.1941 37.9296 87.922 37.0583 88.7513 36.2409C90.8145 34.2161 92.7878 32.1497 94.0848 29.537L94.298 29.0955C94.7567 28.1573 95.0944 27.4185 94.9762 26.3464C94.9072 26.2775 94.8628 26.233 94.8107 26.2011C94.7164 26.1434 94.597 26.1268 94.2616 26.08C93.9444 26.1159 93.7839 26.1341 93.6413 26.1944C93.4955 26.2562 93.3683 26.3622 93.1111 26.5765C92.3236 27.1019 91.9273 27.3664 91.5033 27.5744C91.0737 27.7853 90.6157 27.9383 89.6937 28.2464L89.6936 28.2464C87.126 29.1514 85.2531 30.059 83.2333 31.9234C82.9506 32.1849 82.6656 32.444 82.3765 32.6985C81.6256 33.3483 80.8865 34.0094 80.1527 34.6786L80.1027 34.7242C79.641 35.1456 79.1796 35.5666 78.7085 35.9774C77.8119 36.7493 76.9464 37.5511 76.0835 38.3602C75.3181 39.0785 74.5537 39.7945 73.7582 40.4796C73.2854 40.8862 72.8394 41.3068 72.4018 41.7512C72.0681 42.091 71.7342 42.4202 71.3762 42.7345C70.5493 43.4386 69.7731 44.1756 69.0109 44.9484C68.5195 45.4525 68.0295 45.9524 67.4995 46.4164C66.7179 47.086 65.9698 47.7757 65.2461 48.5074C65.0003 48.7578 64.754 49.0075 64.5071 49.2567C64.1105 49.6569 63.7145 50.0577 63.3188 50.4588C62.9191 50.8649 62.5193 51.2708 62.1181 51.6754L61.7399 52.0567C61.5068 52.2948 61.2729 52.5322 61.038 52.7685C60.7573 53.0971 60.6425 53.2315 60.4994 53.2774C60.4004 53.3091 60.2878 53.2985 60.0974 53.2806L59.8474 52.9949L59.5615 52.591L59.2365 52.1388C57.9871 50.3794 56.6708 48.6942 55.2864 47.0398C54.9203 46.6036 54.5595 46.1651 54.2025 45.7213C53.5171 44.8645 52.8117 44.0339 52.0675 43.2281L51.7531 42.8896C51.188 42.277 50.6221 41.6678 50.0241 41.0868C48.12 39.2606 46.8738 37.5763 45.8726 35.132C45.4062 33.9751 44.8971 32.8405 44.3785 31.7065C44.0716 31.037 43.7656 30.3672 43.4602 29.697L43.2696 29.2787C42.8487 28.3564 42.4296 27.4332 42.0146 26.5082C41.7054 25.8187 41.3949 25.1298 41.0829 24.4416C40.9295 24.1038 40.7763 23.7658 40.6234 23.4277C40.5276 23.2127 40.4336 22.9971 40.3397 22.7818L40.3396 22.7817L40.3396 22.7815L40.3395 22.7813L40.3393 22.7809ZM22.4937 24.2755L23.0871 23.8274C26.6913 20.7856 31.1146 19.0118 35.876 19.3707C36.5846 19.725 37.1136 20.1443 37.5275 20.8241L37.7759 21.3773L38.0653 22.0114C38.2202 22.3612 38.3753 22.711 38.533 23.0595C38.7624 23.564 38.9913 24.0687 39.2181 24.5743C39.7476 25.7577 40.2828 26.9384 40.8191 28.1187C40.9999 28.5163 41.1805 28.9139 41.3608 29.3117C42.6621 32.1844 43.9992 35.0399 45.3439 37.8925L45.5646 38.3602C45.1015 38.9886 44.7498 39.4277 44.0144 39.7166C43.106 38.3642 42.2105 37.0052 41.3339 35.6319C41.0703 35.218 40.8064 34.8042 40.5423 34.3906L40.1329 33.7498C39.3399 32.5084 38.541 31.2709 37.7395 30.0349C37.2681 29.3082 36.7975 28.5811 36.327 27.8538L35.7501 26.9622L35.4923 26.5637L35.1009 25.9589L33.9383 26.5402C33.9383 26.7133 33.9383 26.8091 33.96 26.8997C33.987 27.0118 34.0473 27.116 34.1822 27.3492L34.5226 27.8709L34.8992 28.452C35.1553 28.8452 35.41 29.2394 35.6629 29.6347C35.911 30.0239 36.1594 30.4129 36.408 30.8017L36.7964 31.4087C37.6192 32.6948 38.443 33.9802 39.2744 35.2607C39.9693 36.3306 40.6614 37.4022 41.3437 38.4801L41.6044 38.8931C42.0933 39.6604 42.5472 40.4042 42.8518 41.2668C42.2997 41.8496 41.8374 42.2896 41.1078 42.6232C40.1571 41.6643 39.2055 40.7061 38.2527 39.7492L38.1369 39.6329C37.6894 39.1836 37.2419 38.7343 36.7953 38.2841C36.3206 37.805 35.8456 37.3263 35.3695 36.8487L34.8254 36.3029L34.2981 35.7695L33.8045 35.2759C33.2937 34.762 32.8623 34.3847 32.1944 34.0973L31.4193 35.0661L40.139 43.7858C39.5353 44.5983 39.2996 44.9156 38.993 45.1325C38.7966 45.2715 38.5711 45.3693 38.2013 45.5298C36.8488 44.6214 35.4898 43.7259 34.1165 42.8492C32.6329 41.9043 31.1499 40.9585 29.6749 40.0002C28.6014 39.3027 27.5263 38.6075 26.4456 37.9211L26.03 37.6578L25.9941 37.6348C25.3028 37.191 24.6775 36.7896 23.8622 36.6163L23.2809 37.7789C25.2895 39.0252 27.2829 40.2927 29.2647 41.5811C31.798 43.2283 34.3424 44.8575 36.8934 46.4772L37.2324 46.6924L36.7964 47.2616C36.6774 47.4257 36.6183 47.5072 36.5512 47.5817C36.4849 47.6554 36.411 47.7221 36.264 47.8546L36.2639 47.8547L36.2637 47.8549L36.2636 47.855L36.2636 47.855C35.8276 48.0314 35.5938 48.0793 35.1403 47.948L34.7618 47.7619L34.2971 47.5406C33.8905 47.3442 33.4814 47.1532 33.0709 46.9652C32.6859 46.7903 32.301 46.6154 31.9164 46.4395L31.5043 46.2507L31.0797 46.0562L30.7148 45.8891L30.7147 45.889C29.0229 45.114 27.3311 44.3389 25.6353 43.5725L24.776 43.1841C24.3624 42.9971 23.9489 42.81 23.5352 42.6232C22.7924 42.2892 22.0499 41.9548 21.3111 41.6119C21.0636 41.4965 20.8159 41.3815 20.5681 41.2668C20.143 41.0755 19.7184 40.8839 19.296 40.6866L18.8809 40.4917C18.5018 40.3244 18.1364 40.1511 17.7743 39.9497C17.0666 39.4115 16.7309 38.6353 16.6102 37.7668L16.6321 37.1976L16.6465 36.6284C17.0056 32.0139 19.0584 27.4185 22.4937 24.2755ZM90.9531 29.5459L91.462 29.361C91.6712 29.2822 91.7762 29.2427 91.876 29.253C91.9766 29.2634 92.072 29.3244 92.2634 29.4468C91.2084 31.1789 90.0586 32.5244 88.5817 33.9035C87.6925 33.2048 86.9692 32.4553 86.2565 31.5782C87.2126 30.9858 88.1729 30.5618 89.2285 30.1745L89.8049 29.9675L90.3926 29.7491L90.9531 29.5459ZM82.6793 34.8095C82.9272 34.5763 83.175 34.3429 83.4226 34.1094C83.5471 33.9903 83.666 33.8612 83.7826 33.7345L83.7827 33.7344C84.3012 33.1712 84.7752 32.6564 85.4995 33.2889L85.9658 33.7582C86.5048 34.2937 86.9284 34.7502 87.2253 35.4537L86.9748 35.7308L86.9747 35.7309C86.3568 36.4142 85.739 37.0975 85.1317 37.7903C84.4896 38.5291 83.8393 39.2592 83.1804 39.9831C82.7131 40.4951 82.2462 41.007 81.7846 41.5241C80.8309 42.5943 79.8537 43.6405 78.869 44.682L78.7246 44.834L78.7245 44.8341C78.1349 45.4546 77.5457 46.0747 76.9799 46.7172C76.4895 47.2829 76.0013 47.84 75.478 48.3758L75.2711 48.5768L75.2711 48.5768L75.271 48.5769L75.271 48.5769L75.2709 48.577C74.7468 49.0859 74.2239 49.5937 73.7408 50.1431C73.0317 50.965 72.3044 51.756 71.5374 52.5244L71.1423 52.9173C70.2064 53.8586 69.2545 54.7542 68.2358 55.6058C67.8509 55.229 67.4669 54.8513 67.0837 54.4727L66.6129 54.0072L66.1467 53.5508L65.7001 53.108C65.1957 52.6112 64.8365 52.1884 64.5541 51.5367L64.5542 51.5366L64.5544 51.5365L64.5545 51.5365L64.5545 51.5365C64.736 51.4457 64.8324 51.3975 64.9204 51.337C65.0202 51.2685 65.1092 51.1842 65.299 51.0044L65.7304 50.5663C66.0573 50.2362 66.3838 49.9057 66.7098 49.5747L66.7404 49.5436L66.7405 49.5435C67.6323 48.6379 68.5198 47.7366 69.4794 46.902C69.8319 46.6026 70.1745 46.3038 70.5048 45.9799C71.4311 45.0329 72.4005 44.1364 73.376 43.2408C73.7105 42.934 74.0448 42.6269 74.3783 42.3189C75.592 41.1951 76.8083 40.0751 78.0401 38.9711C78.3611 38.6835 78.6815 38.3953 79.0014 38.1067L79.2134 37.9152C79.744 37.436 80.2746 36.9568 80.8142 36.4876C81.3224 36.0486 81.8279 35.6086 82.3184 35.1499L82.6793 34.8095ZM45.4774 40.9224L45.9547 40.4426C46.1425 40.237 46.2289 40.1423 46.3354 40.1054C46.4263 40.0739 46.5318 40.0845 46.7272 40.1042C47.1843 40.5521 47.4129 40.7762 47.6338 41.0077C47.855 41.2394 48.0683 41.4786 48.4953 41.9571L48.4954 41.9571C48.9773 42.4965 49.4609 43.0334 49.9517 43.5648C51.0662 44.7676 52.1482 45.9918 53.1996 47.2502L53.7029 47.855C54.7176 49.0596 55.6923 50.2924 56.6548 51.5389L57.0818 52.0937L57.4994 52.6319L57.8925 53.1459C58.3588 53.7523 58.6769 54.3031 58.9348 55.0245C58.5067 55.4422 58.1125 55.8782 57.7237 56.3325C57.3958 56.7166 57.0622 57.0902 56.7067 57.449C55.9293 58.2202 55.1692 59.0044 54.4194 59.8026L54.0057 60.2442C53.6048 60.6713 53.2039 61.0983 52.8034 61.5257L52.5403 61.8065C51.8466 61.4764 51.2481 61.0723 50.6242 60.627L50.1787 60.3048C48.6459 59.1971 47.1772 58.0259 45.7281 56.8116C45.2788 56.434 44.8281 56.0588 44.3717 55.6899C43.3819 54.8905 42.4147 54.074 41.4749 53.2163L40.9141 52.6993C40.5062 52.3265 40.0987 51.9534 39.6925 51.5788L39.267 51.1854L38.8517 50.8058L38.4616 50.4429C37.9783 49.9968 37.7084 49.6092 37.4262 49.0176C38.4751 47.9606 39.5248 46.9043 40.5757 45.8492L40.6998 45.7247C41.1939 45.2288 41.6879 44.7329 42.1811 44.2361C42.7049 43.708 43.2289 43.1802 43.7541 42.6535C43.9535 42.4538 44.1528 42.2539 44.352 42.054L44.9367 41.4632L45.4774 40.9224ZM62.1078 53.9588L62.5846 53.4683L62.5846 53.4683C62.7908 53.2332 62.8829 53.1282 62.9976 53.0886C63.0902 53.0567 63.1975 53.0674 63.3915 53.0868C63.6864 53.3577 63.9798 53.6305 64.2626 53.914L64.6026 54.2616C65.4641 55.1325 66.2992 56.0114 67.0731 56.9622L66.8037 57.2877L66.4434 57.7131C65.9735 58.2734 65.6008 58.592 64.9417 58.9C64.5568 58.5231 64.1728 58.1454 63.7896 57.7668L63.3188 57.3013L62.8526 56.8449L62.406 56.4021C61.9016 55.9053 61.5424 55.4825 61.26 54.8308L61.6279 54.4493L62.1078 53.9588ZM59.1164 57.0591C59.3748 56.7649 59.636 56.473 59.9036 56.1872C60.2687 56.3814 60.459 56.4826 60.6241 56.6152C60.8038 56.7595 60.9536 56.9411 61.2664 57.3203L61.7323 57.7858L62.1959 58.2422L62.6399 58.685C63.14 59.1821 63.4971 59.6076 63.779 60.2563L63.5876 60.452C62.9561 61.0975 62.3245 61.7433 61.6491 62.3432C60.9722 62.9203 60.3229 63.5097 59.6961 64.1418C59.0044 64.8429 58.3157 65.538 57.5663 66.1785C56.9588 66.6965 56.3956 67.2454 55.8344 67.8134C55.3888 68.2644 54.9459 68.7107 54.4727 69.1327C53.6981 69.7933 52.9647 70.4796 52.2497 71.2044C51.6501 71.8122 51.0462 72.4055 50.3967 72.9605C49.7892 73.4785 49.226 74.0274 48.6649 74.5954C48.2193 75.0464 47.7763 75.4926 47.3032 75.9147C46.629 76.4896 45.9819 77.0757 45.3575 77.7052L45.1796 77.8857C44.6664 78.4068 44.154 78.9271 43.6087 79.4155C42.8385 80.072 42.1093 80.7537 41.3985 81.4743C40.7989 82.0821 40.195 82.6753 39.5456 83.2303C38.9381 83.7484 38.3749 84.2973 37.8137 84.8653C37.3659 85.3186 36.9203 85.7667 36.4452 86.1914C35.8938 86.6628 35.3527 87.1333 34.836 87.6432C34.0282 88.461 33.2184 89.2672 32.3639 90.0365C32.0482 90.3141 31.7333 90.5926 31.4193 90.8722C31.3197 90.9698 31.2246 91.0666 31.1318 91.1611C30.5749 91.7281 30.1008 92.2107 29.2394 92.277C28.5672 91.9715 28.2904 91.7122 27.9314 91.0659C27.8961 90.237 28.0729 89.9605 28.6338 89.3462C28.9718 89.0371 29.2939 88.7338 29.5981 88.391C30.087 87.8141 30.582 87.2535 31.1135 86.7152L31.2094 86.6204L31.2097 86.6202L31.2098 86.6201L31.2098 86.62L31.21 86.6199C31.9153 85.9233 32.6152 85.2321 33.2601 84.4777C33.7825 83.8666 34.3352 83.2989 34.9072 82.7338C35.4831 82.1647 36.0395 81.5925 36.5663 80.9777C36.9184 80.5661 37.2751 80.1715 37.6555 79.7856C37.7317 79.7105 37.8079 79.6355 37.8841 79.5606L37.8855 79.5592L37.8855 79.5592L37.8856 79.5591C38.3751 79.0777 38.8637 78.5974 39.3208 78.084C39.8006 77.5229 40.2807 76.9734 40.7998 76.4476L40.8985 76.3501L40.8985 76.3501L40.8985 76.3501L40.8985 76.35L40.8985 76.35C41.6038 75.6535 42.3038 74.9622 42.9487 74.2079C43.4711 73.5967 44.0237 73.029 44.5957 72.4639C45.1717 71.8949 45.7281 71.3227 46.2549 70.7079C46.6069 70.2962 46.9636 69.9016 47.3441 69.5157L47.4426 69.4186L47.5741 69.2893C48.0636 68.8079 48.5522 68.3275 49.0093 67.8142C49.4892 67.253 49.9693 66.7035 50.4883 66.1777L50.5869 66.0803C51.2923 65.3837 51.9923 64.6924 52.6372 63.938C53.1596 63.3269 53.7123 62.7591 54.2843 62.1941C54.8642 61.6211 55.4244 61.0444 55.9555 60.4259C56.4042 59.9018 56.8686 59.4082 57.3604 58.9242C57.9717 58.3236 58.5471 57.6997 59.1164 57.0591ZM63.0467 63.1796L63.3915 62.8601C63.4722 62.785 63.5637 62.6874 63.6626 62.5819C63.9867 62.2363 64.3898 61.8065 64.7479 61.8065L65.196 62.3273C65.6886 62.9118 66.1965 63.4796 66.7153 64.0412L67.0126 64.3619L67.6265 65.0242C68.0116 65.4395 68.3958 65.8555 68.7785 66.2731C69.5959 67.1662 70.414 68.0587 71.2355 68.9481C72.347 70.1511 73.4555 71.3568 74.5615 72.5648C75.7448 73.8573 76.9289 75.1491 78.1181 76.4362C79.0431 77.4375 79.9655 78.4412 80.8861 79.4465C81.4165 80.0257 81.9472 80.6047 82.4779 81.1836C82.8333 81.571 83.1887 81.9585 83.5437 82.3462L84.0425 82.8935L84.5489 83.4483C85.0477 83.9951 85.5494 84.5388 86.0585 85.076L86.4714 85.5094C86.7509 85.8034 87.0304 86.0974 87.3101 86.3912C87.4346 86.5206 87.5606 86.6485 87.6863 86.7761C88.5836 87.687 89.4636 88.5805 89.6717 89.8912C89.6346 90.5345 89.4517 90.9273 89.0661 91.4414C88.5046 92.0201 88.0425 92.208 87.2495 92.2906C86.4079 92.1638 85.7876 91.7402 85.1415 91.206C84.8607 90.94 84.5798 90.6741 84.2977 90.4094L83.9865 90.1175C83.4566 89.6158 82.9227 89.1188 82.3864 88.624L82.0662 88.3289C81.3316 87.65 80.5943 86.9746 79.8499 86.3064C78.948 85.4977 78.0543 84.6803 77.1621 83.8608C76.8678 83.5904 76.5734 83.3201 76.2787 83.0501L76.1661 82.947L76.1657 82.9466C75.3106 82.1638 74.4557 81.3811 73.6046 80.594C72.6592 79.7195 71.7137 78.846 70.7548 77.9864C70.0056 77.315 69.2647 76.6352 68.5264 75.9518C67.9462 75.4145 67.3655 74.878 66.7779 74.3486C65.7906 73.4662 64.8178 72.5701 63.8517 71.6646L63.8072 71.6229L63.8069 71.6226C63.1897 71.0439 62.5732 70.4657 61.9397 69.9048C61.7924 69.7778 61.6427 69.6518 61.4924 69.5253L61.4924 69.5253C60.5689 68.748 59.627 67.9553 59.1285 66.8446C59.6654 66.4178 60.179 65.9861 60.6681 65.5048C61.4472 64.7142 62.2343 63.936 63.0467 63.1796ZM23.7532 56.7321C23.9909 56.7495 24.1148 56.7586 24.2219 56.8058C24.3385 56.8572 24.4352 56.9539 24.6373 57.156C24.7614 57.6805 24.8717 58.2021 24.9764 58.7304C25.3322 60.3604 25.7501 61.4622 27.1911 62.4022C28.0406 62.8711 28.9282 63.0437 29.8686 63.2265L29.8686 63.2265L29.8687 63.2265L29.8687 63.2265L29.9618 63.2447C30.578 63.3794 30.8123 63.4306 30.9935 63.5576C31.1046 63.6356 31.1958 63.742 31.3428 63.9138C31.3811 64.1199 31.4002 64.2229 31.401 64.326C31.4018 64.4288 31.3844 64.5317 31.3496 64.7373C30.9086 65.2413 30.3339 65.3369 29.7137 65.4401C29.6211 65.4555 29.5275 65.471 29.4331 65.4882C28.287 65.7005 27.5208 65.963 26.575 66.6508H26.1875C25.3608 68.2344 24.8836 69.9654 24.4435 71.6888C24.2322 71.7517 24.1206 71.7849 24.0069 71.8087C23.8796 71.8355 23.7499 71.8506 23.4747 71.8826C23.3289 71.8033 23.2478 71.7592 23.1806 71.6995C23.0964 71.6247 23.034 71.5253 22.8934 71.3013C22.7153 70.6256 22.5764 69.9556 22.4506 69.269C22.1968 68.0391 21.7392 67.0952 20.7195 66.3268C19.5744 65.7856 18.4578 65.4708 17.2135 65.2316C16.9556 65.1667 16.8254 65.134 16.7126 65.0704C16.5976 65.0056 16.5008 64.9087 16.3051 64.7131C16.2924 64.4461 16.2864 64.3193 16.287 64.1924C16.2876 64.0776 16.2936 63.9629 16.3051 63.7442L16.3054 63.7441L16.3061 63.7439C17.3488 63.3809 17.6828 63.2646 18.0237 63.1748C18.1843 63.1325 18.3465 63.0961 18.585 63.0426C19.9214 62.7421 20.8636 62.3142 21.7307 61.2252C22.3568 60.1152 22.6393 58.8707 22.9196 57.636L22.9683 57.4217C23.0534 57.0928 23.0948 56.9324 23.1983 56.8478C23.2968 56.7672 23.4514 56.7554 23.7532 56.7321ZM23.6684 61.2252C23.5039 61.4897 23.3431 61.7567 23.184 62.0245C22.5433 63.0137 21.776 63.5571 20.7619 64.1318C21.2561 64.6466 21.776 65.1056 22.3242 65.5608C22.9705 66.1181 23.3534 66.6187 23.6684 67.4259L23.9833 67.0262L24.4435 66.457L24.713 66.1179C25.3345 65.359 25.9252 64.8277 26.7688 64.3255L26.3449 63.9985C25.5538 63.3481 24.8861 62.6808 24.2982 61.8428L23.8622 61.2252H23.6684ZM88.5538 56.8058C88.4467 56.7586 88.3228 56.7495 88.0852 56.7321C87.4791 56.7788 87.4628 56.8002 87.3071 57.3778C87.1758 57.899 87.0288 58.3974 86.8378 58.8999C86.3189 59.3261 86.0573 59.5409 85.7646 59.6976C85.467 59.8569 85.1373 59.9562 84.4724 60.1564L84.125 60.2563V61.419C84.4472 61.5499 84.7704 61.6785 85.0938 61.8065C85.507 61.8989 85.898 62.002 86.2966 62.1456C86.5487 62.3878 86.6771 62.5112 86.7643 62.6588C86.8548 62.812 86.901 62.9913 86.9952 63.3567C87.1326 64.0509 87.2189 64.4761 87.8066 64.9068L87.8068 64.9068L87.807 64.9068C88.0819 64.8748 88.2116 64.8598 88.3389 64.833C88.4525 64.8091 88.5642 64.7759 88.7754 64.7131L88.7755 64.7131L88.8822 64.3588L89.0298 63.8896C89.098 63.6574 89.1323 63.5408 89.1729 63.4263C89.2139 63.3106 89.2614 63.1972 89.3568 62.9691C89.6647 62.4438 89.8334 62.235 90.4051 62.0116L90.4967 61.9902C90.9648 61.8808 91.4209 61.7743 91.8758 61.6127C92.1167 61.2514 92.2079 61.1147 92.2375 60.9657C92.2555 60.875 92.2507 60.7797 92.2429 60.6265C92.1569 60.4428 92.1136 60.3502 92.0461 60.2813C91.9777 60.2114 91.8844 60.1658 91.6964 60.0739C91.2324 59.9532 90.7786 59.8326 90.3257 59.675C89.8003 59.3697 89.5912 59.1941 89.3613 58.6267L89.3574 58.6104C89.2378 58.1213 89.1194 57.6368 88.9693 57.156C88.7672 56.9539 88.6705 56.8572 88.5538 56.8058ZM87.6129 61.0314L88.0004 60.2563L88.5817 60.6439L88.1942 61.419L87.6129 61.0314ZM51.7652 67.0383L53.1216 68.201C52.2148 69.2891 51.249 70.2985 50.2484 71.3005L49.7609 71.79C49.4231 72.1288 49.085 72.4673 48.7466 72.8056C48.2268 73.3259 47.7086 73.8476 47.1904 74.3695C46.8615 74.6989 46.5325 75.0283 46.2034 75.3576L45.7324 75.8328L45.2972 76.2662L44.914 76.6502C44.7495 76.79 44.6701 76.8575 44.5782 76.8901C44.4922 76.9207 44.3955 76.9207 44.2082 76.9207C43.8774 76.6057 43.5539 76.2829 43.2393 75.9518C43.5268 75.2839 43.904 74.8524 44.4179 74.3416L44.9116 73.8481L45.445 73.3207L45.9907 72.7767C46.4683 72.3005 46.9471 71.8256 47.4261 71.3508C47.8764 70.9042 48.3257 70.4567 48.775 70.0092L48.8912 69.8934C49.8482 68.9406 50.8063 67.9891 51.7652 67.0383ZM69.3694 70.647C68.8893 70.1636 68.4736 69.8323 67.8482 69.5574C67.3919 69.9722 67.1428 70.3595 66.8794 70.9137C67.7153 71.7579 68.5521 72.6012 69.3901 73.4434C69.5928 73.647 69.7954 73.8507 69.998 74.0543C70.1373 74.1943 70.2765 74.3343 70.4157 74.4743C70.9187 74.9822 71.4216 75.49 71.926 75.9965L72.4049 76.4771L72.868 76.9463L73.3028 77.3811C73.7829 77.8646 74.1986 78.1959 74.824 78.4708C75.2803 78.056 75.5294 77.6687 75.7928 77.1144C74.9569 76.2703 74.1201 75.427 73.2821 74.5848C72.9402 74.2413 72.5983 73.8976 72.2565 73.5539C71.7536 73.046 71.2506 72.5382 70.7462 72.0316L70.2673 71.5511L69.8042 71.0819L69.3694 70.647Z" fill="#977A5D"/>
</svg>
