<svg width="116" height="117" viewBox="0 0 116 117" fill="none" xmlns="http://www.w3.org/2000/svg">
<circle opacity="0.08" cx="55.1667" cy="55" r="55" fill="#D5B899"/>
<path fill-rule="evenodd" clip-rule="evenodd" d="M55.218 18.669C53.2382 20.1617 51.7616 22.1048 51.1796 24.5431C51.1555 25.0135 51.1326 25.4839 51.1107 25.9543C51.0135 26.8271 50.9601 27.1709 50.2832 27.7469C49.7392 28.068 49.1679 28.3285 48.5937 28.5904L48.5693 28.6015C47.8779 28.9478 47.291 29.4613 46.7099 29.9698C46.6089 30.0582 46.508 30.1465 46.4068 30.2337L46.0261 30.5406C42.3022 33.6134 40.0003 38.4735 39.2937 43.1636L39.2225 43.6273C38.8887 46.0658 39.0638 48.5455 39.2372 51.0017V51.0018C39.2729 51.507 39.3085 52.0113 39.3396 52.514L39.4192 53.8319C39.4836 54.8994 39.5489 55.9669 39.6149 57.0343L38.997 57.3789C38.444 57.6873 38.0426 58.0035 37.6301 58.4913L37.3168 58.852C36.4326 60.1048 36.507 61.5496 36.7577 63.0049C36.8602 63.5143 36.9725 64.0201 37.0909 64.5261L37.2046 65.0173C37.6243 66.7018 38.1667 67.9564 39.6149 68.9661C40.3482 69.4001 40.9725 69.5997 41.8177 69.7003L42.0242 70.4002C42.6853 72.3591 43.8469 73.9675 45.1219 75.5744L45.4209 75.9538C46.0995 76.7803 46.8777 77.4545 47.6918 78.1444C48.0076 78.4171 48.3227 78.6907 48.6377 78.9643C48.9952 79.2747 49.3531 79.5848 49.711 79.8947C50.3045 80.4086 50.8975 80.923 51.4902 81.4377C51.7188 81.6359 51.9477 81.8339 52.1768 82.0316C52.7482 82.5247 53.3163 83.0209 53.8786 83.5244C55.9371 85.3543 57.8545 86.5249 60.6863 86.4607C63.3851 86.2047 65.1536 84.7304 67.0616 82.9425C67.6536 82.388 68.2607 81.8651 68.8937 81.3568C69.8316 80.6015 70.7149 79.7991 71.597 78.9804C72.0089 78.601 72.4258 78.2324 72.8518 77.869C75.3744 75.6545 77.3198 73.233 78.5309 70.0675V69.7003L78.8406 69.6587C80.2663 69.4131 81.2312 68.7981 82.1219 67.6617C82.6569 66.8899 82.8633 66.0857 83.0741 65.18L83.1896 64.7168C83.6861 62.7051 84.1128 60.808 83.0411 58.9065C82.5253 58.1841 81.8959 57.6154 81.1008 57.2179C81.1865 56.1678 81.3586 55.1517 81.5769 54.1216L81.6615 53.7226L81.8372 52.8946C83.1473 46.6632 83.0884 40.6499 79.5957 35.0795C78.7476 33.7879 77.7625 32.6326 76.6952 31.5186L76.308 31.0963C75.5527 30.2982 74.7518 29.6212 73.8499 28.9946L73.5419 28.7803C72.9487 28.3795 72.3637 28.0857 71.7045 27.8129C71.4997 27.7176 71.3982 27.6704 71.3102 27.605C71.2237 27.5407 71.1503 27.4589 71.0047 27.2966C70.8243 26.663 70.7611 26.0611 70.7049 25.405C70.4847 23.1881 69.358 21.0419 67.722 19.5295C64.0052 16.567 59.297 16.1116 55.218 18.669ZM66.232 20.5047L66.6149 20.8116C67.8402 21.9102 68.8868 23.6405 69.169 25.2774C69.1761 25.7057 69.1772 26.1341 69.169 26.5624L68.8241 26.4613C66.3153 25.7491 63.9922 25.3652 61.3898 25.3791C60.9452 25.3807 60.5009 25.3754 60.0563 25.3695C57.9895 25.3604 56.1116 25.6736 54.1166 26.1952C53.8402 26.2648 53.5637 26.334 53.2871 26.4029L52.6481 26.5624C52.7013 24.3739 53.4521 22.6586 54.9756 21.0898C56.9234 19.2535 58.9596 18.5698 61.6091 18.6181C63.3651 18.6983 64.8758 19.4177 66.232 20.5047ZM74.8596 31.8858L75.274 32.2436C78.0592 34.8427 79.7862 38.3415 80.7337 41.9819L80.8706 42.5075C81.6216 46.0863 80.9629 49.674 80.183 53.1794C80.1213 53.4702 80.06 53.7611 79.9994 54.0521C79.8805 54.6187 79.7586 55.1843 79.6323 55.7493L79.2185 55.3349L78.7144 54.8315L78.3538 54.4658C76.6881 52.876 74.4762 52.0012 72.3333 51.1536C71.9477 51.0011 71.5644 50.8495 71.1869 50.6948C61.5499 47.0603 61.5499 47.0603 55.1463 39.4564C54.5974 38.0816 53.933 36.3107 53.933 34.8228C53.6707 34.8563 53.536 34.8735 53.4021 34.8956C53.2608 34.9188 53.1203 34.9475 52.8317 35.0064C52.6183 35.433 52.6092 35.8129 52.5984 36.2602V36.2602V36.2603C52.5963 36.3445 52.5942 36.4311 52.5907 36.5208C52.3615 39.8272 50.9682 42.6464 48.7932 45.1025L48.4046 45.5514C47.1448 46.9815 45.8203 48.3785 44.3647 49.6113C43.1131 50.6852 42.0072 51.8825 41.267 53.363H41.0834C40.4071 46.3706 40.331 39.7882 44.9369 34.06C48.2648 30.0722 52.9023 27.3494 58.1118 26.7763C64.4251 26.3089 70.033 27.7048 74.8596 31.8858ZM53.7495 39.5955L54.0191 40.1735C56.9182 46.2612 62.7146 48.6995 68.594 51.1727L68.6002 51.1753L68.8435 51.2776L69.1912 51.4241L69.5905 51.5926C70.248 51.8698 70.9059 52.1459 71.5646 52.4201C73.8014 53.306 74.9028 53.7423 75.8129 54.4313C76.6958 55.0997 77.3986 56.006 78.7833 57.7915C79.5645 62.6354 77.8885 69.1358 75.0661 73.1422C73.3511 75.3905 71.3296 77.2286 69.1353 78.9984C68.5789 79.4621 68.0471 79.9458 67.5169 80.4389C66.5122 81.372 65.471 82.2485 64.3963 83.1006L63.9955 83.4283C62.3841 84.7067 60.9473 84.9464 58.8893 84.7527C57.313 84.4651 56.1254 83.3514 54.981 82.2783L54.981 82.2783L54.9809 82.2782L54.9808 82.2782C54.8146 82.1223 54.6492 81.9672 54.4837 81.8157C54.1664 81.5288 53.849 81.2419 53.5315 80.9552L53.0912 80.5551C52.6288 80.1465 52.1538 79.7586 51.6729 79.372C50.7783 78.6484 49.9316 77.8845 49.0928 77.0979C48.5666 76.6047 48.0339 76.1327 47.4738 75.6777C44.0348 72.6731 42.5862 68.2053 42.0013 63.8262L41.9252 63.261C41.8449 62.6542 41.7675 62.0472 41.6915 61.4399L41.6183 60.8624C41.3011 58.2035 41.3887 55.6708 42.9191 53.363C43.555 52.5904 44.2366 51.8727 44.9383 51.1602L45.4259 50.6575C46.098 49.974 46.7762 49.3126 47.5082 48.6935C50.2542 46.3232 52.4937 43.0815 53.5659 39.5955H53.7495ZM39.982 58.8699C40.1096 59.8854 40.2369 60.9008 40.3641 61.9163L40.4939 62.9508C40.5564 63.4489 40.6188 63.947 40.6812 64.445L40.7391 64.9059C40.8623 65.8913 40.9757 66.8774 41.0834 67.8647C40.0366 67.3263 39.4313 66.729 39.0398 65.6275C38.8483 64.969 38.677 64.3086 38.5135 63.6427L38.3801 63.1665C38.0529 61.9273 38.0633 60.8622 38.6512 59.7075C39.0894 59.2084 39.3706 59.0876 39.982 58.8699ZM80.7337 58.8699C81.4783 59.5542 82.1683 60.1925 82.2201 61.2577C82.1535 62.2166 81.9447 63.1604 81.7373 64.0984L81.6859 64.331L81.6009 64.7321C81.3397 65.8488 80.881 66.7579 79.9535 67.4746L79.4487 67.8647C79.2012 67.2014 79.3012 66.5636 79.4064 65.8923C79.4182 65.8169 79.4301 65.7411 79.4415 65.6648L79.5027 65.234C79.5675 64.7798 79.6343 64.326 79.7011 63.8721C79.7662 63.4208 79.8309 62.9695 79.8955 62.5181C79.9359 62.2378 79.9765 61.9574 80.0175 61.6771L80.075 61.2837L80.1311 60.9041C80.1672 60.6382 80.1981 60.3716 80.2249 60.1047C80.2606 59.7529 80.3123 59.4029 80.3665 59.0535L80.7337 58.8699ZM90.4626 48.0396C89.5619 48.4654 89.0288 49.0891 88.4434 49.8752C88.0162 51.157 88.2891 52.4541 88.627 53.7301L88.2892 53.8025C87.5417 54.012 87.0962 54.4848 86.6422 55.0954C86.1981 56.4276 86.3531 57.8735 86.6078 59.2371L86.2865 59.3633C85.4083 59.8756 84.9606 60.6895 84.6846 61.6432C84.3337 63.5826 84.6797 65.8269 85.0035 67.9268L85.0035 67.9268L85.0035 67.9268L85.0035 67.9269L85.0035 67.9269L85.0035 67.9269L85.0036 67.927L85.0036 67.927L85.0036 67.927L85.0036 67.9271L85.0036 67.9271L85.0036 67.9272C85.1186 68.6728 85.2307 69.4003 85.3079 70.0894C85.3712 70.6573 85.4334 71.2253 85.4956 71.7934L85.5547 72.3115L85.5547 72.3116L85.5547 72.3118C85.656 73.0845 85.7064 73.4695 85.7231 73.8558C85.7397 74.2393 85.7231 74.6241 85.6899 75.3909C85.2869 75.805 85.0131 76.0259 84.5312 76.3087C84.293 76.4632 84.0551 76.6184 83.8177 76.7741L83.4582 77.0036C78.7824 80.0857 75.099 84.8586 73.7101 90.2999C73.6136 90.7942 73.5475 91.2367 73.5136 91.734C73.4891 92.419 73.477 92.7543 73.3812 93.0637C73.2894 93.3602 73.1207 93.6329 72.7901 94.1669C72.5394 94.3372 72.4174 94.4201 72.2897 94.4932C72.1685 94.5624 72.0423 94.6229 71.7963 94.7406C71.1794 95.1647 71.059 95.7941 70.9268 96.4853L70.9268 96.4854C70.9061 96.5937 70.8851 96.7035 70.8619 96.8143C70.8163 97.0653 70.7717 97.3166 70.7279 97.5679L70.6554 97.9751C70.6053 98.2576 70.5556 98.5402 70.5064 98.8229C70.4312 99.2533 70.3541 99.6834 70.2769 100.113C70.2282 100.389 70.1797 100.665 70.1313 100.941L70.0618 101.327C69.9373 102.051 69.8469 102.742 69.9033 103.476L70.2704 103.844C71.3627 103.801 72.4008 103.503 73.4447 103.204L73.4447 103.204C73.5684 103.168 73.6922 103.133 73.8162 103.098C78.8978 101.805 83.9745 103.225 88.4434 105.679C88.9778 106.025 89.504 106.376 90.0217 106.746C90.242 106.855 90.3522 106.91 90.4689 106.937C90.5856 106.964 90.7088 106.964 90.9553 106.964C91.1723 106.87 91.2785 106.825 91.3566 106.749C91.4315 106.677 91.4804 106.578 91.5762 106.384C91.7628 105.816 91.8763 105.267 91.9775 104.678L92.1018 103.963L92.2316 103.195L92.3672 102.403C92.4615 101.851 92.5551 101.299 92.6481 100.746C92.7672 100.039 92.8888 99.3325 93.0111 98.626C93.105 98.0813 93.1974 97.5364 93.2893 96.9913C93.3335 96.7307 93.3782 96.4702 93.4235 96.2097C93.4866 95.8454 93.5474 95.4807 93.6081 95.1159L93.7147 94.4882C93.7667 93.9322 93.7592 93.5422 93.5833 93.0132C93.2847 92.7878 93.1447 92.6821 92.9983 92.5861C92.869 92.5014 92.7348 92.4242 92.4819 92.2789L92.8397 91.9885C93.7887 91.2155 94.7291 90.4349 95.6598 89.6402C96.4742 88.9457 97.3036 88.2765 98.1495 87.6209C101.27 85.184 104.449 82.6249 105.103 78.4455C105.389 75.3694 104.643 72.6423 103.725 69.7391L103.556 69.1884L103.401 68.6967C103.251 67.9084 103.461 67.31 103.835 66.6191C104.778 64.8056 105.126 64.1356 105.163 63.4488C105.185 63.0463 105.1 62.638 104.964 61.9906C104.593 60.921 103.87 60.2815 102.899 59.7419C102.214 59.5551 101.557 59.5771 100.857 59.6004L100.742 59.6042L100.615 58.8843C100.353 57.5804 99.9806 56.3096 99.6066 55.0344L99.6036 55.024C99.48 54.6009 99.3593 54.177 99.2387 53.753C99.1592 53.4805 99.0797 53.208 98.9999 52.9356L98.8932 52.5566C98.4933 51.2171 97.9181 50.3892 96.7039 49.6917C96.1541 49.5084 95.9394 49.52 95.3845 49.5769C94.6049 49.5935 94.2635 49.3941 93.6865 48.8771L93.3316 48.5221C92.6343 47.8248 91.6334 47.924 90.6996 48.0166L90.6993 48.0166L90.6991 48.0166H90.6991L90.699 48.0166L90.699 48.0166L90.6989 48.0166C90.6196 48.0245 90.5408 48.0323 90.4626 48.0396ZM93.0326 50.2424L92.6654 50.8275C91.7239 52.7804 92.3878 55.1602 92.9739 57.2608L92.9739 57.2609C93.0886 57.6721 93.2003 58.0725 93.2964 58.4569C93.3924 58.8512 93.4881 59.2456 93.5836 59.6401C93.6748 60.0135 93.7662 60.3868 93.8579 60.7601L93.9889 61.2943L94.1113 61.7832L94.2188 62.2147C94.2745 62.3989 94.2988 62.4792 94.3423 62.5472C94.3759 62.5997 94.4211 62.6448 94.5011 62.7248C94.8069 62.7323 95.1131 62.7327 95.4189 62.7248C95.5856 62.0632 95.6036 61.6057 95.438 60.9451L95.3154 60.4438L95.1787 59.909L95.0421 59.3529C94.898 58.7669 94.7514 58.1817 94.6043 57.5965C94.4582 57.0119 94.3126 56.4271 94.1686 55.842C94.0789 55.4782 93.9881 55.1148 93.8958 54.7516C93.6816 53.9739 93.5764 53.5924 93.5771 53.2111C93.5777 52.844 93.6764 52.477 93.8701 51.7568C94.4401 51.2306 94.8351 51.0825 95.6025 50.9766C95.9005 51.0253 96.0539 51.0504 96.1885 51.1147C96.3313 51.183 96.453 51.2955 96.7039 51.5273C97.3269 52.6796 97.688 54.0067 98.0379 55.2924C98.1207 55.5969 98.203 55.899 98.2879 56.196C98.4142 56.6356 98.5437 57.0743 98.6733 57.5129C98.7544 57.7943 98.8353 58.0757 98.916 58.3573L99.0336 58.7513C99.2341 59.4663 99.3306 59.9947 99.0902 60.7056C98.9268 60.9525 98.8408 61.0825 98.7481 61.2076C98.645 61.3468 98.5338 61.4799 98.2987 61.761L98.2986 61.7611C97.5451 62.7063 96.8334 63.6724 96.1417 64.6637C93.6411 68.2301 91.0158 71.8403 87.342 74.2895C87.1973 72.9571 87.0536 71.6245 86.9112 70.2919C86.845 69.6729 86.7785 69.0539 86.7112 68.4351C86.6337 67.7216 86.5575 67.008 86.4816 66.2943L86.4086 65.6295C86.2494 64.5442 86.1709 64.0094 86.1843 63.4768C86.1972 62.9595 86.2967 62.4442 86.493 61.4284L86.493 61.4284C86.6348 61.2345 86.703 61.1412 86.7907 61.0732C86.8719 61.0102 86.9698 60.9689 87.1584 60.8892L87.1584 60.8892L87.1585 60.8892L88.9941 69.5168H90.0955C90.1666 68.1654 89.8999 66.9329 89.6151 65.6175L89.6072 65.5809C89.5318 65.2214 89.4565 64.8619 89.3812 64.5024C89.1964 63.6216 89.0083 62.7414 88.82 61.8614C88.714 61.3656 88.6092 60.8695 88.5056 60.3733C88.4082 59.9074 88.309 59.442 88.2078 58.977L88.2078 58.977C88.0412 58.2079 87.9587 57.8268 87.9432 57.4429C87.9281 57.0657 87.9778 56.6859 88.0763 55.933L88.0763 55.9329L88.0763 55.9329L88.0763 55.9329L88.0764 55.9328L88.0764 55.9328L88.0764 55.9327C88.3126 55.693 88.423 55.581 88.5463 55.4857C88.6544 55.4021 88.7725 55.3314 88.9941 55.1986C89.5116 57.135 89.9118 59.0974 90.3121 61.0604C90.3771 61.3788 90.442 61.6973 90.5075 62.0157C90.6169 62.5471 90.7269 63.0784 90.8369 63.6097L90.9383 64.1062L91.0331 64.5634L91.1158 64.9658C91.1525 65.1147 91.1726 65.1962 91.2007 65.2749C91.2345 65.37 91.28 65.461 91.3805 65.6619C91.6691 65.7208 91.8096 65.7495 91.9509 65.7727C92.0847 65.7947 92.2194 65.8119 92.4814 65.8454L92.4817 65.8454L92.4819 65.8454C92.505 64.9612 92.4332 64.1756 92.246 63.3118L92.17 62.9558C92.1159 62.7029 92.0612 62.4501 92.0059 62.1974C91.9183 61.7962 91.8323 61.3946 91.7468 60.9928C91.5342 59.9953 91.3191 58.9983 91.1033 58.0014C90.9207 57.1579 90.7394 56.3141 90.56 55.4699C90.4759 55.0766 90.3899 54.6838 90.3038 54.291C90.0369 53.0513 89.8015 51.8805 89.9119 50.6095C90.3506 49.9902 90.6587 49.7535 91.369 49.4966C92.1026 49.5116 92.4545 49.7881 93.0183 50.2312L93.0326 50.2424ZM102.945 61.6349C103.371 62.2599 103.555 62.7111 103.496 63.4591C103.246 64.2145 102.899 64.9177 102.548 65.6298L102.509 65.7078C102.402 65.9307 102.295 66.1537 102.189 66.3768C101.896 66.9876 101.6 67.5962 101.302 68.2045C101.014 68.794 100.728 69.3846 100.443 69.9752L100.442 69.9761L100.294 70.2819C99.8255 71.2494 99.3554 72.2161 98.8828 73.1818C98.6405 73.6778 98.4 74.1747 98.1598 74.6717C97.9921 75.017 97.822 75.361 97.6517 75.705L97.3456 76.3381L97.0763 76.8874C96.8689 77.4614 96.8516 77.9059 96.8874 78.5115H97.9888L98.2014 78.0694L98.2015 78.0693C99.1444 76.1081 99.6158 75.1275 100.094 74.1502C100.572 73.1735 101.057 72.2 102.026 70.2542L102.027 70.2524L102.027 70.2519L102.027 70.251C103.562 72.5529 103.846 76.1101 103.386 78.7825C102.589 81.8884 100.228 83.9601 97.7888 85.8448C95.8771 87.327 94.0273 88.892 92.2001 90.4766C91.9282 90.7118 91.6544 90.9448 91.3805 91.1775L90.9882 91.516C90.5707 91.7751 90.392 91.7711 89.9119 91.6938L89.4915 91.6273C89.1653 91.5731 88.8397 91.5147 88.515 91.4518C87.058 91.1792 85.6443 91.1134 84.164 91.1202L83.4519 91.1229C80.9931 91.1534 78.8636 91.6279 76.5561 92.4467C76.0499 92.6163 75.5684 92.7404 75.0431 92.8296C74.9647 90.2634 76.0248 88.044 77.2459 85.8541L77.5492 85.3041C78.3543 83.9479 79.3896 82.8353 80.4823 81.7093C80.6893 81.4946 80.8914 81.2753 81.0922 81.0549C82.7907 79.2378 84.9562 77.8117 87.0301 76.4593C88.5285 75.4488 89.8807 74.2385 91.1969 73.0045L91.4866 72.7367C93.2316 71.1119 94.646 69.3403 96.0194 67.3954C96.4269 66.8194 96.841 66.2483 97.2551 65.6771L97.2912 65.6273C97.9241 64.7541 98.5555 63.88 99.1791 63.0002L99.5721 62.4495L99.9005 61.9848C100.254 61.5466 100.562 61.2884 101.125 61.1882C101.905 61.1656 102.286 61.1815 102.945 61.6349ZM91.9312 93.931C91.8537 95.9795 91.4912 97.9823 91.1273 99.993C91.0854 100.225 91.0434 100.457 91.0019 100.689C90.9318 101.084 90.8619 101.48 90.7921 101.876C90.6223 102.838 90.4512 103.8 90.2791 104.761L89.6721 104.457L88.8736 104.058L88.4748 103.858C83.3029 101.271 78.372 100.461 72.6568 101.641L72.1068 101.75L71.7389 101.824C71.833 100.982 71.9368 100.141 72.0512 99.3011C72.0868 99.0329 72.1201 98.7645 72.1509 98.4957C72.2244 97.759 72.2607 97.3949 72.3633 97.0506C72.4635 96.7142 72.6269 96.3966 72.95 95.7688C73.3855 95.4575 73.8197 95.2511 74.3088 95.0324C74.5359 94.9144 74.7625 94.7952 74.9886 94.6753C80.4651 91.8503 86.2097 91.9589 91.9312 93.931ZM26.2376 49.1869C26.6046 48.7464 26.9846 48.4551 27.4867 48.178C29.3072 47.515 30.8459 48.3421 31.8937 49.8293C32.2523 50.9263 32.1792 51.9986 31.9052 53.1106L31.7216 53.7301H32.0887C32.7165 54.0016 33.1206 54.3587 33.5228 54.9003C34.2153 56.0726 34.0281 57.4621 33.8283 58.7595L33.7408 59.2371H34.1079C34.4077 59.5 34.6548 59.7831 34.9067 60.0918C35.8935 61.5205 35.8256 63.0882 35.6456 64.7629L35.5836 65.284C35.5207 65.8598 35.4575 66.4354 35.3918 67.0109C35.2383 68.3477 35.0892 69.6849 34.9507 71.0234C34.9147 71.3778 34.8786 71.7323 34.8422 72.0867C34.788 72.5705 34.7345 73.0538 34.6898 73.5385L34.6515 73.9733C34.6202 74.2329 34.594 74.4933 34.5743 74.7541C34.5826 75.0894 34.5868 75.2592 34.6591 75.3918C34.7334 75.5278 34.8793 75.6246 35.1749 75.8207C35.3572 75.9155 35.4908 75.985 35.6206 76.0609C35.9759 76.2684 36.3033 76.5234 37.5264 77.4759L37.5267 77.4761L37.5268 77.4762L37.5269 77.4762L37.527 77.4764L37.5273 77.4765L37.5276 77.4768C37.7338 77.6382 37.94 77.7996 38.1464 77.9608C39.5466 79.0369 40.7907 80.1884 41.9395 81.5268L42.1848 81.8157C44.7356 84.7983 46.3664 88.1593 46.8887 92.0609L46.9438 92.5498L46.9991 93.0053L47.0426 93.4125C47.076 93.5803 47.0956 93.6791 47.1465 93.7577C47.2196 93.8705 47.357 93.9415 47.6914 94.1144L47.6915 94.1145L47.6917 94.1146L47.6918 94.1146C47.9392 94.2357 48.1821 94.3662 48.4211 94.5032C48.7337 94.7395 48.942 94.897 49.0947 95.0969C49.3994 95.4958 49.4825 96.064 49.7316 97.7662C49.7712 98.0378 49.8133 98.309 49.858 98.5799C50.1333 100.207 50.3409 101.828 50.4453 103.476C50.0966 103.709 49.9687 103.794 49.8303 103.818C49.7502 103.831 49.6665 103.824 49.5343 103.812L49.1317 103.707L48.6878 103.595C48.4087 103.521 48.1291 103.448 47.8488 103.379L47.4681 103.286C47.0634 103.188 46.6583 103.092 46.252 103.001C40.9808 101.875 35.9034 103.176 31.4118 106.046L31.3364 106.097C30.8654 106.413 30.4017 106.724 29.8859 106.964H29.8858H29.8858C29.5962 106.977 29.4645 106.982 29.342 106.952C29.2398 106.926 29.144 106.875 28.9683 106.781L28.9682 106.781L28.9681 106.781C28.7317 106.294 28.595 105.835 28.4789 105.307L28.371 104.681C28.3077 104.317 28.2444 103.954 28.1826 103.59L28.1319 103.291L28.0905 103.048L28.0498 102.81C27.9564 102.266 27.8634 101.722 27.7715 101.177C27.6525 100.472 27.5327 99.7664 27.4104 99.0615C27.3148 98.5104 27.2201 97.9591 27.1266 97.4076L27.0377 96.8821L26.9926 96.6164L26.8594 95.8514L26.7404 95.1368C26.6325 94.5022 26.5788 93.9687 26.6285 93.3265L26.6285 93.3264L26.6285 93.3263L26.6285 93.3262L26.6286 93.326C26.6896 93.1047 26.7234 92.982 26.7919 92.8836C26.8771 92.7612 27.016 92.6761 27.3275 92.4854L27.8667 92.2789C26.9311 91.546 26.0119 90.7991 25.1131 90.0217C24.2425 89.2673 23.3679 88.525 22.4584 87.8177C20.3438 86.18 18.2529 84.4412 16.69 82.2473C15.1696 79.6968 14.8048 76.6164 15.5172 73.7555L15.6703 73.2024C15.7848 72.7845 15.8998 72.3667 16.0152 71.949C16.1303 71.5333 16.2448 71.1174 16.3587 70.7013C16.462 70.3064 16.5655 69.9116 16.6692 69.5168L16.8201 69.0162C17.1053 67.9518 17.0037 67.3582 16.4809 66.3911C15.8308 65.2599 15.263 64.2422 15.2695 62.9084C15.3527 61.8231 15.6932 61.0916 16.4856 60.3385C17.3948 59.6907 18.1911 59.5261 19.2965 59.5784L19.6062 59.6042C19.6062 59.4328 19.6062 59.3414 19.6165 59.2512C19.6282 59.1482 19.6532 59.0467 19.7067 58.8295L19.8486 58.32C20.3314 56.584 20.8198 54.8488 21.3396 53.1234L21.4763 52.6746C21.7578 51.7164 22.0161 50.9788 22.7269 50.2424C23.4655 49.6903 24.1481 49.4672 25.0673 49.5081L25.177 49.5136C25.6683 49.5388 25.8019 49.5456 26.2376 49.1869ZM30.2652 53.2415C30.4888 52.1474 30.7172 51.0303 30.0695 50.0588C29.5162 49.7145 29.1441 49.5039 28.4862 49.5196C27.9621 49.7265 27.6833 50.0043 27.316 50.4259L27.6831 50.9193C27.9357 51.3728 28.1145 51.694 28.2119 52.0382C28.4481 52.8729 28.2056 53.8432 27.3747 57.1668C27.2971 57.4772 27.2207 57.7879 27.1456 58.0989C27.0715 58.4075 26.997 58.7161 26.9221 59.0245L26.8133 59.4694C26.5439 60.5747 26.2206 61.6499 25.8475 62.7248H24.9296C24.7942 62.3091 24.7419 62.021 24.8019 61.5846L24.9135 61.1385L25.0379 60.6296C25.1318 60.2591 25.2238 59.888 25.3142 59.5166C25.4598 58.9182 25.6074 58.3204 25.7557 57.7227C25.9043 57.1276 26.0524 56.5326 26.1972 55.9366L26.3351 55.3679C26.6491 54.1388 26.8628 53.1472 26.5817 51.8944C26.3984 51.6495 26.3071 51.5275 26.1917 51.4356C26.0773 51.3444 25.9391 51.2828 25.6639 51.1602L25.6144 51.156C25.0118 51.1047 24.5659 51.0667 24.0118 51.3438C23.4007 51.9784 23.134 52.5696 22.8912 53.3961L22.7706 53.8319C22.6816 54.1409 22.5928 54.45 22.5042 54.7591C22.3688 55.2432 22.2333 55.7272 22.0946 56.2103C22.0032 56.527 21.9123 56.8439 21.8219 57.1609L21.6922 57.618C21.641 57.797 21.5797 57.9873 21.5161 58.1848C21.2325 59.0653 20.9032 60.088 21.2183 60.8851L21.4548 61.1738L21.7205 61.5112C21.9228 61.7533 22.1217 61.9983 22.3178 62.2455L22.6308 62.6424C23.1667 63.3127 23.6755 63.9977 24.1746 64.6958C24.4723 65.1113 24.6211 65.3191 24.7704 65.5265C24.9197 65.734 25.0695 65.9411 25.3689 66.3553L25.6639 66.7633C26.7771 68.3076 27.872 69.8064 29.2549 71.1251L29.7024 71.536L29.814 71.6404C30.4917 72.274 31.1672 72.9056 31.9062 73.4685L32.3023 73.7641C32.5369 73.9393 32.7717 74.1145 33.0065 74.2895C33.1381 73.1044 33.2687 71.9193 33.3981 70.734C33.451 70.2479 33.504 69.7619 33.5572 69.2758C33.6363 68.5634 33.7154 67.851 33.7929 67.1384L33.867 66.4557L33.8738 66.3952C34.0383 64.9311 34.203 63.4657 34.1079 61.9906L34.1079 61.9905L34.1078 61.9903C33.9584 61.6485 33.8836 61.4776 33.7689 61.3399C33.6542 61.2023 33.4995 61.0979 33.1901 60.8892C33.0589 61.5157 32.9277 62.1422 32.7951 62.7685C32.6345 63.5265 32.4748 64.2846 32.3189 65.0436C32.2226 65.513 32.1257 65.9824 32.0282 66.4515L31.8822 67.1534L31.7412 67.8494L31.6054 68.4971C31.5377 68.8264 31.5082 68.9695 31.4717 69.1108C31.4437 69.2193 31.4115 69.3267 31.3545 69.5165L31.3545 69.5168C31.1877 69.6001 31.0883 69.6499 30.9837 69.6659C30.8292 69.6896 30.6635 69.6399 30.2531 69.5168C30.1988 68.5124 30.3521 67.6097 30.5562 66.6267L30.6883 66.0089C30.8269 65.3427 30.9655 64.6766 31.1057 64.0107C31.2502 63.3264 31.3945 62.642 31.5384 61.9576L31.8127 60.6396C31.8612 60.4123 31.9127 60.1825 31.9646 59.9509L31.9649 59.9492L31.965 59.9492C32.233 58.7528 32.5117 57.5087 32.4558 56.3C32.2036 55.816 31.9501 55.5705 31.538 55.1986C31.3218 55.4875 31.2303 55.6098 31.1719 55.7463C31.129 55.8465 31.1041 55.9544 31.0608 56.1414L30.9694 56.6003L30.8635 57.1222C30.7885 57.5038 30.7123 57.8852 30.6349 58.2664C30.5103 58.8804 30.3872 59.4947 30.2645 60.109C30.1426 60.7208 30.0202 61.3324 29.8961 61.9437L29.7776 62.5269C29.5477 63.6995 29.3036 64.7654 28.7845 65.8455L27.8667 65.6619C27.8486 65.0799 27.8688 64.5476 27.9643 63.9722L28.1026 63.3327L28.2585 62.6029C28.3445 62.2083 28.4304 61.8137 28.5148 61.4188C28.7564 60.2828 29 59.1473 29.2453 58.0121C29.3984 57.3039 29.5509 56.5956 29.7016 55.8868C29.759 55.616 29.8167 55.3453 29.8745 55.0746C29.9848 54.5702 30.0949 54.0659 30.2007 53.5607C30.2214 53.4555 30.243 53.3499 30.2646 53.2441L30.2652 53.2415ZM22.0551 64.231L21.7172 63.7689C21.5916 63.5954 21.4702 63.4193 21.3498 63.2447C20.5806 62.1294 19.8537 61.0754 18.35 61.1681C17.6817 61.317 17.4144 61.6188 17.0363 62.1741C16.8025 62.8236 16.7687 63.241 17.0191 63.8904L17.2478 64.3712L17.5029 64.9141C17.6764 65.2799 17.8478 65.6466 18.0167 66.0146C18.1879 66.3897 18.3598 66.7645 18.5323 67.1389L18.8146 67.7499C19.4658 69.1619 20.1279 70.5671 20.8174 71.9607L21.0475 72.4251L21.2148 72.764C21.5365 73.416 21.8583 74.068 22.1851 74.7175C22.3308 75.007 22.4756 75.2969 22.6194 75.5873L22.8222 75.9975C23.2587 76.8513 23.5458 77.5307 23.4611 78.5115H22.3597C21.6773 77.0212 20.9844 75.5365 20.2749 74.0589L19.939 73.3602L19.9382 73.3585L19.9374 73.3568L19.9372 73.3565L19.9371 73.3563L19.9369 73.356L19.9368 73.3557L19.9367 73.3554L19.9365 73.3552L19.9364 73.3549L19.9363 73.3546L19.9361 73.3543C19.7672 73 19.5983 72.6456 19.4282 72.2918L19.2656 71.954C18.9379 71.2701 18.616 70.6574 18.1377 70.0675L18.043 70.3926C17.3583 72.7404 16.6923 75.0239 16.7717 77.4926C17.2029 80.9611 19.3391 83.185 21.9697 85.292C22.6553 85.8327 23.3304 86.3839 24.0004 86.944C24.6963 87.5265 25.3954 88.1044 26.0999 88.6764C26.5585 89.0478 27.014 89.4206 27.4558 89.8118L27.7979 90.1184C28.0275 90.3221 28.257 90.526 28.4862 90.7301C28.8825 91.0953 29.2642 91.4085 29.7024 91.7282C30.065 91.752 30.2477 91.764 30.4284 91.7495C30.6119 91.7347 30.7932 91.6926 31.1586 91.6078L31.1587 91.6078C32.7753 91.2185 34.3387 91.1231 36.0017 91.1203L36.3681 91.1202C38.478 91.1116 40.3898 91.2703 42.3906 91.9595C42.499 91.9981 42.6071 92.0369 42.7151 92.0758L42.7173 92.0766C43.5665 92.3819 44.4096 92.6851 45.3055 92.8296C45.1469 88.8725 43.0666 84.6604 40.157 81.9548L39.7985 81.6321C38.1822 80.0972 36.5222 78.6554 34.6658 77.4137C33.2199 76.4737 31.879 75.4463 30.5493 74.3504L30.2531 74.1059C27.7886 72.0987 25.8954 69.5586 24.0518 66.994C23.3888 66.0711 22.725 65.1488 22.0551 64.231ZM47.8178 96.619C47.7895 96.4926 47.7555 96.3675 47.6918 96.1338C43.6202 92.0622 35.9381 91.8139 30.7604 93.1568L30.3104 93.2771C30.2427 93.2949 30.1749 93.3124 30.1073 93.3298C29.5284 93.4793 28.9578 93.6267 28.4597 93.974L28.4596 93.974C28.3308 94.1273 28.2633 94.2075 28.2332 94.2999C28.2001 94.4015 28.2121 94.5177 28.2373 94.7616L28.3398 95.3212L28.4513 95.9558L28.5816 96.6408C28.7114 97.3642 28.8414 98.0876 28.9766 98.8101C29.0942 99.4387 29.2091 100.068 29.3229 100.697C29.5678 102.053 29.8169 103.407 30.0695 104.761C30.1565 104.767 30.2077 104.771 30.2564 104.761C30.3261 104.747 30.3906 104.707 30.5475 104.61C36.3959 101.378 41.6756 100.412 48.2862 101.757L48.6096 101.824L48.6096 101.824L48.6096 101.824C48.5716 101.185 48.5525 100.866 48.5141 100.548C48.4755 100.23 48.4175 99.9142 48.3013 99.2819L48.3013 99.2817L48.1737 98.589L48.0503 97.892L47.9284 97.228C47.8751 96.9115 47.8503 96.7644 47.8178 96.619ZM60.4059 73.5222C60.2114 73.5451 60.0997 73.5582 59.9884 73.5553C59.8381 73.5515 59.6885 73.5183 59.3371 73.4406L59.337 73.4405L59.3368 73.4405L59.3368 73.4405C58.2638 73.3234 57.5819 73.6556 56.7554 74.2952C55.712 75.2051 55.3768 75.4975 55.1543 75.8592C55.0489 76.0304 54.9689 76.2171 54.8509 76.4923C55.0971 77.5986 55.979 78.2353 56.8595 78.871L56.8701 78.8786C58.4798 79.7997 60.0311 80.1274 61.8393 79.6466C63.2583 79.1258 64.2618 78.2943 65.3141 77.2265L65.4977 77.043C65.5685 76.4686 65.5448 76.1983 65.2281 75.7064C63.7594 74.1022 62.61 73.2235 60.4059 73.5222ZM62.9278 75.758V75.9416H57.4208C58.868 74.7838 61.4564 74.3707 62.9278 75.758ZM62.3771 77.4101C61.6104 78.1767 60.8729 78.2741 59.8072 78.3279C59.2165 78.2232 58.6822 78.0665 58.1551 77.7772L57.9715 77.4101H62.3771ZM46.0005 61.6684C46.0884 61.5922 46.1873 61.5288 46.487 61.3367L46.4872 61.3366C47.7702 60.8189 48.8752 60.924 50.0681 61.5948C50.4839 61.8287 50.9028 62.0293 51.3402 62.22C52.5559 62.6918 53.682 62.7533 54.8968 62.2544C55.5516 61.9696 55.9862 61.9815 56.6865 62.1741V63.2755C55.1153 64.2176 53.5819 64.6313 51.7647 64.2048C51.509 64.1378 51.2528 64.0726 50.996 64.0098L50.9559 64.0058C50.1886 63.9289 49.8604 63.896 49.2292 64.3769L48.7932 64.7441C48.5163 64.7755 48.3913 64.7897 48.2667 64.7867C48.1642 64.7842 48.0619 64.77 47.8754 64.7441C47.8062 64.6748 47.7631 64.6317 47.7282 64.5827C47.6706 64.5018 47.6356 64.4048 47.5427 64.1475V64.1474V64.1474C47.5271 63.9194 47.5186 63.7944 47.5467 63.6782C47.5808 63.5373 47.6689 63.4094 47.8639 63.1264L48.2425 62.7248C47.6944 62.8577 47.2028 62.9125 46.6363 62.9313H46.6363C46.2327 62.9158 46.1022 62.9108 46.0031 62.8524C45.9557 62.8244 45.9155 62.7842 45.8562 62.7248L45.8561 62.7246C45.8447 62.4953 45.8389 62.3806 45.8389 62.2659C45.8389 62.1512 45.8447 62.0365 45.8561 61.8072L45.8562 61.807C45.9167 61.7464 45.9573 61.7059 46.0005 61.6684ZM70.3606 61.5238C70.0285 61.6982 69.6997 61.8776 69.3712 62.0587C68.3434 62.5985 67.3804 62.6468 66.232 62.5413C65.8408 62.4166 65.4751 62.2646 65.099 62.101C64.5883 61.9329 64.1696 62.0345 63.662 62.1741V63.2755C65.2333 64.2176 66.7667 64.6313 68.5839 64.2048L68.9804 64.1009C69.5566 63.9599 70.0494 63.9419 70.6375 64.0098C70.9492 64.2472 71.2557 64.4917 71.5554 64.7441C71.8195 64.787 71.9422 64.807 72.0643 64.804C72.1703 64.8013 72.2759 64.7814 72.4732 64.7441C72.7064 64.3942 72.7915 64.2666 72.8137 64.1289C72.8264 64.0498 72.8185 63.9674 72.8059 63.8377C72.6345 63.4025 72.4019 63.085 72.1061 62.7248L72.4847 62.8166C73.1031 62.9219 73.6826 62.9325 74.3088 62.9084L74.3089 62.9084C74.3791 62.8381 74.4225 62.7948 74.4524 62.7436C74.5008 62.661 74.5144 62.558 74.5498 62.2889C74.5205 62.0427 74.5061 61.9223 74.4548 61.8206C74.4056 61.7232 74.3225 61.6429 74.1597 61.4858C72.8889 60.7596 71.6415 60.8902 70.3606 61.5238ZM67.5342 44.4237C67.6577 44.3956 67.7857 44.387 68.0676 44.3682L68.5 44.7741C69.6692 46.0072 70.9966 47.0202 72.509 47.7936L73.0239 48.0396C74.1939 48.5991 75.3204 49.0017 76.5919 49.2672C77.3435 49.4065 78.0135 49.5674 78.7144 49.8752V50.9766C78.5768 51.0454 78.4907 51.0885 78.4001 51.1166C78.2489 51.1634 78.0849 51.1688 77.6475 51.1831C74.5539 51.1951 70.7632 49.3788 68.5609 47.2601L68.2512 46.9382C68.1888 46.8766 68.1261 46.8156 68.0635 46.7546L68.0635 46.7545C67.6563 46.3579 67.2524 45.9644 66.9662 45.4696C66.9975 45.1984 67.012 45.0733 67.0382 44.9508C67.0607 44.8462 67.0918 44.7434 67.1494 44.5532L67.1495 44.553L67.1495 44.5528L67.1495 44.5527L67.1496 44.5525L67.1496 44.5523L67.1497 44.5521L67.1498 44.5518L67.1498 44.5518C67.332 44.4841 67.4316 44.4472 67.5342 44.4237ZM64.8782 55.887C64.1984 56.4426 63.8177 56.9573 63.4785 57.7686V57.7686V57.7686C63.5104 58.2584 63.5224 58.4427 63.6035 58.5887C63.6525 58.6769 63.7267 58.751 63.8456 58.8699L63.8457 58.87C64.055 58.896 64.1643 58.9096 64.2738 58.9107C64.3933 58.912 64.513 58.8984 64.7634 58.8699C64.8945 58.7311 64.964 58.6576 65.0254 58.5778C65.0948 58.4878 65.1539 58.3899 65.2797 58.1816L65.2797 58.1816C65.9731 57.1923 66.6406 56.8154 67.8159 56.5639C69.3765 56.3686 70.855 56.6058 72.3948 56.8773L72.9049 56.9612L73.3628 57.0433C73.5577 57.0389 73.6565 57.0366 73.746 57.0066C73.838 56.9756 73.9202 56.9153 74.0868 56.7929C74.1871 56.6532 74.2421 56.5765 74.2723 56.4912C74.3089 56.3876 74.3089 56.2711 74.3089 56.0132C74.2148 55.7839 74.1689 55.6721 74.0911 55.5908C74.0172 55.5136 73.9143 55.464 73.7137 55.3671C71.0416 54.4777 67.285 54.2474 64.8782 55.887ZM46.0397 55.7493L46.4069 55.3822C49.194 54.5982 53.4061 54.0431 55.7873 56.0792C56.5152 56.8519 56.8916 57.4283 56.8701 58.5028C56.6879 58.6851 56.5961 58.7768 56.4853 58.8245C56.3729 58.8728 56.241 58.8756 55.9752 58.8814L55.9752 58.8814C55.7116 58.7918 55.5691 58.7434 55.4554 58.6571C55.3216 58.5556 55.2276 58.4017 55.023 58.0669C54.7933 57.6103 54.6693 57.4031 54.2658 57.0687C52.5499 56.3442 50.8694 56.3718 49.0571 56.6672C48.093 56.8294 47.1993 56.8838 46.2233 56.8507C46.1679 56.5957 46.1392 56.4639 46.1166 56.3311C46.0925 56.189 46.0753 56.0458 46.0397 55.7493ZM61.0921 37.0256C60.8993 37.6229 60.888 37.8909 61.1201 38.4841C61.8854 39.8472 62.7073 41.1091 63.662 42.349L63.9202 42.7255L63.9203 42.7256C64.0077 42.8474 64.0609 42.9217 64.1194 42.9916C64.2105 43.1005 64.3142 43.1988 64.5796 43.4502L64.5798 43.4504L64.5799 43.4504H64.5799H64.5799C64.9076 43.438 65.0587 43.4323 65.2056 43.4046C65.3313 43.3808 65.4538 43.3409 65.6813 43.2669L65.6813 43.2668L65.6813 43.2667L65.6814 43.2665L65.6815 43.2663C65.7406 43.1383 65.7743 43.0653 65.7971 42.989C65.8274 42.8879 65.8387 42.781 65.8648 42.5326C65.6378 42.1352 65.4046 41.7951 65.1306 41.4312C64.291 40.2821 63.546 39.1115 62.8663 37.8624C62.3413 36.9112 62.1466 36.7759 61.0921 37.0256ZM40.4409 23.7573C40.5557 23.7573 40.6704 23.7745 40.8999 23.8089C41.1053 24.117 41.1958 24.2527 41.2434 24.4021C41.281 24.5197 41.292 24.6458 41.3116 24.8712L41.3093 25.4846L41.3082 26.1519L41.3014 26.8492C41.3014 26.9879 41.3016 27.1266 41.3019 27.2653V27.2655C41.3031 27.9492 41.3043 28.6331 41.267 29.3159C41.1799 29.4901 41.1341 29.5817 41.0634 29.6457C40.9852 29.7166 40.8765 29.7538 40.6475 29.8321C40.3757 29.8515 40.2572 29.86 40.1515 29.8272C40.0698 29.8019 39.9957 29.7519 39.8643 29.6633L39.8643 29.6632L39.8642 29.6631C39.7503 29.5045 39.6884 29.4183 39.6483 29.3229C39.6006 29.2096 39.5837 29.0834 39.5466 28.8071L39.5482 28.1972L39.5486 27.5325L39.5575 26.8377C39.557 26.6386 39.5504 26.4403 39.5438 26.2437C39.5148 25.3823 39.4868 24.5517 39.982 23.8089C40.2115 23.7745 40.3262 23.7573 40.4409 23.7573ZM34.5254 27.6991C34.2646 27.7917 34.1667 27.8265 34.0852 27.8843C34.0364 27.9189 33.9934 27.9619 33.9247 28.0305L33.9247 28.0306L33.9244 28.0308L33.9244 28.0309C33.8424 28.6295 33.8725 28.8767 34.23 29.3731L34.6551 29.8013L35.1193 30.2692L35.6109 30.75L36.0917 31.2415L36.5595 31.7058L36.9878 32.1309C37.2053 32.2875 37.3113 32.3639 37.4289 32.4119C37.5407 32.4575 37.663 32.4775 37.9014 32.5166L38.3299 32.4365C38.5653 32.0835 38.6498 31.9567 38.6743 31.8193C38.688 31.7424 38.6829 31.6621 38.675 31.5368C38.3836 30.8415 37.8054 30.2945 37.2482 29.7674C37.1006 29.6278 36.9545 29.4895 36.8155 29.3503L36.3373 28.8516L35.8719 28.383L35.4472 27.9514C35.2349 27.8065 35.1295 27.7346 35.0132 27.7034C34.8987 27.6727 34.7737 27.6816 34.5254 27.6991ZM61.0118 70.5493L61.4592 70.251C61.5014 70.2393 61.5418 70.2278 61.5806 70.2167L61.5809 70.2167C62.0379 70.0867 62.2786 70.0182 62.7442 70.251C62.8111 70.4629 62.8455 70.5718 62.8684 70.683C62.8927 70.8007 62.9042 70.9211 62.9278 71.1687L62.9278 71.1688V71.1689C62.4393 71.9016 61.9206 72.1772 61.0921 72.4538C59.6784 72.6083 58.7609 72.3908 57.6044 71.536C57.4126 70.9608 57.4329 70.8036 57.6044 70.251L58.0059 70.1248C58.2654 70.096 58.3944 70.0817 58.5154 70.1066C58.6352 70.1312 58.747 70.1943 58.9696 70.3199L59.44 70.6182C60.1057 70.8123 60.3933 70.8812 61.0118 70.5493ZM35.76 33.5379C35.5189 33.5089 35.3846 33.4927 35.2498 33.4842C35.0804 33.4735 34.9101 33.4747 34.526 33.4776L34.1585 33.4787C33.9022 33.4799 33.6459 33.4825 33.3896 33.4862C32.996 33.492 32.6025 33.4938 32.2088 33.4948C30.5947 33.5058 30.3335 33.5075 30.1655 33.6336C30.133 33.6579 30.1041 33.6869 30.0695 33.7214C30.0527 33.9396 30.0441 34.0514 30.0437 34.1632C30.0433 34.2807 30.0519 34.3983 30.0695 34.6393L30.0695 34.6393C30.2511 34.8209 30.3428 34.9126 30.4534 34.964C30.5663 35.0166 30.6989 35.027 30.967 35.0481L31.637 35.0422L32.3612 35.0387L33.1213 35.0293C33.3761 35.0275 33.6309 35.0258 33.8857 35.0243C34.5105 35.02 35.1352 35.0139 35.76 35.0064L35.7601 35.0063C35.8585 34.8041 35.91 34.6982 35.9543 34.5894C36.003 34.4699 36.0431 34.3468 36.1272 34.0886L35.76 33.5379ZM31.0227 25.0784C31.0542 25.0269 31.0981 24.983 31.1709 24.9103C31.9918 24.6998 32.2399 24.688 32.8459 25.3118C33.2448 25.9101 33.2556 26.2256 33.1901 26.9295L32.7083 27.0901C32.3286 27.1042 32.1816 27.1096 32.0514 27.0655C31.9691 27.0376 31.8936 26.99 31.7703 26.9123C31.2797 26.4544 31.0119 26.1699 30.907 25.4954C30.9555 25.253 30.9747 25.1569 31.0227 25.0784Z" fill="#977A5D"/>
</svg>
