<svg width="111" height="120" viewBox="0 0 111 120" fill="none" xmlns="http://www.w3.org/2000/svg">
<circle opacity="0.08" cx="55.3333" cy="55" r="55" fill="#D5B899"/>
<path fill-rule="evenodd" clip-rule="evenodd" d="M77.8822 18.5298C80.0362 20.3774 80.7292 22.4619 81.2428 25.1827L81.5074 26.5317C81.6435 27.2326 81.7788 27.9337 81.9124 28.6351L81.9124 28.6352L81.9125 28.6357C82.4103 31.3393 82.6574 32.6815 83.163 33.9181C83.6615 35.1371 84.4113 36.2534 85.9 38.4701C86.5712 38.4091 87.1606 38.3032 87.8 38.0901C89.3102 37.973 90.738 37.8831 91.98 38.8501C92.9027 39.7308 93.2857 40.6941 93.69 41.8901L93.8337 42.3082C94.8891 45.422 95.2382 46.4518 95.0906 47.4047C95.0176 47.8756 94.8234 48.3277 94.5331 49.0032C93.4635 50.684 91.9606 51.1732 90.1157 51.7463L89.402 51.9779C88.035 52.4169 87.7548 52.5068 87.47 52.5253C87.3965 52.53 87.3228 52.53 87.23 52.53L87.3362 52.8577C88.5453 56.5965 89.702 60.3508 90.8519 64.1081L90.9955 64.5771C91.5712 66.4579 92.1461 68.3388 92.7202 70.2201C93.012 71.1765 93.3044 72.1327 93.597 73.0889C93.9405 74.2121 94.2825 75.3357 94.623 76.4599C94.744 76.8584 94.8654 77.2567 94.9873 77.6549C95.1535 78.1981 95.3179 78.7419 95.4817 79.2858L95.6255 79.7517C96.0093 81.039 96.3321 82.3673 95.9975 83.6981L95.8761 84.1854L95.7444 84.6756L95.6238 85.1725C95.2574 86.5935 94.7468 87.5885 93.5 88.44C92.4853 88.9116 91.5631 88.9664 90.46 88.82C89.3031 88.385 88.3368 87.4339 87.4446 86.5557C87.3082 86.4214 87.1734 86.2888 87.04 86.16L86.735 85.8698C85.6918 84.7623 85.2393 83.0302 84.8292 81.4604L84.8291 81.4603L84.8291 81.4602L84.8291 81.4601C84.714 81.0196 84.6023 80.5918 84.4817 80.1943L84.2364 79.3899C84.0618 78.8177 83.8876 78.2453 83.7137 77.6729C83.4391 76.769 83.1636 75.8654 82.8881 74.9618C82.0165 72.1022 81.1474 69.2417 80.2785 66.3813L79.7144 64.5252L79.5766 64.0716L79.3049 63.1777C79.04 62.3061 78.7754 61.4344 78.5112 60.5626C78.3476 60.0228 78.1836 59.483 78.0196 58.9433C77.9436 58.6928 77.8676 58.4423 77.7918 58.1917C77.6887 57.8509 77.5852 57.5102 77.4816 57.1695L77.3063 56.5914C77.2375 56.3592 77.2044 56.2474 77.1601 56.1401C77.119 56.0407 77.0684 55.9452 76.9708 55.7613L76.9705 55.7608L76.9702 55.7603L76.9701 55.7601L76.9701 55.76L76.5961 55.8791C76.0285 56.0588 75.4603 56.236 74.8919 56.4132L74.3038 56.6006C72.6298 57.1193 71.0597 57.5623 69.3701 56.9C67.9094 56.0981 67.1931 55.0306 66.7101 53.48V52.91L65.5701 53.29L65.3801 55.95L66.3301 56.33C66.8523 56.6305 67.3516 56.9652 67.8517 57.3005L67.8519 57.3006L67.9807 57.3869L68.4426 57.6958C69.6084 58.4881 70.6445 59.33 71.6501 60.32L71.9989 60.6273C74.8429 63.214 76.1443 67.2255 76.4001 70.96C76.4276 71.9463 76.428 72.9322 76.4277 73.9187L76.4296 74.8032C76.4313 75.5989 76.4317 76.3946 76.4318 77.1903C76.432 77.6885 76.4324 78.1866 76.4329 78.6847C76.4346 80.4251 76.4354 82.1656 76.4353 83.906C76.4352 85.5243 76.4372 87.1425 76.4402 88.7608C76.4426 90.1542 76.4437 91.5476 76.4436 92.941C76.4435 93.7714 76.444 94.6019 76.4461 95.4324C76.4479 96.2134 76.4479 96.9944 76.4465 97.7754C76.4463 98.0608 76.4468 98.3461 76.4479 98.6315C76.4586 101.454 76.186 104.041 74.1557 106.193C72.0644 108.106 69.7316 108.477 66.9832 108.464C66.709 108.464 66.4347 108.465 66.1605 108.467C65.4209 108.469 64.6814 108.468 63.9418 108.466C63.2736 108.465 62.6055 108.466 61.9373 108.467L61.6105 108.467C60.306 108.468 59.0015 108.467 57.697 108.464C56.1927 108.461 54.6884 108.462 53.1841 108.465C51.8884 108.468 50.5926 108.468 49.2968 108.467C48.5248 108.466 47.7527 108.466 46.9807 108.468C46.2545 108.469 45.5284 108.468 44.8023 108.465C44.5372 108.464 44.272 108.464 44.0069 108.466C42.6442 108.471 41.4322 108.421 40.1413 107.961C39.368 107.696 38.7726 107.575 37.9831 107.806L37.5288 107.932L37.0464 108.069C35.1615 108.573 33.3145 108.833 31.3702 108.96L30.8202 109.001C25.9123 109.187 20.8014 107.568 16.9302 104.59L16.4998 104.266C13.0906 101.507 11.4214 96.9643 10.589 92.8099L10.4852 92.3006C10.2786 91.1885 10.2484 90.2454 10.6127 89.1525C10.9455 88.6865 11.2887 88.5064 11.8002 88.25C13.671 88.0034 15.4974 88.3934 17.3102 88.82L17.3251 88.4696C17.3984 87.3355 17.5796 86.2533 17.8446 85.1506L17.9327 84.7654C18.1767 83.7954 18.5498 82.9196 19.3527 82.2887C20.5089 81.9676 21.2546 82.0911 22.2977 82.645C23.2942 83.2289 24.2541 83.8679 25.2078 84.519C25.4464 84.6873 25.5551 84.7639 25.6698 84.8298C25.7658 84.8849 25.8661 84.9325 26.0502 85.02L26.3293 84.588C28.1988 81.7333 28.656 81.0353 29.3008 80.714C29.5095 80.61 29.7379 80.5454 30.0402 80.46C30.2594 80.4487 30.3677 80.4432 30.4758 80.4464C30.5814 80.4495 30.6868 80.461 30.8952 80.4837L31.3167 80.5208C32.4152 80.8481 33.017 81.7687 33.6127 82.6798L33.6133 82.6807L33.6135 82.6811L33.6138 82.6815C33.6733 82.7725 33.7328 82.8635 33.7927 82.9537L34.0769 83.3731L34.077 83.3731L34.077 83.3732C34.752 84.3737 34.752 84.3737 34.9802 84.83L34.9823 84.2674C34.9893 82.5041 35.0004 80.7408 35.0151 78.9775C35.0226 78.0713 35.0287 77.1652 35.0317 76.259C35.0346 75.3818 35.0412 74.5047 35.0501 73.6275C35.0529 73.2956 35.0545 72.9636 35.0546 72.6317C35.0573 69.8846 35.293 67.0761 36.6427 64.6188L36.8409 64.2424C38.4026 61.3512 40.6217 58.9425 43.5658 57.4396C44.1743 57.1281 44.4773 56.973 44.7589 56.7857C45.038 56.6001 45.2961 56.3828 45.8101 55.95C46.0654 55.0139 46.006 54.2338 45.8101 53.29L45.4279 53.129C44.2998 52.6168 43.4792 52.1673 42.9602 51.0101C42.5396 49.785 42.4292 48.605 42.9602 47.4001C43.623 46.4049 44.3105 45.7548 45.4301 45.3101C46.1057 45.235 46.7752 45.2474 47.4539 45.26L47.4775 45.2604L48.0958 45.2648C48.5377 45.2682 48.9797 45.273 49.4216 45.2788C50.1212 45.2879 50.8207 45.293 51.5203 45.2971C53.5089 45.3093 55.4975 45.3284 57.4861 45.3504C58.7033 45.3636 59.9205 45.3722 61.1378 45.378C61.6014 45.3812 62.065 45.3862 62.5286 45.3931C63.1767 45.4027 63.8246 45.4064 64.4728 45.4089L65.0525 45.4219C65.9139 45.4196 66.5084 45.4146 67.1842 44.8451L67.6601 44.3601L67.6602 44.36C67.9412 44.2257 68.0764 44.161 68.2151 44.1047C68.3437 44.0525 68.4752 44.0075 68.7288 43.9207L69.2588 43.7329C69.4566 43.6794 69.5748 43.6475 69.695 43.6284C69.8733 43.6001 70.0561 43.6001 70.5101 43.6001C70.6103 40.1187 70.0297 37.3657 68.6852 34.1628C68.2429 33.1073 67.8068 32.0493 67.3707 30.9913L67.3703 30.9905L67.3698 30.9893L67.3694 30.9882L67.3689 30.987L67.3684 30.9859L67.1895 30.552C67.0089 30.1148 66.8274 29.678 66.6457 29.2412L66.3071 28.4239L66.1483 28.0441C65.3876 26.2021 65.2269 24.0519 65.8788 22.142C66.7909 20.0108 68.0921 18.5618 70.1939 17.5776C72.7837 16.5675 75.63 16.8807 77.8822 18.5298ZM68.8001 20.4201C67.6622 21.7969 66.9306 23.3806 67.0171 25.1919C67.2767 27.142 68.2063 29.1348 69.0843 31.0171C69.3642 31.6171 69.6389 32.206 69.8849 32.7786C71.0614 35.5221 72.117 38.1967 72.1726 41.2251L72.1896 41.7053C72.2027 42.0835 72.2119 42.4618 72.2201 42.8401C73.4348 42.7221 74.5693 42.3705 75.7274 42.0116L76.0075 41.925L76.7174 41.7085C77.3364 41.5198 77.9551 41.3299 78.5737 41.1397C79.1559 40.961 79.7384 40.7832 80.3209 40.6054L80.4728 40.559C81.7122 40.1804 82.9513 39.8007 84.19 39.4201C83.8946 38.8144 83.5565 38.27 83.1807 37.7101C81.5287 35.1004 80.9741 32.2018 80.405 29.227L80.405 29.2269L80.4046 29.225C80.3539 28.9598 80.303 28.6939 80.2513 28.4276L80.1643 27.9828C80.0207 27.2489 79.8791 26.5148 79.7415 25.7798C79.2999 23.466 78.8184 21.4465 76.9701 19.8501C74.3471 18.222 71.1176 18.1879 68.8001 20.4201ZM87.23 39.9901C87.6701 41.8827 88.2196 43.7395 88.7859 45.5975C88.8897 45.9397 88.9925 46.2823 89.0942 46.6251C89.2425 47.1243 89.3937 47.6226 89.5457 48.1207L89.6825 48.5872C89.7974 48.9574 89.9367 49.3199 90.08 49.6801C90.7782 49.9128 91.1375 49.7388 91.7173 49.4581C91.7908 49.4225 91.8679 49.3852 91.9496 49.3468C92.6985 48.9148 93.0417 48.395 93.31 47.5901C93.4344 46.3868 93.0867 45.3039 92.7252 44.1785L92.7252 44.1783L92.7251 44.1782L92.7248 44.1772L92.7247 44.1768L92.7243 44.1755L92.7237 44.1736L92.7228 44.1709C92.681 44.0406 92.639 43.9098 92.5975 43.7782L92.3971 43.1113C91.8371 41.2139 91.8371 41.2139 90.5075 39.8238C89.3395 39.4195 88.3763 39.5316 87.23 39.9901ZM83.7982 40.9995L83.3688 41.1223C83.0033 41.2335 82.6457 41.3703 82.2901 41.5101C82.0761 42.1521 82.1343 42.3391 82.3231 42.9448L82.3401 42.9994L82.5131 43.5641L82.7049 44.1723L82.8974 44.796C83.1011 45.4548 83.3071 46.1127 83.5132 46.7707C83.6515 47.2166 83.7897 47.6625 83.9277 48.1085C84.2667 49.2029 84.6077 50.2967 84.95 51.3901C85.871 51.2786 86.7149 51.0905 87.5982 50.8082L88.2565 50.5996L88.75 50.4401C88.4397 49.3993 88.1289 48.3587 87.8177 47.3182C87.7121 46.9652 87.6068 46.6122 87.5015 46.2591C86.9321 44.3496 86.3612 42.4436 85.71 40.5601C85.1726 40.5601 84.6615 40.7243 84.1515 40.8881L84.1514 40.8881L84.1513 40.8881C84.0337 40.9259 83.916 40.9637 83.7982 40.9995ZM78.7632 42.5551L78.299 42.6924C77.9193 42.8047 77.5396 42.9174 77.1601 43.0301C76.9677 43.7575 76.9821 44.2108 77.2101 44.9251L77.3831 45.4782L77.575 46.0678L77.7674 46.6772C77.9706 47.3186 78.1769 47.959 78.3832 48.5994C78.5216 49.0344 78.6597 49.4695 78.7977 49.9046C79.1362 50.9705 79.4774 52.0355 79.8201 53.1L83.2401 52.1501C83.4355 51.3683 83.4181 51.1805 83.19 50.4491L83.017 49.8845L82.8252 49.2793L82.6327 48.6563C82.4292 47.9995 82.2231 47.3435 82.0169 46.6876C81.8786 46.2426 81.7404 45.7975 81.6024 45.3524C81.2637 44.261 80.9227 43.1703 80.5801 42.0801C80.1521 42.0801 79.6863 42.242 79.2452 42.3953C79.08 42.4528 78.9182 42.509 78.7632 42.5551ZM73.9509 43.9979L73.5427 44.1278L73.1226 44.2651L72.6936 44.4024C72.3454 44.514 71.9977 44.6269 71.6501 44.7401C71.9627 45.851 72.2796 46.9606 72.5997 48.0693C72.7347 48.5378 72.869 49.0065 73.0027 49.4754C73.1888 50.1274 73.3776 50.7787 73.5679 51.4295C73.6431 51.6884 73.7176 51.9475 73.7911 52.2068C73.8954 52.5735 74.0028 52.9392 74.1104 53.3049L74.2965 53.9486L74.5001 54.43C75.116 54.6354 75.2405 54.6132 75.8323 54.4308L76.2683 54.299L76.7207 54.1569L77.1797 54.017C77.5536 53.9028 77.9269 53.7866 78.3001 53.67C77.7668 51.4254 77.1312 49.2232 76.4476 47.0201L76.1559 46.073C75.9215 45.3118 75.686 44.5508 75.4501 43.7901C74.8306 43.7901 74.5119 43.8169 73.9509 43.9979ZM68.0401 46.0701C67.2537 46.8957 67.0255 47.445 67.0393 48.5917C67.1301 49.518 67.4223 50.3878 67.7169 51.2649C67.7455 51.35 67.7741 51.4353 67.8026 51.5207L68.003 52.1549C68.4088 53.4001 68.7683 54.4842 69.7857 55.3563C70.9697 55.8299 71.9988 55.5931 73.1701 55.19C72.2257 51.872 71.2606 48.5707 70.1301 45.3101C69.4109 45.3101 68.7386 45.6828 68.1155 46.0283L68.0401 46.0701ZM44.5039 48.0294C44.227 48.6908 44.2139 49.1586 44.2901 49.8701C44.6356 50.6518 45.1082 51.1007 45.8101 51.5801C46.3304 51.7441 46.8013 51.7944 47.345 51.7967L47.8075 51.8L48.3097 51.8007L48.8427 51.8035C49.4243 51.8063 50.0059 51.8076 50.5876 51.8086L51.8016 51.8119C52.6502 51.8139 53.4988 51.815 54.3474 51.8157C55.4335 51.8167 56.5196 51.8213 57.6057 51.8267C58.4417 51.8303 59.2777 51.8312 60.1137 51.8315C60.5141 51.8321 60.9144 51.8336 61.3147 51.8361C61.8755 51.8394 62.4361 51.839 62.9968 51.8378L63.4955 51.8431C64.5192 51.8361 65.2257 51.6654 66.1401 51.2001L66.0154 50.7199C65.7002 49.4457 65.5264 48.3297 65.5701 47.0201C65.2504 46.7004 64.5908 46.7422 64.0419 46.777C63.8804 46.7872 63.7285 46.7968 63.5976 46.7964L63.0303 46.7927C62.4076 46.7889 61.7849 46.7867 61.1623 46.7848L60.5192 46.7824C59.3956 46.7785 58.272 46.7758 57.1484 46.774C55.987 46.7719 54.8257 46.7653 53.6644 46.7578C52.7723 46.7528 51.8803 46.7512 50.9882 46.7506C50.5601 46.7496 50.132 46.7474 49.704 46.7439C49.1044 46.7393 48.5051 46.7394 47.9056 46.7408L47.3698 46.7334C46.1095 46.7435 45.3277 47.0135 44.5039 48.0294ZM83.5525 53.4956L83.1482 53.6193C82.8671 53.7058 82.5862 53.7929 82.3055 53.8805C81.8747 54.0143 81.4429 54.1445 81.0109 54.2746C80.7378 54.3591 80.4648 54.4438 80.1919 54.5288L79.7991 54.6458C79.3982 54.7675 79.3981 54.7675 78.8702 55L78.8701 55C78.6523 55.6532 78.7469 55.9501 78.9329 56.5341L78.9592 56.6167C78.9713 56.6548 78.9837 56.6941 78.9963 56.7348L79.1062 57.0932C79.2265 57.4842 79.3491 57.8744 79.4717 58.2647L79.4772 58.282C79.5647 58.565 79.6521 58.848 79.7393 59.1311C79.9763 59.8986 80.2152 60.6654 80.4545 61.4321C80.7007 62.2221 80.9451 63.0126 81.1896 63.8031L81.1989 63.8331L81.5018 64.8124L81.6546 65.3063C81.8095 65.807 81.9647 66.3076 82.1199 66.8082C82.823 69.0772 83.5161 71.349 84.2027 73.623L84.4778 74.5333L84.4857 74.5592L84.4944 74.588L84.507 74.6295C84.9544 76.11 85.1068 76.6143 85.2586 77.1187C85.3354 77.3738 85.412 77.629 85.5265 78.0104C85.728 78.6815 85.9305 79.3523 86.1338 80.0229C86.2424 80.3822 86.3498 80.7418 86.4572 81.1014C87.0317 82.9926 87.5098 84.554 89.035 85.8631L89.3623 86.1596C89.9044 86.6422 90.1701 86.8787 90.4797 87.0172C90.7772 87.1503 91.1152 87.1928 91.778 87.2762L91.7782 87.2762C92.5358 87.2009 92.9619 86.8802 93.5 86.35L93.5002 86.3496C93.6323 86.0606 93.6994 85.9138 93.7524 85.7621C93.8071 85.6055 93.8468 85.4437 93.9275 85.115L94.1086 84.4678L94.26 83.88L94.3758 83.5178C94.5902 82.3685 94.4354 81.3624 94.0947 80.2576L93.9792 79.8763C93.8524 79.4599 93.7226 79.0445 93.5928 78.629C93.5012 78.3302 93.4098 78.0314 93.3186 77.7326C93.0723 76.9278 92.8236 76.1238 92.5743 75.32C92.3312 74.5344 92.0902 73.7482 91.8491 72.9619L91.8475 72.9565L91.8011 72.8053C91.4304 71.5968 91.059 70.3885 90.6867 69.1805C90.021 67.0198 89.3616 64.8572 88.7055 62.6935L88.4254 61.7702C88.1136 60.7424 87.8019 59.7145 87.4903 58.6866C87.2421 57.8679 86.9937 57.0493 86.7447 56.2309C86.634 55.8669 86.5237 55.5027 86.4134 55.1386L86.2155 54.4884L86.0437 53.9224L86.0437 53.9223C85.9128 53.482 85.9128 53.482 85.71 53.1C84.9225 53.1 84.294 53.2661 83.5525 53.4956ZM47.5201 53.29L47.3301 56.9C46.5971 57.6456 46.239 57.9375 45.347 58.3607C44.9785 58.5581 44.6106 58.7568 44.2434 58.9566L43.6919 59.2472C40.2638 61.2266 38.1254 64.4451 37.0531 68.1686C36.7674 69.3273 36.6665 70.4323 36.6686 71.6242L36.6685 72.0347C36.6686 72.4778 36.6701 72.9209 36.6716 73.3639L36.6724 74.2911C36.6732 75.1011 36.675 75.911 36.6771 76.7209C36.6789 77.4844 36.6798 78.2479 36.6807 79.0113L36.6809 79.2046C36.6829 80.8264 36.6862 82.4482 36.6902 84.07L37.2386 83.7508L37.9608 83.3337L38.3211 83.1237C38.9667 82.7519 39.5973 82.4253 40.3002 82.17L40.3055 81.6215C40.3132 80.9426 40.3257 80.2639 40.3396 79.5851C40.3449 79.2927 40.349 79.0003 40.3516 78.7078C40.3735 76.4643 40.3806 75.7393 40.6514 75.1319C40.7808 74.8419 40.9702 74.5788 41.2502 74.19C42.1331 73.3595 42.9618 73.0274 44.1606 73.022L44.7958 73.0179L45.493 73.0164L46.2271 73.0126C47.031 73.0086 47.8348 73.0066 48.6386 73.0047L49.4698 73.0024C50.7717 72.9988 52.0737 72.9961 53.3757 72.9945C54.8768 72.9926 56.3779 72.9876 57.879 72.9799C59.0403 72.9742 60.2016 72.9714 61.3629 72.9708C62.056 72.9703 62.749 72.9686 63.4421 72.9638C64.2162 72.9586 64.9902 72.9594 65.7643 72.9607L66.4557 72.9533C67.7718 72.9615 68.6324 73.099 69.7501 73.81C70.8897 74.9796 70.9463 76.0904 70.9423 77.6455L70.9452 78.2347C70.9478 78.877 70.9477 79.5193 70.9472 80.1616L70.9497 81.5026C70.9511 82.4395 70.9511 83.3764 70.9501 84.3133C70.949 85.5129 70.9522 86.7125 70.9566 87.9122C70.9594 88.8354 70.9595 89.7586 70.959 90.6818C70.9591 91.124 70.9601 91.5663 70.962 92.0085C70.9643 92.6275 70.963 93.2463 70.9608 93.8652L70.9652 94.4169C70.9548 95.7396 70.7419 96.634 69.9163 97.7024C68.6649 98.6818 67.2456 98.7845 65.7044 98.7821L65.1364 98.7879C64.5227 98.7936 63.909 98.7954 63.2953 98.7972C62.8675 98.8004 62.4397 98.8038 62.0119 98.8075C60.8902 98.8165 59.7686 98.8222 58.6469 98.8271C57.593 98.8324 56.5391 98.8403 55.4852 98.8481L55.4761 98.8482L55.2081 98.8502C52.9621 98.8665 50.7161 98.8793 48.4701 98.8899L48.2343 99.3274L47.9241 99.9L47.617 100.468C47.1157 101.363 46.4851 102.113 45.8101 102.88L45.4331 103.312C44.3608 104.461 43.1304 105.278 41.8135 106.116L41.2502 106.49V106.68C42.0184 106.824 42.7444 106.894 43.5256 106.895L44.2011 106.898L44.9342 106.898L45.7126 106.899C46.4153 106.901 47.118 106.902 47.8207 106.902C48.2604 106.902 48.7001 106.902 49.1398 106.903C50.6755 106.904 52.2112 106.905 53.7469 106.905C55.1755 106.905 56.604 106.907 58.0325 106.91C59.2614 106.912 60.4904 106.914 61.7193 106.913C62.4522 106.913 63.1851 106.914 63.9179 106.916C64.6077 106.918 65.2975 106.918 65.9873 106.916C66.3588 106.916 66.7304 106.918 67.1019 106.919C69.3925 106.911 71.2312 106.567 72.989 105.004C74.7036 103.194 74.8017 101.194 74.7884 98.8149C74.7894 98.5032 74.7908 98.1915 74.7924 97.8798C74.7959 97.0377 74.7946 96.1956 74.7922 95.3535C74.7905 94.5924 74.7916 93.8313 74.7927 93.0702L74.7932 92.6975C74.7946 91.2099 74.7928 89.7223 74.7892 88.2347C74.785 86.5219 74.7863 84.8092 74.7905 83.0964C74.794 81.6201 74.7945 80.1437 74.7925 78.6674C74.7913 77.7882 74.7911 76.9091 74.7937 76.03C74.7959 75.2018 74.7943 74.3738 74.7899 73.5456C74.7889 73.2442 74.7892 72.9428 74.7909 72.6413C74.8042 70.0427 74.4609 67.4981 73.2057 65.1769L73.0064 64.7954C72.4645 63.7848 71.8525 62.8805 71.0801 62.03L70.7172 61.6144C69.5844 60.3948 68.2662 59.5261 66.8696 58.6419C66.5396 58.4324 66.2125 58.2186 65.8855 58.0044C65.449 57.6751 65.2358 57.5143 65.0002 57.3995C64.7752 57.2899 64.5298 57.2222 64.0501 57.09L64.0501 57.09L63.8601 53.29H47.5201ZM42.2172 75.3664C41.9513 76.0516 41.9248 76.6828 41.9278 77.4074L41.9248 77.8424C41.9235 78.145 41.9238 78.4476 41.9254 78.7502C41.927 79.2111 41.9216 79.6715 41.9155 80.1323C41.9152 80.4273 41.9153 80.7223 41.9159 81.0174L41.9094 81.4313C41.9229 82.4115 42.2019 82.9112 42.7702 83.69C42.8571 83.9441 42.8997 84.0686 42.9345 84.1952C42.9679 84.3167 42.9941 84.4402 43.0455 84.6823L43.1654 85.2296L43.2808 85.7918L43.4029 86.3563C43.5793 87.1761 43.7464 87.9975 43.9101 88.82L44.4401 88.7368C47.693 88.2598 48.5058 88.1406 49.203 88.3711C49.4352 88.4479 49.6546 88.5635 49.9471 88.7175L49.9472 88.7176C50.0652 88.8522 50.1502 88.9492 50.2198 89.0563C50.3997 89.3331 50.4762 89.6771 50.7501 90.91L63.8601 91.1C63.9805 91.5814 64.0246 91.7578 63.9924 91.9191C63.9739 92.0124 63.9297 92.1007 63.8601 92.24L50.5601 92.4299C50.1645 93.6135 49.9685 94.2001 49.8257 94.7993C49.6854 95.3879 49.5965 95.9887 49.4202 97.1797L49.4201 97.1799C51.8282 97.202 54.2362 97.2188 56.6443 97.2292C57.7625 97.2341 58.8806 97.2408 59.9988 97.2516C61.078 97.2619 62.1571 97.2676 63.2363 97.2701C63.648 97.2718 64.0596 97.2753 64.4712 97.2804C65.048 97.2873 65.6246 97.2882 66.2014 97.2878L66.7166 97.2981C67.5078 97.2916 68.062 97.2499 68.7013 96.7576C69.6196 95.7456 69.6167 94.8546 69.6126 93.5675L69.6123 93.4665L69.6152 92.9166C69.6178 92.3175 69.6177 91.7184 69.6172 91.1192L69.6197 89.8677C69.6211 88.9934 69.6211 88.1191 69.6201 87.2449C69.619 86.1257 69.6222 85.0067 69.6266 83.8875C69.6294 83.0259 69.6296 82.1643 69.629 81.3027C69.6291 80.8902 69.6301 80.4776 69.632 80.0651C69.6343 79.4876 69.633 78.9101 69.6308 78.3326L69.6352 77.8186C69.6265 76.7823 69.4798 76.0586 68.9901 75.14C68.2861 74.48 67.6417 74.3564 66.6989 74.3533L66.0967 74.35L65.4363 74.3494L64.7406 74.3465C64.1105 74.3442 63.4804 74.3428 62.8503 74.342C62.4564 74.3414 62.0624 74.3406 61.6685 74.3398C60.4352 74.3372 59.2019 74.3353 57.9686 74.3346C56.5464 74.3338 55.1243 74.3304 53.7021 74.3249C52.6019 74.3208 51.5018 74.3189 50.4016 74.3186C49.745 74.3184 49.0884 74.3173 48.4317 74.3139C47.6986 74.3102 46.9654 74.311 46.2323 74.3123L45.5765 74.307C44.284 74.3138 43.1225 74.3277 42.2172 75.3664ZM29.9771 82.3763C29.4499 82.9522 29.013 83.5419 28.5796 84.1887L28.3551 84.5182L28.355 84.5183C27.9882 84.9946 27.8091 85.2273 27.6871 85.4869C27.5705 85.7348 27.5061 86.0073 27.3802 86.54C27.5883 86.7611 27.799 86.9803 28.02 87.1886C28.4019 87.5596 28.7577 87.9492 29.1139 88.345L29.4954 88.7665L29.4955 88.7666C29.6651 88.9738 29.7536 89.082 29.8334 89.1962C29.9205 89.3209 29.9971 89.4527 30.1574 89.7284L30.4202 90.15H30.8002C30.9306 89.9844 31.0017 89.8942 31.0683 89.8009C31.1479 89.6894 31.2212 89.5734 31.3821 89.3187C32.1117 88.2412 32.9511 87.2975 33.8402 86.35C33.5566 85.5371 33.132 84.8648 32.6408 84.165L32.423 83.8451C31.9412 83.1522 31.4285 82.5441 30.8002 81.98C30.6113 81.9615 30.505 81.9511 30.4125 81.982C30.2935 82.0216 30.1972 82.1296 29.9771 82.3763ZM20.0583 83.9164C19.7175 84.3374 19.6307 84.6697 19.5101 85.1966L19.3831 85.7495L19.2577 86.3262L19.1234 86.8984C18.9739 87.5258 18.8997 87.8371 18.8876 88.1509C18.8757 88.4601 18.9241 88.7715 19.0202 89.39C19.4827 89.6135 19.8873 89.7659 20.374 89.9125C24.4405 91.291 27.4485 93.9872 29.3633 97.8331C29.7469 98.6164 30.1077 99.4051 30.4202 100.22C31.1388 99.5993 31.3428 98.9954 31.4296 98.0587C31.2842 93.7468 29.1573 90.196 26.0962 87.2792C25.0845 86.3536 21.3003 82.9528 20.0583 83.9164ZM34.1608 88.2262C33.1551 89.2425 32.1583 90.3616 31.5602 91.67C31.5652 91.8791 31.5678 91.9915 31.587 92.1011C31.6092 92.2287 31.6538 92.3524 31.7502 92.6199C31.8262 92.9001 31.9016 93.1804 31.9765 93.4608C32.063 93.7704 32.1499 94.0799 32.2371 94.3893L32.3718 94.8706C32.4809 95.2605 32.5905 95.6502 32.7002 96.0399L33.0275 95.6273C35.5823 92.4546 38.5955 90.6077 42.3902 89.2C42.292 87.781 42.2437 87.0834 42.0838 86.4124C41.9291 85.7635 41.67 85.1395 41.1604 83.9119C39.7254 82.8146 35.2088 87.2021 34.1608 88.2262ZM11.9902 90.15C11.7834 94.5821 14.0602 99.1075 16.9117 102.34C19.7431 105.351 24.1243 106.806 28.1402 107.25C28.5201 107.255 28.9002 107.257 29.2802 107.25C29.9105 104.457 29.9231 102.445 28.7102 99.8399L28.5195 99.4152C27.6072 97.4181 26.487 95.8499 24.9102 94.3299L24.5532 93.9551C21.6557 91.1095 16.8981 89.9332 12.9588 89.7321C12.6465 89.7188 12.4945 89.7123 12.3719 89.7692C12.2555 89.8231 12.1655 89.9339 11.9902 90.15ZM35.5502 95.0899L35.1672 95.4677C32.8298 97.9262 31.7726 101.3 31.0852 104.542L30.9789 105.029C30.8119 105.886 30.7284 106.456 31.1802 107.25C32.4739 107.292 33.6668 107.196 34.9327 106.929L35.433 106.825C39.7984 105.879 43.6841 103.839 46.1901 100.03C47.8701 97.1713 49.4378 93.5056 49.2301 90.15C49.0549 89.9339 48.9649 89.823 48.8485 89.7691C48.7256 89.7123 48.5732 89.719 48.2601 89.7328C43.4733 89.9729 38.9119 91.6416 35.5502 95.0899ZM20.3621 49.2882L20.9202 49.3001L21.1651 49.8812C21.4684 50.5877 21.7934 51.2813 22.1315 51.9719L22.4565 52.6436C23.7302 54.9076 25.9215 55.9689 28.3302 56.71L28.5202 58.04C27.9609 58.5028 27.4643 58.7364 26.7746 58.9544C24.6623 59.6998 23.137 60.9827 22.1077 62.98C21.828 63.5724 21.5886 64.1672 21.3715 64.785C21.2383 65.1239 21.173 65.2901 21.0656 65.4219C20.9622 65.5487 20.8197 65.6437 20.5402 65.83C20.2984 65.8208 20.1767 65.8162 20.0586 65.7928C19.9391 65.7692 19.8233 65.7263 19.5902 65.64C19.4856 65.4698 19.4295 65.3784 19.3841 65.282C19.3314 65.1705 19.293 65.0522 19.2102 64.797L19.2102 64.7969L19.2102 64.7969C18.7215 63.4233 18.2317 62.068 17.1202 61.08V60.7L16.7877 60.5442C16.358 60.3189 15.9915 60.0599 15.6002 59.7738C14.731 59.1794 13.8551 58.8841 12.846 58.6019C12.6402 58.5232 12.5234 58.4786 12.4264 58.4071C12.2991 58.3134 12.2059 58.1735 11.9902 57.85C12.0518 57.2188 12.1057 56.9746 12.5602 56.52C12.9058 56.4047 13.2548 56.2992 13.6052 56.1994C15.6115 55.5483 17.3429 54.2834 18.3426 52.3957C18.5826 51.8752 18.8055 51.3514 19.0202 50.8201C19.4421 49.8198 19.5859 49.4788 19.8359 49.3585C19.9652 49.2963 20.1229 49.2931 20.3621 49.2882ZM20.1602 52.34L19.971 52.7371C18.8526 54.9466 17.342 56.2367 15.2202 57.47C15.6258 57.7799 16.0345 58.0765 16.4582 58.3614C18.0754 59.468 19.3904 60.7717 20.1602 62.6C20.6089 62.1829 20.9196 61.7545 21.2408 61.2344C22.2148 59.7554 23.3819 58.7243 24.9102 57.85L25.4802 57.47L25.1247 57.2741C23.0826 56.1054 21.7999 54.8501 20.6411 52.8269L20.3502 52.34H20.1602ZM99.96 94.3299C99.3232 92.4921 97.6867 89.9644 95.97 89.01C95.2938 88.8723 94.7003 88.8848 94.07 89.2C92.5051 90.903 90.6673 93.3118 90.555 95.7074C90.7647 97.2802 91.3475 98.4004 92.55 99.4599C93.7774 100.299 95.0896 100.406 96.54 100.22C97.8979 99.8831 98.8333 99.1125 99.58 97.9399C100.139 96.744 100.295 95.6107 99.96 94.3299ZM92.3073 96.1765C92.2764 94.0594 93.5675 92.3043 94.9473 90.7823C95.0797 90.6208 95.1341 90.5544 95.203 90.5316C95.2511 90.5156 95.3063 90.5209 95.4 90.53C96.5022 91.7193 97.5093 92.9679 98.2522 94.416C98.6045 95.3238 98.5586 96.0642 98.25 96.9899C97.7551 97.762 97.2123 98.1974 96.3908 98.5738C95.3879 98.8744 94.5417 98.6535 93.6306 98.1893C92.9523 97.6056 92.4197 97.1007 92.3073 96.1765ZM87.8 97.5599C89.0741 98.3773 89.918 99.6649 90.7413 100.921C90.8376 101.068 90.9336 101.215 91.03 101.36L91.3202 101.777C92.0139 102.918 91.9793 104.253 91.79 105.54C91.3158 106.805 90.5332 107.781 89.32 108.39C87.8747 108.942 86.5887 108.916 85.1593 108.383C83.8795 107.796 83.1988 106.8 82.6701 105.54C82.2046 103.932 82.7766 102.521 83.5139 101.105C84.9319 98.6852 85.4427 97.8134 86.1686 97.5615C86.5774 97.4196 87.0544 97.4744 87.8 97.5599ZM87.04 99.0799C85.7843 100.437 84.166 102.371 84.0594 104.293C84.2923 105.5 84.9176 106.172 85.9 106.87C86.6053 107.223 87.4103 107.145 88.18 107.06C89.0208 106.64 89.547 106.12 90.08 105.35C90.3747 104.466 90.4265 103.843 90.0823 102.979C89.337 101.524 88.3369 100.274 87.23 99.0799H87.04ZM100.271 22.8285C99.946 21.463 99.2327 20.4346 98.06 19.6601C95.9332 18.5568 93.6724 18.5594 91.796 20.1715C90.7281 21.2914 90.3229 22.4641 90.2225 23.9945C90.341 25.5051 90.8588 26.7701 91.9956 27.813C93.1243 28.6176 94.1915 29.015 95.5811 28.9397C97.1363 28.7384 98.3597 28.2822 99.3544 27.0345C100.189 25.725 100.473 24.3634 100.271 22.8285ZM91.98 24.9801C91.8155 23.8702 91.8234 22.7925 92.478 21.8459C93.3248 20.9224 94.1195 20.5537 95.3763 20.5389C96.5943 20.583 97.2094 21.1013 98.06 21.9401C98.6923 22.858 98.7371 23.7091 98.63 24.7901C98.3008 25.7778 97.6147 26.4733 96.7656 27.0582C95.7917 27.3829 94.8546 27.395 93.88 27.0701C93.0663 26.4642 92.4275 25.9096 91.98 24.9801ZM38.0204 57.8498C38.0872 58.0796 38.1236 58.2051 38.1475 58.3329C38.1763 58.4866 38.1869 58.6437 38.2104 58.9898C38.0559 59.2205 37.9723 59.3455 37.8793 59.463C37.7696 59.6019 37.6468 59.7305 37.3792 60.011C35.5225 62.0783 34.3723 64.4896 33.6505 67.1598L33.5491 67.5269C33.2335 68.7813 33.16 70.0502 33.0855 71.3351L33.0686 71.6248C33.0394 72.1057 33.0095 72.5867 32.9788 73.0676L32.9409 73.707C32.9091 74.0112 32.8974 74.1237 32.8455 74.2129C32.815 74.2652 32.7707 74.3095 32.7005 74.3797C32.3205 74.3875 31.9404 74.3878 31.5605 74.3797C30.4054 72.0696 31.5104 67.7774 32.26 65.423C33.0258 63.2083 35.1703 57.6598 38.0204 57.8498ZM49.0417 79.2984L48.5807 79.2963C48.4825 79.2965 48.384 79.2907 48.2865 79.2849C47.9349 79.264 47.5962 79.2439 47.3301 79.51C47.3128 79.7358 47.3039 79.8515 47.3034 79.9673C47.303 80.0889 47.3119 80.2105 47.3301 80.46C47.4942 80.624 47.5947 80.7245 47.715 80.7867C47.9052 80.885 48.145 80.8874 48.7639 80.8936L49.2093 80.8922C49.7024 80.8953 50.1955 80.8976 50.6886 80.8976C51.042 80.8973 51.3954 80.8975 51.7488 80.8982C52.4841 80.9001 53.2193 80.9014 53.9546 80.9007C54.9128 80.8994 55.8709 80.8995 56.8291 80.9038C57.5755 80.9073 58.3219 80.9093 59.0682 80.9093C59.4243 80.909 59.7804 80.9089 60.1366 80.909C60.6498 80.9118 61.163 80.9144 61.6762 80.9128L62.1463 80.9107C62.6687 80.9159 63.1478 80.8952 63.6701 80.84C63.8918 80.6712 63.9842 80.6009 64.0604 80.5159C64.1148 80.4552 64.1608 80.3871 64.2398 80.2704L64.2398 80.2704L64.24 80.2702L64.24 80.2701L64.2401 80.27L63.8601 79.32C61.9271 79.316 59.9941 79.3127 58.061 79.3107L57.8376 79.3105C56.9277 79.3096 56.0177 79.3087 55.1078 79.3069C54.1423 79.3048 53.1768 79.303 52.2113 79.3022L51.1131 79.3014C50.5836 79.2999 50.0542 79.2985 49.5247 79.2983L49.0417 79.2984ZM93.0488 60.4863L93.5 60.51C94.0257 61.7728 94.4792 63.0403 94.8745 64.3494L95.0374 64.8839C95.1496 65.2531 95.2613 65.6223 95.3727 65.9918C95.5432 66.5567 95.7161 67.1209 95.8891 67.6851C95.9984 68.0456 96.1075 68.4062 96.2164 68.7668L96.3729 69.2755L96.3729 69.2755L96.373 69.2757C96.6876 70.329 96.7872 70.6625 96.7857 70.9956C96.7851 71.15 96.7627 71.3042 96.73 71.53L96.35 71.91L96.3499 71.91C96.0431 71.8732 95.8949 71.8554 95.7478 71.8304C95.6104 71.807 95.474 71.7774 95.21 71.72C94.7752 70.3309 94.3425 68.9412 93.9112 67.551C93.7642 67.0781 93.6168 66.6054 93.4688 66.1329C93.2563 65.4536 93.0455 64.7739 92.835 64.094L92.6335 63.454L92.4491 62.8548L92.2854 62.3293C92.1661 61.8233 92.121 61.4076 92.17 60.89C92.3662 60.6938 92.4611 60.5989 92.5756 60.5498C92.683 60.5037 92.8075 60.4978 93.0488 60.4863ZM51.7615 84.9674L51.0736 84.971C50.9824 84.9712 50.8988 84.97 50.8213 84.9689C50.2966 84.9613 50.0524 84.9579 49.6101 85.4002C49.5918 85.6497 49.5829 85.7713 49.5833 85.8929C49.5838 86.0087 49.5927 86.1244 49.6101 86.3502C49.682 86.4222 49.7267 86.4669 49.7799 86.496C49.8673 86.5437 49.9776 86.5493 50.2688 86.5643L50.9 86.5648C51.2653 86.5657 51.6306 86.5666 51.9959 86.5661C52.2577 86.5657 52.5196 86.5655 52.7814 86.5656C53.3254 86.5661 53.8695 86.5663 54.4136 86.5657C55.1234 86.5645 55.8333 86.5639 56.5432 86.565C57.0958 86.5659 57.6485 86.5663 58.2011 86.566L58.9913 86.5654L59.7673 86.5666L60.4801 86.5648C60.5771 86.5647 60.6758 86.5702 60.7743 86.5757C61.1401 86.5962 61.5037 86.6165 61.77 86.3502C61.7874 86.1244 61.7963 86.0087 61.7967 85.8929C61.7972 85.7713 61.7883 85.6497 61.77 85.4002C61.5701 85.2003 61.4753 85.1055 61.3611 85.0536C61.2583 85.0069 61.1396 84.9948 60.9141 84.972L60.3064 84.971L59.6186 84.9674C59.2437 84.9686 58.8688 84.9697 58.4939 84.9694C57.9691 84.9684 57.4442 84.9679 56.9194 84.9693C56.2357 84.9716 55.5521 84.9728 54.8684 84.9707C54.3356 84.9689 53.8028 84.9681 53.27 84.9686C53.0158 84.9691 52.7617 84.9695 52.5075 84.9697L51.7615 84.9674ZM91.6832 55.9382C91.8976 56.0271 92.0175 56.0768 92.1141 56.1554C92.2368 56.2552 92.3217 56.4015 92.5144 56.7338C92.7689 57.4297 92.7993 58.0596 92.74 58.8C92.6761 58.8639 92.6337 58.9063 92.5835 58.9349C92.4843 58.9914 92.3544 58.994 91.9681 59.0019L91.41 58.99L91.41 58.9899C90.9732 57.9345 90.8135 57.5485 90.7854 57.1532C90.7692 56.9253 90.7967 56.6942 90.84 56.33C91.0424 56.1277 91.137 56.0331 91.2512 55.9871C91.3514 55.9467 91.4667 55.9437 91.6832 55.9382ZM41.6302 55L41.2383 54.8457C40.4137 54.793 39.8944 55.1512 39.3502 55.76C39.3044 56.1062 39.2839 56.2619 39.2884 56.417C39.2922 56.5438 39.3127 56.6702 39.3502 56.9C39.603 56.9562 39.7362 56.9858 39.8705 57.009C40.0201 57.0347 40.1711 57.0525 40.4902 57.09C41.0225 56.7352 41.4216 56.4482 41.8202 55.95C41.7946 55.6692 41.7828 55.5393 41.7552 55.4129C41.7315 55.3041 41.6961 55.1978 41.6302 55Z" fill="#977A5D"/>
</svg>
