<svg width="110" height="115" viewBox="0 0 110 115" fill="none" xmlns="http://www.w3.org/2000/svg">
<circle opacity="0.08" cx="55" cy="55" r="55" fill="#D5B899"/>
<path fill-rule="evenodd" clip-rule="evenodd" d="M29.1471 17.1163L28.644 17.0898C27.917 17.1244 27.7251 17.3062 27.5424 18.0077L27.4849 18.346L27.4849 18.346C27.0932 20.6548 26.7091 22.9192 25.5474 24.986C23.8595 27.3832 21.5604 28.4737 18.7618 29.0698C18.2641 29.1699 17.7665 29.2703 17.2689 29.371L16.549 29.5241C16.1919 29.5958 16.0305 29.6282 15.8719 29.6712C15.7411 29.7066 15.6123 29.7492 15.3772 29.827C15.1365 30.1881 15.0325 30.344 15.0066 30.512C14.9869 30.6396 15.0123 30.7742 15.057 31.0111C15.2155 31.2638 15.2955 31.3915 15.4061 31.4817C15.5189 31.5738 15.6635 31.627 15.9557 31.7344L16.688 31.8527L17.4948 32.0017C19.3168 32.328 21.1257 32.7011 22.7256 33.6666L22.7554 33.6865C23.2057 33.9867 23.6387 34.2755 24.12 34.5256L24.4865 34.6994V35.1231L24.844 35.4408C26.967 37.736 27.1118 40.94 27.1322 43.895C27.1479 47.1645 27.3551 50.2046 28.362 53.3437L28.5381 53.8581C29.8367 57.6723 31.8736 61.3784 34.8404 64.1598L35.2906 64.5694C36.523 65.7549 37.7624 66.8636 39.1349 67.8837C41.676 69.7676 44.026 71.9038 45.9465 74.4326C49.0155 78.8421 50.0536 83.8371 49.1316 89.0992C49.05 89.5259 48.9685 89.9526 48.889 90.3798C48.801 90.8548 48.7127 91.3298 48.6236 91.8047C48.1777 94.1114 47.8413 96.3182 48.0013 98.6764C48.5558 100.34 49.2734 101.647 50.6485 102.766C52.4452 103.983 54.3436 104.21 56.475 103.973C58.3643 103.55 59.7718 102.426 60.9014 100.882C61.3791 100.066 61.7041 99.5113 61.8837 98.9128C62.2662 97.638 61.9891 96.1653 61.1216 91.5563C60.6948 89.3016 60.3014 87.0715 60.2816 84.7708C60.5023 79.8492 62.6124 75.1281 66.2083 71.7415L66.6436 71.3485C67.6706 70.3943 68.7125 69.4695 69.808 68.5945C70.767 67.8373 71.7185 67.0721 72.6613 66.2948L73.2108 65.8405C74.4048 64.878 75.3849 63.8425 76.3396 62.6397L76.8121 62.0273C80.8029 56.8619 82.9149 50.6272 82.7835 44.09C82.3802 36.9324 79.6944 30.0888 74.4529 25.0845L73.8463 24.5308C69.6401 20.6553 64.4841 18.0602 58.7938 17.223C51.5773 16.3674 44.2007 17.9484 38.3764 22.4033L37.8327 22.8361C37.6958 22.9432 37.5584 23.0493 37.4211 23.1553C36.5745 23.809 35.7348 24.4575 35.0548 25.2922C34.8524 25.5651 34.7604 25.6893 34.6555 25.8015C34.5679 25.8952 34.4714 25.9805 34.2943 26.137L34.2943 26.1371L33.9666 26.3977L33.384 26.8611L33.0431 26.5036L32.5896 26.0138C31.3357 24.6763 30.7993 23.2988 30.4219 21.5265L30.4054 21.4448C30.1019 19.9368 29.8153 18.5127 29.1471 17.1163ZM35.2896 28.3432C35.2102 28.2677 35.1672 28.154 35.0788 27.9204C40.6063 22.2003 47.499 18.5594 55.6227 18.7771L56.2632 18.811C62.3431 19.1141 68.7554 21.8852 72.9501 26.3398L73.4226 26.8611C74.2322 27.7184 75.0117 28.591 75.7579 29.5042C80.0048 35.0605 81.5666 41.9454 80.7048 48.84C79.3951 55.6702 75.8816 61.6585 70.2631 65.8306C67.1942 68.0967 64.1505 70.7165 61.983 73.8906C58.3967 79.2507 58.0501 85.1928 59.2271 91.3744C59.3364 91.9446 59.4434 92.5152 59.5493 93.0861C59.6167 93.4564 59.6843 93.8268 59.752 94.1971C59.9113 95.0164 60.0613 95.8203 60.1014 96.6553C60.1154 98.2971 59.7492 99.5877 58.5935 100.795C57.301 101.819 56.0207 102.389 54.3566 102.278C52.598 101.972 51.3832 101.019 50.358 99.59C49.9488 98.0874 49.7418 97.3271 49.7184 96.5612C49.6945 95.7766 49.8633 94.9862 50.2051 93.3862C50.8355 90.2267 51.4425 87.1025 51.2832 83.8655C50.8451 78.5413 48.4181 73.4613 44.3867 69.9185C43.94 69.5505 43.5014 69.1832 43.0742 68.7923C42.2149 67.9978 41.3428 67.2399 40.4114 66.532C38.9466 65.4249 37.5113 64.3113 36.2513 62.9673C31.4797 57.7232 28.6244 51.1827 28.9353 44.0205H29.359C29.6856 41.5778 30.126 38.9636 31.1886 36.7218C32.0827 35.2511 33.1701 33.9425 34.8669 33.4283C34.8787 33.6285 34.8856 33.7454 34.8664 33.8578C34.8394 34.0157 34.761 34.1647 34.5723 34.5231C32.9281 38.0706 32.0895 41.6247 32.1055 45.5457C32.3399 51.2921 34.6224 57.221 38.8696 61.2155C44.1666 65.8246 50.0804 67.9067 57.1106 67.5353C63.0454 67.0628 68.4631 64.0509 72.3319 59.6052L72.7871 59.0615C74.8898 56.5569 76.3385 53.4718 77.086 50.2939C78.2425 44.3838 77.7429 37.9958 74.3767 32.8366L74.0581 32.3691C73.3422 31.2201 72.5546 30.1936 71.6177 29.2178C67.2928 24.8428 61.8059 22.2186 55.6242 22.1231C49.9512 22.1077 43.827 23.6571 39.6607 27.7822L39.6164 27.8297C39.2443 28.2287 38.8796 28.6197 38.4683 28.9796C37.772 28.9996 37.4188 29.0098 37.0756 28.9557C36.7222 28.9 36.3795 28.776 35.6838 28.5245L35.6837 28.5245L35.6837 28.5244C35.4731 28.452 35.365 28.4148 35.2896 28.3432ZM28.3395 23.1448L28.5116 22.6242H28.7234C28.8297 22.9654 28.9412 23.3049 29.0544 23.6437C30.0815 26.4437 31.6494 28.2705 34.2976 29.5754C35.0185 29.916 35.6863 30.232 36.3498 30.6743C35.8431 30.8701 35.3574 31.077 34.8669 31.3099C31.6973 32.9675 30.022 34.8907 28.8641 38.2892L28.7234 38.7244C28.2922 38.1247 28.2922 38.1247 28.0788 37.5378C27.9103 37.0925 27.7339 36.6502 27.5517 36.2104C26.4777 33.9197 24.5722 32.28 22.2489 31.3363C22.1337 31.2944 22.0258 31.2592 21.9247 31.2263C21.462 31.0755 21.1391 30.9703 20.8852 30.4625C21.7524 30.1477 22.5939 29.7992 23.4273 29.4033C25.9929 27.9092 27.3607 25.9104 28.3395 23.1448ZM41.8578 30.0388L40.3749 29.6151C44.3157 25.2666 50.7732 23.3721 56.475 23.6835C62.2929 24.2382 67.4811 26.9543 71.2512 31.3893C75.0808 36.2785 76.5009 41.7524 75.9191 47.8914C75.322 52.5991 72.7233 57.6295 69.0012 60.6222L68.5502 60.9681C66.4668 62.6787 64.2841 63.9836 61.743 64.8955C56.393 66.6753 50.7023 66.2996 45.618 63.8809C40.2639 61.0324 36.4789 56.592 34.5776 50.8129C32.9774 45.6083 33.6567 39.9027 36.1305 35.0958C36.2751 34.8229 36.4189 34.5495 36.5617 34.2757C36.7521 33.8592 36.9535 33.4474 37.1707 33.0443C37.9952 32.3956 38.4161 32.0645 38.8915 31.8605C39.3872 31.6477 39.9421 31.5731 41.0758 31.4208L41.8578 31.3099V30.0388ZM85.6387 68.4718C85.5015 68.4437 85.3627 68.4239 85.0741 68.3826C84.9058 68.5508 84.7984 68.6583 84.7178 68.783C84.5754 69.0035 84.5169 69.2782 84.3548 70.0384L84.3055 70.2769C84.0817 71.3615 83.8608 72.4321 83.3528 73.4272C83.1322 73.8022 82.916 74.1804 82.7189 74.5683L82.5319 74.9498H82.1082C81.2052 75.6762 80.5164 76.0824 79.3807 76.3533C78.2797 76.596 77.2405 76.9077 76.1766 77.2801C76.1129 77.5221 76.0799 77.6477 76.0539 77.7747C76.0258 77.9118 76.006 78.0507 75.9647 78.3393C76.2096 78.5842 76.313 78.6876 76.4358 78.756C76.5254 78.806 76.6255 78.8373 76.7986 78.8915L77.297 78.9989C77.6735 79.0849 78.0503 79.1696 78.4274 79.2529C79.5557 79.494 80.5729 79.7383 81.5679 80.3403C83.2799 81.5095 83.7085 83.054 84.1605 84.9992L84.2827 85.5777L84.4013 86.1238L84.4013 86.1239C84.455 86.3897 84.4798 86.5125 84.5145 86.6326C84.5442 86.7356 84.5812 86.8365 84.65 87.0239L84.65 87.0241L84.6502 87.0245L84.6504 87.025C85.0173 87.2696 85.1724 87.373 85.3411 87.4055C85.4646 87.4293 85.5955 87.4152 85.8221 87.3907C86.0612 87.2235 86.2112 87.1187 86.3207 86.9815C86.5051 86.7507 86.5751 86.4286 86.763 85.5644C86.781 85.4712 86.7987 85.3784 86.8164 85.2859C87.0479 84.074 87.2679 82.9219 87.9199 81.8455C89.0925 80.1351 90.6349 79.7052 92.5813 79.2529L93.1598 79.1307L93.7059 79.0121C93.9717 78.9584 94.0946 78.9336 94.2147 78.8989C94.3179 78.8691 94.419 78.832 94.607 78.7631L94.607 78.763C94.8517 78.3961 94.9551 78.241 94.9876 78.0723C95.0114 77.9487 94.9973 77.8179 94.9728 77.5913C94.8056 77.3522 94.7007 77.2022 94.5636 77.0927C94.3328 76.9083 94.0107 76.8382 93.1465 76.6504L93.008 76.6238L92.8686 76.5971L92.8663 76.5967C91.6576 76.3658 90.5047 76.1456 89.4293 75.5001C88.0661 74.5678 87.4384 73.3564 87.0469 71.7722C86.8112 70.6782 86.5029 69.6505 86.1333 68.5945L86.1332 68.5945C85.8913 68.5308 85.7657 68.4978 85.6387 68.4718ZM84.7166 74.6585C84.8956 74.3259 85.0827 73.9971 85.2859 73.6788H85.7096C86.4047 75.2621 87.2634 76.2675 88.7548 77.1345C89.0874 77.3135 89.4162 77.5006 89.7346 77.7038V78.1275C88.0668 78.859 86.8743 79.7451 86.0406 81.3978L85.7096 82.1525H85.2859C84.526 80.3645 83.3526 79.176 81.6258 78.2996L81.2608 78.1275V77.7038C82.8442 77.0087 83.8496 76.15 84.7166 74.6585ZM61.3475 36.3941C61.9535 36.6821 62.3769 36.9545 62.8304 37.4534C62.5595 38.0473 62.2788 38.4813 61.8169 38.9415L61.4532 39.3069L61.0557 39.6999L60.636 40.1197C60.1785 40.577 59.7195 41.0326 59.2605 41.4883C58.9428 41.8053 58.6251 42.1223 58.3076 42.4394C57.472 43.2734 56.6351 44.1061 55.798 44.9385C55.0091 45.7235 54.2211 46.5094 53.4332 47.2954L53.2378 47.4903C51.5641 49.1595 49.889 50.8273 48.2131 52.4943C47.6071 52.2063 47.1837 51.9339 46.7302 51.4351C47.0011 50.8411 47.2818 50.4071 47.7437 49.947L48.1074 49.5815L48.5049 49.1886L48.9246 48.7687C49.3821 48.3115 49.8411 47.8558 50.3001 47.4001C50.6178 47.0832 50.9354 46.7662 51.253 46.4491C52.0886 45.6151 52.9254 44.7824 53.7626 43.9499C54.5521 43.1644 55.3406 42.3779 56.1291 41.5913L56.3228 41.3981C57.9965 39.729 59.6716 38.0611 61.3475 36.3941ZM24.0987 83.3005C23.9349 83.2727 23.7696 83.2528 23.4278 83.2118L23.4273 83.2118C23.2518 83.3873 23.1426 83.4965 23.0611 83.6236C22.9268 83.8331 22.868 84.091 22.7123 84.7741L22.7123 84.7742L22.7123 84.7743C22.6496 85.0843 22.6186 85.238 22.575 85.3881C22.5321 85.5357 22.4771 85.6799 22.3681 85.9657C21.9239 86.5379 21.6297 86.7755 20.9431 87.0125L20.8148 87.04C20.2648 87.1575 19.727 87.2724 19.1904 87.4486C18.9272 87.8435 18.8275 87.9931 18.7955 88.1559C18.776 88.2551 18.7817 88.3593 18.7907 88.5269C18.8852 88.7303 18.9321 88.8315 19.0054 88.9071C19.0779 88.982 19.1762 89.0318 19.3717 89.131L19.8657 89.2626L20.3862 89.4206C20.7935 89.5402 21.1974 89.6712 21.6002 89.8054L21.6002 89.8055C21.9856 90.179 22.1806 90.368 22.3143 90.5934C22.4512 90.8242 22.5239 91.0931 22.671 91.6375C22.8109 92.1839 22.9378 92.6749 23.2155 93.1684C23.4887 93.2709 23.621 93.3205 23.7577 93.3463C23.886 93.3706 24.0182 93.3739 24.2745 93.3803H24.2746H24.2747L24.2747 93.3802C24.4624 93.1926 24.5749 93.0801 24.6591 92.9492C24.7851 92.7532 24.8474 92.5161 25.0029 91.9239C25.0718 91.6447 25.106 91.5059 25.1477 91.3694C25.1889 91.2346 25.2375 91.1019 25.3339 90.8382C25.6505 90.3068 25.8452 90.0469 26.4113 89.7914C27.3439 89.5383 28.1266 89.2675 28.9353 88.7197L28.7234 87.4486L28.2435 87.332L27.6112 87.1706L27.6107 87.1705L27.6092 87.1701C27.2949 87.0961 27.139 87.0594 26.9857 87.0142C26.8353 86.9699 26.6873 86.9174 26.3949 86.8137L26.3936 86.8133L26.3931 86.8131C25.7204 86.4531 25.5676 86.2317 25.2776 85.5131L25.0691 84.7609L24.854 84.0037L24.6984 83.4236L24.6979 83.4235L24.6975 83.4234C24.4038 83.3596 24.2519 83.3265 24.0987 83.3005ZM23.0036 88.0842L23.4141 87.6605C23.6442 87.3746 23.7276 87.2711 23.8324 87.2399C23.892 87.2222 23.9585 87.2279 24.0628 87.2368H24.0629L24.2747 87.8723H24.6984L24.9102 88.5079L24.0629 89.3552C23.425 88.93 23.2938 88.7539 23.0036 88.0842ZM56.3029 94.5852C57.1571 95.2875 57.4929 95.7546 57.6137 96.8625C57.5032 97.9126 57.2454 98.5911 56.4353 99.2855C55.4355 99.6854 54.5604 99.6938 53.5622 99.2855C52.9382 98.7655 52.593 98.3541 52.2382 97.6172C52.1664 96.6482 52.324 95.9221 52.8207 95.0883C53.8773 94.1198 55.0214 93.9067 56.3029 94.5852ZM54.5684 96.1343L54.1448 96.558C54.1796 96.8407 54.1965 96.9784 54.2242 97.114C54.2505 97.2429 54.2864 97.3697 54.3566 97.6172L54.9921 97.829L55.8395 96.9817L55.4158 96.1343H54.5684ZM63.0422 45.5034C62.716 45.1283 62.4683 44.8929 62.0043 44.7048C61.7759 44.6798 61.6648 44.6676 61.5625 44.6923C61.4654 44.7156 61.3764 44.7722 61.2029 44.8822L60.8475 45.2409L60.4406 45.6439L60.0085 46.0885C59.704 46.394 59.3998 46.6998 59.0958 47.0058C58.6192 47.493 58.1427 47.98 57.662 48.4632C57.3484 48.7776 57.0353 49.0926 56.7228 49.4081L56.2748 49.862L55.8401 50.3001L55.4372 50.7132C54.9547 51.2051 54.6404 51.6533 54.3566 52.2825L55.6277 53.3417C56.4501 52.5282 57.2717 51.7137 58.092 50.898C58.4268 50.565 58.7617 50.2321 59.0966 49.8992C59.5914 49.4098 60.0862 48.9203 60.5795 48.4294L61.0479 47.9628L61.5047 47.5127L61.9287 47.0888C62.4293 46.592 62.7539 46.1487 63.0422 45.5034Z" fill="#977A5D"/>
</svg>
