<svg width="14" height="13" viewBox="0 0 14 13" fill="none" xmlns="http://www.w3.org/2000/svg">
<path fill-rule="evenodd" clip-rule="evenodd" d="M11.4154 0.519988C11.8032 0.126761 12.4364 0.122366 12.8296 0.510169C13.2228 0.897972 13.2272 1.53112 12.8394 1.92435L8.40393 6.42186L12.8471 10.9271C13.2349 11.3204 13.2305 11.9535 12.8373 12.3413C12.444 12.7291 11.8109 12.7247 11.4231 12.3315L6.99944 7.84599L2.57675 12.3305C2.18894 12.7238 1.55579 12.7282 1.16257 12.3403C0.76934 11.9525 0.764944 11.3194 1.15275 10.9262L5.59494 6.42186L1.16041 1.92532C0.772608 1.53209 0.777004 0.898945 1.17023 0.511141C1.56346 0.123338 2.19661 0.127734 2.58441 0.52096L6.99944 4.99772L11.4154 0.519988Z" fill="black"/>
</svg>
