<svg width="31" height="31" viewBox="0 0 31 31" fill="none" xmlns="http://www.w3.org/2000/svg">
<path fill-rule="evenodd" clip-rule="evenodd" d="M19.6796 9.92038C20.0674 9.52715 20.7005 9.52276 21.0938 9.91056C21.487 10.2984 21.4914 10.9315 21.1036 11.3247L16.6681 15.8222L21.1112 20.3275C21.499 20.7208 21.4947 21.3539 21.1014 21.7417C20.7082 22.1295 20.075 22.1251 19.6872 21.7319L15.2636 17.2464L10.8409 21.7309C10.4531 22.1241 9.81995 22.1285 9.42673 21.7407C9.0335 21.3529 9.0291 20.7198 9.41691 20.3266L13.8591 15.8222L9.42457 11.3257C9.03677 10.9325 9.04116 10.2993 9.43439 9.91153C9.82762 9.52373 10.4608 9.52812 10.8486 9.92135L15.2636 14.3981L19.6796 9.92038Z" fill="white"/>
</svg>
