<svg width="41" height="40" viewBox="0 0 41 40" fill="none" xmlns="http://www.w3.org/2000/svg">
<g clip-path="url(#clip0_385_4460)">
<g clip-path="url(#clip1_385_4460)">
<path d="M30.767 10.7916C31.1129 11.0113 31.3658 11.3012 31.4809 11.7041C31.6488 12.4785 31.3979 13.3214 31.2389 14.0793C31.2006 14.2629 31.1634 14.4467 31.126 14.6305C31.0616 14.9465 30.9965 15.2623 30.9311 15.578C30.8366 16.0334 30.7432 16.4889 30.65 16.9445C30.5368 17.498 30.4235 18.0515 30.3096 18.6049C30.3008 18.6474 30.2921 18.6899 30.2831 18.7337C30.27 18.7975 30.27 18.7975 30.2566 18.8625C30.0425 19.9026 29.8306 20.9431 29.6201 21.9839C29.6052 22.0575 29.5903 22.1311 29.5754 22.2048C29.5174 22.4912 29.4595 22.7776 29.4016 23.064C29.3065 23.5346 29.2113 24.0052 29.1159 24.4758C29.1095 24.5074 29.1031 24.5389 29.0965 24.5715C29.0295 24.9023 28.9624 25.2332 28.895 25.564C28.8726 25.6739 28.8503 25.7838 28.8279 25.8936C28.8173 25.9457 28.8067 25.9977 28.7958 26.0513C28.7412 26.3199 28.6873 26.5885 28.6346 26.8574C28.6076 26.9955 28.5801 27.1335 28.5527 27.2714C28.5358 27.3569 28.5196 27.4424 28.5033 27.5279C28.3759 28.1658 28.1351 28.7262 27.5901 29.1097C27.2087 29.3223 26.7543 29.3822 26.3298 29.2769C25.7888 29.0963 25.3972 28.777 24.9704 28.4102C24.8439 28.303 24.7135 28.2013 24.5823 28.0999C24.357 27.9247 24.1361 27.7448 23.9163 27.5628C23.6721 27.3606 23.4257 27.1618 23.1755 26.9669C22.9447 26.7867 22.7176 26.602 22.4909 26.4167C22.3592 26.309 22.2275 26.2023 22.0901 26.1019C21.9611 26.1601 21.8682 26.2259 21.7662 26.3236C21.7379 26.3504 21.7097 26.3772 21.6806 26.4048C21.6509 26.4334 21.6212 26.4619 21.5906 26.4913C21.5284 26.5504 21.4661 26.6095 21.4038 26.6685C21.3588 26.7112 21.3588 26.7112 21.313 26.7548C21.2145 26.8477 21.1143 26.9384 21.0132 27.0284C20.8325 27.1896 20.6555 27.3544 20.4788 27.5198C20.3962 27.597 20.3136 27.6741 20.2309 27.7512C20.1665 27.8113 20.1022 27.8714 20.0379 27.9316C19.5101 28.4168 18.9862 28.8287 18.2394 28.8151C17.7909 28.7879 17.3543 28.596 17.0512 28.2581C16.7823 27.9192 16.6177 27.5315 16.481 27.1251C16.4639 27.0755 16.4467 27.026 16.429 26.975C16.3826 26.8409 16.3367 26.7066 16.291 26.5723C16.2426 26.4304 16.1936 26.2887 16.1446 26.1469C16.0728 25.9395 16.0013 25.7319 15.93 25.5243C15.7962 25.1349 15.6608 24.7461 15.5246 24.3576C15.5145 24.3287 15.5044 24.2998 15.4939 24.27C15.4437 24.1268 15.3935 23.9837 15.3433 23.8405C15.2864 23.6784 15.2296 23.5162 15.1729 23.3541C15.1551 23.3032 15.1373 23.2523 15.1189 23.1998C15.0844 23.1013 15.05 23.0028 15.0156 22.9043C14.9373 22.6802 14.8586 22.4563 14.7788 22.2327C14.7575 22.1726 14.7575 22.1726 14.7358 22.1114C14.7095 22.0375 14.6831 21.9636 14.6565 21.8898C14.6091 21.7562 14.5706 21.6471 14.5706 21.5042C14.5299 21.4943 14.4892 21.4843 14.4473 21.4741C14.0002 21.3641 13.5564 21.2442 13.1133 21.1193C13.0607 21.1045 13.0607 21.1045 13.0069 21.0894C12.8215 21.0371 12.6361 20.9846 12.4507 20.932C12.2991 20.8891 12.1475 20.8465 11.9957 20.8042C11.81 20.7524 11.6245 20.7 11.4392 20.6473C11.3694 20.6275 11.2997 20.608 11.2298 20.5886C10.5807 20.4087 9.92007 20.2061 9.54325 19.6055C9.45508 19.2694 9.44143 18.9238 9.61777 18.6159C9.89811 18.2214 10.2545 18.0404 10.695 17.8683C10.7322 17.8536 10.7694 17.8389 10.8077 17.8238C11.296 17.6316 11.7866 17.4451 12.2771 17.2584C12.3812 17.2187 12.4853 17.179 12.5894 17.1393C13.3156 16.8625 14.0421 16.5865 14.7687 16.3107C15.4907 16.0365 16.2121 15.7609 16.9332 15.4844C17.5778 15.2373 18.2226 14.9909 18.8675 14.7447C18.9415 14.7164 18.9415 14.7164 19.017 14.6876C19.2678 14.5919 19.5187 14.4961 19.7696 14.4003C20.2147 14.2305 20.6598 14.0605 21.1049 13.8906C21.3509 13.7966 21.597 13.7027 21.8431 13.6087C21.9415 13.5711 22.04 13.5335 22.1385 13.4959C22.7293 13.2703 22.7293 13.2703 22.877 13.2139C22.9755 13.1763 23.0739 13.1387 23.1724 13.1011C23.4184 13.0072 23.6644 12.9133 23.9105 12.8193C24.4055 12.6303 24.9005 12.4413 25.3955 12.2522C25.8372 12.0834 26.279 11.9148 26.7208 11.7462C26.9699 11.6512 27.2189 11.5561 27.468 11.4609C27.7189 11.365 27.9699 11.2693 28.2209 11.1736C28.315 11.1377 28.4092 11.1018 28.5033 11.0657C28.6331 11.0161 28.7628 10.9667 28.8926 10.9173C28.9305 10.9027 28.9685 10.8882 29.0076 10.8732C29.5494 10.6675 30.2188 10.517 30.767 10.7916ZM29.7517 12.0284C29.7018 12.0451 29.6519 12.0617 29.6005 12.0788C29.3367 12.1721 29.0755 12.272 28.8149 12.3737C28.6703 12.4302 28.5255 12.4862 28.3808 12.5422C28.3014 12.5729 28.222 12.6036 28.1427 12.6344C27.6369 12.8303 27.1301 13.0234 26.6233 13.2166C26.5225 13.2551 26.4216 13.2936 26.3208 13.3321C26.1673 13.3906 26.0139 13.4492 25.8604 13.5077C25.5061 13.6429 25.1519 13.7782 24.7977 13.9135C23.8941 14.2587 22.9905 14.6035 22.0861 14.9467C22.0423 14.9633 21.9984 14.98 21.9532 14.9971C21.9093 15.0138 21.8655 15.0304 21.8204 15.0475C21.1361 15.3072 20.4528 15.5692 19.7698 15.8323C19.0427 16.1125 18.315 16.3911 17.5865 16.6675C17.5426 16.6842 17.4987 16.7009 17.4535 16.718C17.4095 16.7347 17.3655 16.7514 17.3201 16.7686C16.6584 17.0197 15.9971 17.2717 15.336 17.5242C15.2632 17.552 15.2632 17.552 15.189 17.5804C14.9919 17.6557 14.7948 17.731 14.5977 17.8063C14.2545 17.9374 13.9113 18.0685 13.5681 18.1995C13.4863 18.2307 13.4045 18.2619 13.3227 18.2931C12.9004 18.4543 12.9004 18.4543 12.6945 18.5329C11.9564 18.8146 11.9564 18.8146 11.219 19.098C11.219 19.1263 11.219 19.1547 11.219 19.1839C11.6851 19.3188 12.1512 19.4533 12.6175 19.5873C12.834 19.6495 13.0505 19.7119 13.2669 19.7746C13.4757 19.835 13.6847 19.8952 13.8937 19.9551C13.9734 19.978 14.0531 20.001 14.1327 20.0242C14.2443 20.0566 14.356 20.0886 14.4678 20.1205C14.5006 20.1301 14.5335 20.1398 14.5673 20.1497C14.8941 20.242 15.1048 20.2258 15.4071 20.0626C15.4376 20.0467 15.4681 20.0308 15.4994 20.0144C15.5983 19.9628 15.6967 19.9104 15.7952 19.858C15.8635 19.8221 15.9318 19.7864 16.0001 19.7506C16.1023 19.6973 16.2044 19.6438 16.3064 19.5902C16.571 19.4511 16.8376 19.3163 17.1057 19.1839C17.4188 19.0286 17.7287 18.8683 18.0373 18.7043C18.3119 18.559 18.5893 18.4198 18.8675 18.2816C19.172 18.1302 19.475 17.9769 19.7752 17.817C20.1283 17.6289 20.4858 17.45 20.844 17.2718C21.2323 17.0786 21.6189 16.8831 22.0017 16.6791C22.3344 16.5026 22.6719 16.3358 23.0091 16.1682C23.3171 16.0147 23.6224 15.8571 23.9262 15.6954C24.2652 15.5157 24.609 15.3457 24.9526 15.175C25.2669 15.0185 25.5779 14.8573 25.886 14.689C26.0991 14.5776 26.28 14.5648 26.5159 14.5862C26.6966 14.6442 26.7605 14.6978 26.8758 14.8494C26.9672 15.0338 26.988 15.2011 26.9456 15.4027C26.8051 15.743 26.4881 15.997 26.2297 16.2491C26.0965 16.3794 25.9733 16.5156 25.8529 16.6578C25.7498 16.7753 25.6374 16.883 25.5261 16.9927C25.445 17.075 25.3692 17.1599 25.294 17.2476C25.1836 17.3761 25.0681 17.4966 24.9475 17.6155C24.8278 17.7336 24.7132 17.8531 24.6038 17.9808C24.4641 18.1438 24.3134 18.2933 24.1607 18.444C24.0754 18.5305 23.9953 18.6191 23.9163 18.7112C23.7766 18.8743 23.6259 19.0238 23.4732 19.1745C23.3879 19.261 23.3078 19.3495 23.2288 19.4417C23.0891 19.6047 22.9384 19.7543 22.7857 19.905C22.7004 19.9915 22.6203 20.08 22.5413 20.1722C22.4016 20.3352 22.2509 20.4847 22.0982 20.6354C22.0129 20.7219 21.9328 20.8105 21.8538 20.9027C21.7141 21.0657 21.5634 21.2152 21.4107 21.3659C21.3254 21.4524 21.2453 21.5409 21.1663 21.6331C21.0569 21.7608 20.9423 21.8803 20.8225 21.9984C20.5688 22.2491 20.3414 22.5193 20.1136 22.7933C20.1485 22.8204 20.1835 22.8476 20.2195 22.8755C20.5098 23.1019 20.7968 23.3318 21.0804 23.5667C21.3001 23.7488 21.5212 23.9286 21.7464 24.1038C21.9716 24.2791 22.1926 24.4589 22.4124 24.6409C22.6331 24.8237 22.8551 25.0045 23.0811 25.1807C23.4433 25.4632 23.7986 25.7541 24.1544 26.0446C24.4757 26.3067 24.7979 26.5671 25.1251 26.8219C25.2979 26.9571 25.4674 27.0959 25.6361 27.2362C26.1702 27.7172 26.1702 27.7172 26.8167 27.9925C27.1517 27.7118 27.1888 27.2866 27.2698 26.8758C27.28 26.8252 27.2902 26.7746 27.3007 26.7224C27.3286 26.5834 27.3564 26.4442 27.384 26.3051C27.4137 26.1558 27.4437 26.0065 27.4737 25.8572C27.5252 25.6005 27.5766 25.3437 27.6278 25.0868C27.7089 24.6805 27.7903 24.2743 27.8718 23.8681C27.8821 23.8172 27.8821 23.8172 27.8925 23.7652C27.9201 23.6276 27.9477 23.4899 27.9754 23.3522C28.0171 23.1441 28.0589 22.936 28.1006 22.7279C28.3386 21.5403 28.5793 20.3532 28.8214 19.1664C28.8816 18.871 28.9417 18.5756 29.0018 18.2802C29.1686 17.4607 29.3356 16.6411 29.504 15.8219C29.5826 15.4396 29.6609 15.0571 29.7389 14.6746C29.7931 14.4095 29.8476 14.1444 29.9025 13.8793C29.9357 13.7181 29.9686 13.5568 30.0014 13.3955C30.0165 13.3217 30.0317 13.2478 30.0471 13.174C30.1255 12.7983 30.1937 12.4374 30.1682 12.0511C30.0013 11.9575 29.9349 11.9673 29.7517 12.0284ZM22.7684 17.7441C22.7225 17.7671 22.6766 17.7901 22.6292 17.8138C22.5551 17.8512 22.5551 17.8512 22.4795 17.8895C22.4282 17.9153 22.3769 17.9411 22.3256 17.9668C22.0055 18.1281 21.6875 18.2932 21.3711 18.4616C21.0832 18.6141 20.792 18.7596 20.5003 18.9046C20.1778 19.0649 19.8567 19.2268 19.5389 19.3961C19.2034 19.5747 18.864 19.7452 18.5237 19.9144C18.1538 20.0983 17.7858 20.2851 17.4212 20.4794C16.9202 20.745 16.4105 20.9942 15.9026 21.2464C15.9613 21.5358 16.0427 21.8087 16.1405 22.0871C16.1555 22.1306 16.1706 22.1741 16.1862 22.219C16.2356 22.3612 16.2853 22.5034 16.335 22.6456C16.3695 22.7446 16.4039 22.8437 16.4384 22.9428C16.7109 23.7253 16.9868 24.5065 17.2644 25.2872C17.2865 25.3494 17.2865 25.3494 17.309 25.4129C17.3364 25.4897 17.3637 25.5666 17.3911 25.6434C17.4555 25.8243 17.5185 26.0054 17.5784 26.1878C17.6971 26.0691 17.7131 25.9354 17.7503 25.7767C17.7584 25.7432 17.7665 25.7096 17.7749 25.6751C17.7925 25.6021 17.81 25.5291 17.8273 25.4561C17.8549 25.3404 17.8828 25.2249 17.9109 25.1093C17.9906 24.7807 18.0696 24.452 18.1483 24.1231C18.1964 23.9221 18.2451 23.7211 18.294 23.5202C18.3126 23.4437 18.3309 23.3672 18.349 23.2906C18.3744 23.1832 18.4005 23.076 18.4267 22.9688C18.434 22.9373 18.4412 22.9058 18.4487 22.8734C18.5724 22.3765 18.991 22.021 19.3447 21.6729C19.4247 21.5915 19.4995 21.5076 19.5738 21.421C19.6842 21.2925 19.7996 21.172 19.9202 21.053C20.0399 20.9349 20.1545 20.8155 20.264 20.6878C20.4037 20.5248 20.5543 20.3753 20.7071 20.2246C20.7923 20.1381 20.8724 20.0495 20.9515 19.9573C21.0912 19.7943 21.2418 19.6448 21.3946 19.4941C21.4798 19.4076 21.5599 19.3191 21.639 19.2269C21.7787 19.0639 21.9293 18.9143 22.0821 18.7636C22.1933 18.6508 22.2958 18.5323 22.3986 18.412C22.4871 18.3131 22.5806 18.2211 22.6756 18.1285C22.8317 17.9748 22.9579 17.8197 23.0784 17.637C22.9558 17.637 22.8779 17.6891 22.7684 17.7441ZM19.512 24.0394C19.4101 24.4468 19.3084 24.8543 19.2072 25.2619C19.1602 25.4511 19.1131 25.6403 19.0658 25.8295C19.0201 26.0119 18.9747 26.1944 18.9295 26.3769C18.9122 26.4467 18.8948 26.5164 18.8773 26.5861C18.8528 26.6835 18.8287 26.7809 18.8047 26.8784C18.7973 26.9074 18.7899 26.9364 18.7823 26.9663C18.7396 27.1171 18.7396 27.1171 18.7815 27.262C18.8117 27.2314 18.8418 27.2008 18.8728 27.1692C19.0753 26.9644 19.2782 26.7642 19.4972 26.577C19.6375 26.4539 19.7733 26.3262 19.9095 26.1986C20.1148 26.0063 20.3202 25.8143 20.5271 25.6238C20.5667 25.5874 20.6062 25.551 20.647 25.5134C20.7528 25.4191 20.8613 25.3299 20.9729 25.2425C20.9166 25.0736 20.8094 25.0098 20.6722 24.9068C20.3866 24.6884 20.1093 24.4614 19.8348 24.2293C19.8051 24.2046 19.7755 24.1798 19.745 24.1543C19.7186 24.1322 19.6923 24.11 19.6652 24.0871C19.6 24.0311 19.6 24.0311 19.512 24.0394Z" fill="#6A7B61"/>
</g>
</g>
<defs>
<clipPath id="clip0_385_4460">
<rect width="22.0933" height="25.3333" fill="white" transform="matrix(1 0 0 -1 9.45337 32.6667)"/>
</clipPath>
<clipPath id="clip1_385_4460">
<rect width="22" height="22" fill="white" transform="translate(9.50024 9.00024)"/>
</clipPath>
</defs>
</svg>
