<svg width="40" height="41" viewBox="0 0 40 41" fill="none" xmlns="http://www.w3.org/2000/svg">
<g clip-path="url(#clip0_46_222)">
<path d="M30.2668 11.2044C30.6128 11.4241 30.8657 11.7141 30.9808 12.1169C31.1487 12.8914 30.8978 13.7342 30.7388 14.4922C30.7005 14.6758 30.6632 14.8596 30.6259 15.0434C30.5614 15.3593 30.4964 15.6751 30.4309 15.9908C30.3365 16.4462 30.2431 16.9018 30.1499 17.3574C30.0367 17.9109 29.9234 18.4643 29.8095 19.0177C29.8007 19.0602 29.792 19.1028 29.783 19.1466C29.7698 19.2103 29.7698 19.2103 29.7565 19.2753C29.5424 20.3154 29.3305 21.3559 29.1199 22.3968C29.105 22.4704 29.0902 22.544 29.0753 22.6176C29.0173 22.904 28.9594 23.1904 28.9015 23.4768C28.8064 23.9475 28.7111 24.4181 28.6158 24.8886C28.6094 24.9202 28.603 24.9518 28.5964 24.9843C28.5294 25.3152 28.4622 25.646 28.3949 25.9768C28.3725 26.0867 28.3501 26.1966 28.3278 26.3065C28.3172 26.3585 28.3066 26.4106 28.2957 26.4642C28.2411 26.7327 28.1872 27.0014 28.1345 27.2703C28.1074 27.4083 28.08 27.5463 28.0525 27.6843C28.0357 27.7697 28.0194 27.8552 28.0032 27.9408C27.8758 28.5787 27.635 29.1391 27.09 29.5225C26.7086 29.7351 26.2542 29.795 25.8296 29.6897C25.2887 29.5091 24.897 29.1898 24.4702 28.823C24.3437 28.7159 24.2133 28.6142 24.0822 28.5128C23.8569 28.3376 23.6359 28.1577 23.4162 27.9757C23.1719 27.7734 22.9256 27.5746 22.6754 27.3797C22.4446 27.1995 22.2175 27.0149 21.9908 26.8295C21.859 26.7219 21.7274 26.6151 21.59 26.5147C21.461 26.5729 21.3681 26.6388 21.2661 26.7364C21.2378 26.7633 21.2096 26.7901 21.1804 26.8177C21.1508 26.8462 21.1211 26.8747 21.0905 26.9041C21.0282 26.9632 20.966 27.0223 20.9037 27.0814C20.8587 27.1241 20.8587 27.1241 20.8128 27.1676C20.7144 27.2605 20.6142 27.3512 20.5131 27.4412C20.3324 27.6024 20.1554 27.7672 19.9787 27.9327C19.8961 28.0098 19.8135 28.087 19.7308 28.164C19.6664 28.2241 19.6021 28.2843 19.5377 28.3444C19.01 28.8297 18.4861 29.2415 17.7393 29.228C17.2908 29.2008 16.8542 29.0089 16.551 28.6709C16.2822 28.3321 16.1176 27.9443 15.9809 27.5379C15.9637 27.4884 15.9466 27.4389 15.9289 27.3878C15.8825 27.2537 15.8366 27.1195 15.7909 26.9852C15.7425 26.8432 15.6934 26.7015 15.6444 26.5598C15.5727 26.3523 15.5012 26.1448 15.4299 25.9371C15.2961 25.5478 15.1607 25.159 15.0245 24.7705C15.0144 24.7415 15.0042 24.7126 14.9938 24.6828C14.9436 24.5397 14.8934 24.3965 14.8432 24.2534C14.7863 24.0912 14.7295 23.9291 14.6728 23.7669C14.655 23.716 14.6371 23.6651 14.6188 23.6127C14.5843 23.5142 14.5499 23.4157 14.5155 23.3171C14.4372 23.093 14.3585 22.8691 14.2787 22.6455C14.2574 22.5855 14.2574 22.5855 14.2357 22.5243C14.2094 22.4503 14.183 22.3764 14.1563 22.3026C14.109 22.169 14.0705 22.06 14.0705 21.9171C14.0298 21.9071 13.9891 21.8972 13.9471 21.887C13.5001 21.777 13.0563 21.6571 12.6132 21.5322C12.5605 21.5173 12.5605 21.5173 12.5068 21.5022C12.3213 21.4499 12.1359 21.3974 11.9506 21.3449C11.799 21.3019 11.6473 21.2593 11.4956 21.217C11.3099 21.1652 11.1244 21.1129 10.939 21.0601C10.8693 21.0404 10.7995 21.0208 10.7297 21.0015C10.0806 20.8215 9.41995 20.6189 9.04312 20.0184C8.95495 19.6822 8.94131 19.3367 9.11765 19.0288C9.39799 18.6342 9.75441 18.4533 10.1949 18.2812C10.2321 18.2665 10.2693 18.2518 10.3076 18.2366C10.7959 18.0444 11.2865 17.8579 11.777 17.6712C11.8811 17.6315 11.9852 17.5918 12.0893 17.5522C12.8155 17.2753 13.542 16.9994 14.2685 16.7235C14.9905 16.4494 15.712 16.1737 16.4331 15.8973C17.0776 15.6502 17.7224 15.4037 18.3673 15.1575C18.4413 15.1293 18.4413 15.1293 18.5168 15.1005C18.7677 15.0047 19.0186 14.9089 19.2695 14.8132C19.7146 14.6433 20.1597 14.4733 20.6048 14.3034C20.8508 14.2095 21.0969 14.1155 21.3429 14.0216C21.4414 13.984 21.5399 13.9464 21.6383 13.9088C22.2292 13.6832 22.2292 13.6832 22.3769 13.6268C22.4753 13.5892 22.5738 13.5516 22.6723 13.514C22.9183 13.42 23.1643 13.3261 23.4103 13.2322C23.9054 13.0432 24.4004 12.8541 24.8954 12.665C25.3371 12.4963 25.7789 12.3276 26.2207 12.159C26.4697 12.064 26.7188 11.9689 26.9679 11.8738C27.2188 11.7779 27.4697 11.6821 27.7207 11.5865C27.8149 11.5506 27.9091 11.5146 28.0032 11.4786C28.1329 11.429 28.2627 11.3795 28.3925 11.3301C28.4304 11.3156 28.4684 11.301 28.5074 11.286C29.0493 11.0803 29.7186 10.9298 30.2668 11.2044ZM29.2515 12.4413C29.2017 12.4579 29.1518 12.4745 29.1004 12.4917C28.8366 12.5849 28.5754 12.6848 28.3147 12.7866C28.1702 12.843 28.0254 12.899 27.8807 12.955C27.8013 12.9857 27.7219 13.0165 27.6425 13.0472C27.1368 13.2431 26.63 13.4362 26.1232 13.6295C26.0224 13.6679 25.9215 13.7064 25.8206 13.7449C25.6672 13.8035 25.5138 13.862 25.3603 13.9206C25.006 14.0557 24.6518 14.191 24.2975 14.3264C23.394 14.6716 22.4903 15.0164 21.586 15.3595C21.5421 15.3762 21.4983 15.3928 21.453 15.41C21.4092 15.4266 21.3654 15.4432 21.3203 15.4604C20.636 15.7201 19.9526 15.9821 19.2697 16.2452C18.5426 16.5253 17.8149 16.8039 17.0863 17.0804C17.0425 17.097 16.9986 17.1137 16.9534 17.1309C16.9093 17.1476 16.8653 17.1642 16.82 17.1815C16.1583 17.4325 15.497 17.6845 14.8358 17.9371C14.7631 17.9649 14.7631 17.9649 14.6888 17.9932C14.4918 18.0685 14.2947 18.1438 14.0976 18.2191C13.7544 18.3502 13.4112 18.4813 13.0679 18.6123C12.9862 18.6435 12.9044 18.6747 12.8226 18.706C12.4003 18.8672 12.4003 18.8672 12.1944 18.9458C11.4563 19.2274 11.4563 19.2274 10.7189 19.5108C10.7189 19.5392 10.7189 19.5675 10.7189 19.5967C11.1849 19.7316 11.6511 19.8661 12.1174 20.0001C12.3339 20.0624 12.5503 20.1247 12.7667 20.1874C12.9756 20.2479 13.1846 20.308 13.3936 20.3679C13.4733 20.3908 13.553 20.4139 13.6326 20.437C13.7442 20.4694 13.8559 20.5014 13.9677 20.5333C14.0005 20.543 14.0333 20.5526 14.0671 20.5626C14.394 20.6549 14.6047 20.6386 14.907 20.4754C14.9375 20.4595 14.9679 20.4436 14.9993 20.4273C15.0982 20.3756 15.1966 20.3232 15.2951 20.2708C15.3634 20.235 15.4317 20.1992 15.5 20.1635C15.6021 20.1101 15.7042 20.0567 15.8062 20.0031C16.0709 19.864 16.3375 19.7291 16.6056 19.5967C16.9187 19.4415 17.2286 19.2811 17.5372 19.1171C17.8117 18.9718 18.0891 18.8326 18.3673 18.6944C18.6719 18.5431 18.9749 18.3897 19.2751 18.2298C19.6282 18.0418 19.9857 17.8628 20.3439 17.6846C20.7322 17.4915 21.1188 17.296 21.5015 17.092C21.8342 16.9154 22.1718 16.7487 22.509 16.581C22.817 16.4276 23.1223 16.27 23.426 16.1082C23.7651 15.9286 24.1088 15.7586 24.4525 15.5879C24.7668 15.4313 25.0778 15.2702 25.3859 15.1018C25.5989 14.9904 25.7799 14.9777 26.0158 14.9991C26.1965 15.057 26.2604 15.1107 26.3756 15.2623C26.4671 15.4466 26.4879 15.614 26.4455 15.8155C26.305 16.1558 25.988 16.4099 25.7296 16.6619C25.5964 16.7923 25.4732 16.9285 25.3528 17.0707C25.2497 17.1881 25.1373 17.2959 25.026 17.4055C24.9449 17.4879 24.8691 17.5727 24.7939 17.6605C24.6835 17.789 24.568 17.9094 24.4474 18.0284C24.3277 18.1465 24.2131 18.2659 24.1037 18.3936C23.964 18.5566 23.8133 18.7062 23.6606 18.8569C23.5753 18.9434 23.4952 19.0319 23.4162 19.1241C23.2765 19.2871 23.1258 19.4366 22.9731 19.5873C22.8878 19.6738 22.8077 19.7624 22.7287 19.8546C22.589 20.0176 22.4383 20.1671 22.2856 20.3178C22.2003 20.4043 22.1202 20.4928 22.0412 20.585C21.9015 20.748 21.7508 20.8976 21.5981 21.0483C21.5128 21.1348 21.4327 21.2233 21.3537 21.3155C21.214 21.4785 21.0633 21.628 20.9106 21.7788C20.8253 21.8653 20.7452 21.9538 20.6662 22.046C20.5567 22.1736 20.4421 22.2931 20.3224 22.4112C20.0687 22.6619 19.8413 22.9321 19.6134 23.2061C19.6484 23.2333 19.6833 23.2604 19.7193 23.2884C20.0097 23.5148 20.2967 23.7447 20.5802 23.9796C20.8 24.1616 21.021 24.3414 21.2463 24.5167C21.4715 24.6919 21.6925 24.8717 21.9123 25.0538C22.133 25.2366 22.355 25.4173 22.581 25.5936C22.9432 25.8761 23.2984 26.1669 23.6543 26.4574C23.9756 26.7195 24.2978 26.98 24.625 27.2348C24.7978 27.37 24.9673 27.5088 25.136 27.6491C25.6701 28.1301 25.6701 28.1301 26.3166 28.4053C26.6516 28.1246 26.6887 27.6994 26.7697 27.2887C26.7799 27.238 26.7901 27.1874 26.8006 27.1353C26.8285 26.9962 26.8562 26.8571 26.8839 26.7179C26.9136 26.5686 26.9436 26.4194 26.9736 26.2701C27.0251 26.0133 27.0765 25.7565 27.1277 25.4997C27.2088 25.0934 27.2902 24.6872 27.3717 24.281C27.3819 24.23 27.3819 24.23 27.3924 24.1781C27.42 24.0404 27.4476 23.9027 27.4752 23.7651C27.517 23.557 27.5587 23.3489 27.6005 23.1407C27.8385 21.9531 28.0791 20.766 28.3212 19.5792C28.3815 19.2839 28.4416 18.9884 28.5017 18.693C28.6685 17.8735 28.8355 17.054 29.0039 16.2348C29.0824 15.8524 29.1607 15.47 29.2388 15.0875C29.293 14.8223 29.3475 14.5572 29.4023 14.2922C29.4356 14.131 29.4685 13.9697 29.5012 13.8084C29.5163 13.7345 29.5316 13.6607 29.547 13.5869C29.6254 13.2111 29.6936 12.8503 29.6681 12.4639C29.5012 12.3704 29.4348 12.3801 29.2515 12.4413ZM22.2683 18.157C22.2224 18.1799 22.1764 18.2029 22.1291 18.2266C22.055 18.2641 22.055 18.2641 21.9794 18.3023C21.9281 18.3281 21.8768 18.3539 21.8255 18.3797C21.5054 18.5409 21.1874 18.706 20.871 18.8744C20.5831 19.0269 20.2919 19.1724 20.0002 19.3175C19.6777 19.4777 19.3566 19.6396 19.0387 19.8089C18.7033 19.9876 18.3639 20.158 18.0236 20.3272C17.6537 20.5111 17.2857 20.6979 16.9211 20.8923C16.4201 21.1579 15.9104 21.4071 15.4025 21.6592C15.4612 21.9487 15.5426 22.2215 15.6403 22.5C15.6554 22.5435 15.6705 22.587 15.686 22.6318C15.7354 22.7741 15.7851 22.9163 15.8349 23.0584C15.8693 23.1575 15.9038 23.2565 15.9383 23.3556C16.2107 24.1381 16.4867 24.9194 16.7643 25.7001C16.7864 25.7623 16.7864 25.7623 16.8089 25.8257C16.8362 25.9026 16.8636 25.9794 16.891 26.0562C16.9554 26.2371 17.0184 26.4182 17.0783 26.6007C17.197 26.4819 17.213 26.3483 17.2501 26.1896C17.2583 26.156 17.2664 26.1225 17.2747 26.0879C17.2924 26.0149 17.3098 25.942 17.3272 25.8689C17.3547 25.7533 17.3827 25.6377 17.4108 25.5222C17.4905 25.1936 17.5695 24.8648 17.6482 24.536C17.6963 24.3349 17.745 24.134 17.7939 23.9331C17.8124 23.8566 17.8308 23.78 17.8489 23.7034C17.8743 23.5961 17.9004 23.4888 17.9266 23.3816C17.9338 23.3502 17.9411 23.3187 17.9486 23.2862C18.0722 22.7893 18.4908 22.4338 18.8445 22.0857C18.9246 22.0044 18.9993 21.9204 19.0736 21.8338C19.184 21.7053 19.2995 21.5849 19.4201 21.4659C19.5398 21.3478 19.6544 21.2283 19.7638 21.1007C19.9035 20.9376 20.0542 20.7881 20.2069 20.6374C20.2922 20.5509 20.3723 20.4624 20.4513 20.3702C20.591 20.2072 20.7417 20.0576 20.8944 19.9069C20.9797 19.8204 21.0598 19.7319 21.1388 19.6397C21.2785 19.4767 21.4292 19.3272 21.5819 19.1765C21.6931 19.0637 21.7956 18.9451 21.8985 18.8248C21.9869 18.7259 22.0805 18.6339 22.1754 18.5413C22.3315 18.3876 22.4578 18.2325 22.5783 18.0499C22.4557 18.0499 22.3777 18.102 22.2683 18.157ZM19.0119 24.4522C18.9099 24.8596 18.8083 25.2671 18.7071 25.6747C18.6601 25.8639 18.613 26.0531 18.5656 26.2423C18.52 26.4247 18.4746 26.6072 18.4294 26.7898C18.4121 26.8595 18.3947 26.9292 18.3771 26.9989C18.3527 27.0963 18.3286 27.1938 18.3046 27.2912C18.2972 27.3203 18.2898 27.3493 18.2822 27.3792C18.2395 27.5299 18.2395 27.5299 18.2814 27.6749C18.3115 27.6442 18.3417 27.6136 18.3727 27.5821C18.5752 27.3773 18.7781 27.177 18.9971 26.9899C19.1373 26.8667 19.2732 26.739 19.4093 26.6114C19.6146 26.4192 19.82 26.2271 20.027 26.0367C20.0666 26.0002 20.1061 25.9638 20.1469 25.9262C20.2527 25.8319 20.3612 25.7428 20.4728 25.6553C20.4165 25.4864 20.3093 25.4226 20.172 25.3196C19.8865 25.1013 19.6092 24.8742 19.3346 24.6422C19.305 24.6174 19.2754 24.5927 19.2448 24.5672C19.2185 24.545 19.1922 24.5228 19.1651 24.4999C19.0999 24.4439 19.0999 24.4439 19.0119 24.4522Z" fill="white"/>
</g>
<defs>
<clipPath id="clip0_46_222">
<rect width="22" height="22" fill="white" transform="translate(9.00018 9.41309)"/>
</clipPath>
</defs>
</svg>
