<svg width="20" height="21" viewBox="0 0 20 21" fill="none" xmlns="http://www.w3.org/2000/svg">
<g clip-path="url(#clip0_2093_5632)">
<path d="M18.3198 2.51362C18.5623 2.71804 18.7849 2.93053 18.9839 3.17769C19.0116 3.21173 19.0393 3.24576 19.0678 3.28084C19.7017 4.08998 20.0156 5.04333 20.0142 6.06831C20.0141 6.10821 20.0141 6.10821 20.0141 6.14891C20.0077 7.89746 18.9985 9.02878 17.8204 10.2062C17.7213 10.3053 17.6224 10.4045 17.5234 10.5036C17.3301 10.6972 17.1367 10.8907 16.9433 11.0842C16.7859 11.2416 16.6286 11.399 16.4713 11.5564C16.0244 12.0037 15.5773 12.4509 15.1302 12.898C15.1061 12.9221 15.0821 12.9461 15.0573 12.9709C15.0333 12.9949 15.0092 13.019 14.9844 13.0438C14.5942 13.434 14.2042 13.8244 13.8142 14.2149C13.4128 14.6169 13.0112 15.0187 12.6095 15.4204C12.3844 15.6455 12.1593 15.8707 11.9344 16.096C11.743 16.2877 11.5515 16.4793 11.3598 16.6707C11.2622 16.7682 11.1647 16.8658 11.0673 16.9635C10.9614 17.0698 10.8551 17.1758 10.7489 17.2818C10.7035 17.3274 10.7035 17.3274 10.6573 17.3739C10.3565 17.6728 10.0323 17.9476 9.67725 18.1801C9.65264 18.1963 9.62803 18.2124 9.60268 18.2291C8.91869 18.6711 8.18329 18.9643 7.38233 19.1152C7.33641 19.124 7.29049 19.1328 7.24317 19.1419C5.5584 19.4051 3.84245 19.0484 2.45998 18.0524C2.17836 17.8443 1.92339 17.608 1.67921 17.3574C1.65745 17.3374 1.6357 17.3174 1.61329 17.2968C0.807942 16.5385 0.296027 15.4201 0.0776451 14.3496C0.0703721 14.3141 0.0630991 14.2786 0.0556057 14.2421C-0.00927151 13.8809 -0.0137134 13.5235 -0.0128109 13.1578C-0.0126879 13.054 -0.0136055 12.9503 -0.0145943 12.8465C-0.0167916 12.2633 0.0476013 11.7 0.22413 11.1416C0.239174 11.093 0.239174 11.093 0.254523 11.0435C0.704534 9.63322 1.65154 8.6668 2.67711 7.64344C2.78186 7.53891 2.88643 7.43421 2.99095 7.32946C3.07258 7.24769 3.15431 7.166 3.23607 7.08435C3.27465 7.04579 3.31321 7.0072 3.35174 6.96858C3.68673 6.63296 3.68673 6.63296 3.85791 6.48787C4.08528 6.29255 4.29122 6.07443 4.50101 5.86066C4.63631 5.72296 4.77224 5.58586 4.90804 5.44865C5.08006 5.27477 5.25188 5.10071 5.42311 4.92606C5.56227 4.78415 5.70199 4.64284 5.8421 4.50189C5.89513 4.44834 5.94793 4.39458 6.00052 4.3406C6.07415 4.26507 6.1485 4.19031 6.22304 4.11568C6.24429 4.09352 6.26555 4.07136 6.28745 4.04853C6.47431 3.86407 6.68458 3.77498 6.947 3.75523C7.21613 3.78724 7.38553 3.86861 7.56788 4.07368C7.71629 4.27569 7.74308 4.42441 7.7519 4.67015C7.68719 5.06227 7.37951 5.31002 7.11009 5.57457C7.06172 5.62263 7.0134 5.67073 6.9651 5.71886C6.86133 5.82214 6.75732 5.92517 6.65312 6.02801C6.488 6.19101 6.32349 6.35461 6.15906 6.51831C5.78001 6.89548 5.40019 7.27186 5.02035 7.64823C4.6726 7.99282 4.32503 8.33757 3.97809 8.68296C3.815 8.84527 3.65154 9.0072 3.48778 9.16883C3.38542 9.27001 3.2834 9.37152 3.18146 9.47311C3.13457 9.51972 3.08755 9.56619 3.04037 9.6125C2.06707 10.5686 1.62091 11.7469 1.60108 13.0996C1.59878 14.1291 1.94332 15.1662 2.61671 15.9511C2.64405 15.9832 2.67139 16.0153 2.69956 16.0483C3.26715 16.6966 3.96597 17.141 4.78956 17.3891C4.8147 17.3967 4.83984 17.4043 4.86575 17.4122C5.28381 17.5301 5.70676 17.5671 6.13966 17.5649C6.18552 17.5647 6.23138 17.5645 6.27863 17.5643C7.72419 17.545 8.77361 16.909 9.77581 15.9074C9.81006 15.8733 9.84431 15.8393 9.87959 15.8041C9.97349 15.7107 10.0673 15.6171 10.1611 15.5235C10.2627 15.4222 10.3644 15.3209 10.4661 15.2197C10.7109 14.9758 10.9555 14.7317 11.2001 14.4877C11.2693 14.4186 11.3384 14.3496 11.4076 14.2806C11.8383 13.8509 12.2689 13.4212 12.6993 12.9913C12.7986 12.892 12.898 12.7928 12.9974 12.6935C13.0221 12.6688 13.0468 12.6442 13.0722 12.6187C13.4726 12.2189 13.8733 11.8195 14.2741 11.4202C14.6866 11.0094 15.0987 10.5982 15.5105 10.1867C15.7413 9.95598 15.9723 9.72544 16.2037 9.49532C16.4007 9.29944 16.5973 9.10322 16.7936 8.90658C16.8935 8.80642 16.9936 8.70643 17.0942 8.60686C17.7839 7.92344 18.3576 7.2376 18.3738 6.21646C18.3722 5.40854 18.169 4.72558 17.6167 4.11519C17.5777 4.07077 17.5777 4.07077 17.538 4.02546C17.023 3.47233 16.299 3.14258 15.5482 3.08842C14.7754 3.06223 14.0433 3.30544 13.4547 3.80985C13.3577 3.90118 13.2634 3.99455 13.1697 4.08926C13.134 4.12471 13.0983 4.16017 13.0615 4.19671C12.9636 4.29392 12.8662 4.39161 12.7689 4.4894C12.6635 4.59523 12.5575 4.70061 12.4517 4.80606C12.2449 5.01216 12.0385 5.21869 11.8323 5.42537C11.6646 5.59337 11.4968 5.7612 11.3289 5.92893C11.305 5.95287 11.281 5.9768 11.2563 6.00146C11.2076 6.05009 11.159 6.09873 11.1103 6.14736C10.6547 6.60246 10.1997 7.05805 9.74474 7.5138C9.35467 7.90457 8.96418 8.29494 8.5734 8.685C8.11896 9.13861 7.66477 9.59246 7.21099 10.0467C7.16259 10.0952 7.11419 10.1436 7.0658 10.1921C7.04199 10.2159 7.01818 10.2397 6.99364 10.2643C6.82608 10.432 6.65834 10.5995 6.49052 10.767C6.28606 10.971 6.08187 11.1753 5.87804 11.3799C5.7741 11.4843 5.67004 11.5885 5.56564 11.6924C5.45239 11.8051 5.33977 11.9184 5.22719 12.0317C5.19422 12.0644 5.16125 12.097 5.12729 12.1306C4.87163 12.3897 4.70245 12.6376 4.67725 13.0092C4.68355 13.432 4.91901 13.7361 5.20704 14.0224C5.22826 14.0443 5.24949 14.0661 5.27136 14.0886C5.5205 14.3381 5.76156 14.47 6.11768 14.479C6.15525 14.4804 6.19281 14.4819 6.23151 14.4834C6.72622 14.4225 6.99958 14.0994 7.33163 13.7603C7.38853 13.7031 7.44549 13.6459 7.50249 13.5888C7.62473 13.4661 7.74659 13.343 7.86817 13.2197C8.06047 13.0246 8.25362 12.8303 8.4469 12.6362C8.82205 12.2592 9.19631 11.8813 9.57049 11.5033C10.0471 11.0219 10.5242 10.5409 11.0019 10.0607C11.194 9.86767 11.3855 9.67422 11.5768 9.48044C11.6958 9.36001 11.8152 9.2399 11.9346 9.11987C11.9898 9.06419 12.045 9.00837 12.1 8.9524C12.1751 8.87596 12.2507 8.80003 12.3264 8.72419C12.348 8.70199 12.3696 8.67979 12.3918 8.65692C12.5767 8.47355 12.775 8.35636 13.044 8.35591C13.309 8.36556 13.5 8.4619 13.686 8.64888C13.8228 8.82383 13.8618 9.01319 13.8667 9.23237C13.8143 9.63937 13.4639 9.91462 13.1876 10.1887C13.1602 10.2161 13.1328 10.2434 13.1045 10.2716C13.0456 10.3305 12.9865 10.3893 12.9274 10.448C12.8337 10.5412 12.7401 10.6346 12.6466 10.728C12.4143 10.9597 12.1817 11.1913 11.9492 11.4229C11.7524 11.619 11.5556 11.8151 11.3589 12.0114C11.2671 12.103 11.1752 12.1944 11.0833 12.2858C11.0265 12.3425 10.9697 12.3991 10.913 12.4557C10.8877 12.4808 10.8625 12.5058 10.8365 12.5316C10.6901 12.678 10.5521 12.8292 10.4167 12.9858C10.3184 13.0977 10.2144 13.2035 10.1094 13.3091C10.0869 13.3319 10.0644 13.3546 10.0413 13.378C9.96797 13.4521 9.8945 13.526 9.82099 13.5999C9.78289 13.6382 9.78289 13.6382 9.74401 13.6774C9.60956 13.8126 9.47498 13.9478 9.3403 14.0828C9.20248 14.2211 9.06511 14.3598 8.92785 14.4986C8.82107 14.6064 8.71393 14.7139 8.60671 14.8212C8.55597 14.8722 8.50536 14.9232 8.45489 14.9744C8.03428 15.4007 7.60225 15.7796 7.03077 15.9902C6.99754 16.0026 6.9643 16.0151 6.93006 16.0279C6.25481 16.2372 5.48244 16.1412 4.85792 15.8315C4.57676 15.6702 4.33835 15.4669 4.10108 15.248C4.0684 15.2181 4.03572 15.1882 4.00205 15.1574C3.40061 14.5817 3.05793 13.8719 3.03663 13.0385C3.04752 11.8973 3.71342 11.1973 4.47366 10.4415C4.5786 10.337 4.68307 10.2321 4.78761 10.1272C4.99193 9.92231 5.19667 9.71786 5.40155 9.51357C5.64062 9.27516 5.8793 9.03635 6.11797 8.79754C6.54412 8.37116 6.97067 7.94516 7.39742 7.51937C7.81059 7.10714 8.22344 6.69457 8.63594 6.28166C9.08615 5.83099 9.53656 5.38052 9.98728 4.93036C10.0354 4.88227 10.0836 4.83417 10.1317 4.78608C10.1673 4.75059 10.1673 4.75059 10.2035 4.71439C10.3696 4.54846 10.5356 4.3824 10.7016 4.21629C10.9041 4.01358 11.1068 3.81108 11.3098 3.60885C11.4132 3.50586 11.5165 3.40278 11.6195 3.29945C12.5951 2.32123 12.5951 2.32123 13.1538 2.01558C13.1795 2.00135 13.2053 1.98711 13.2318 1.97245C14.865 1.09953 16.9062 1.33835 18.3198 2.51362Z" fill="#6A7B61"/>
</g>
<defs>
<clipPath id="clip0_2093_5632">
<rect width="20" height="20" fill="white" transform="translate(0 0.326172)"/>
</clipPath>
</defs>
</svg>
