<svg width="41" height="40" viewBox="0 0 41 40" fill="none" xmlns="http://www.w3.org/2000/svg">
<path d="M8.58062 12.1311C8.65087 12.1307 8.72113 12.1304 8.79352 12.1301C8.86931 12.13 8.9451 12.1299 9.0209 12.1299C9.09973 12.1297 9.17856 12.1295 9.25738 12.1294C9.42223 12.129 9.58708 12.129 9.75193 12.129C9.96182 12.129 10.1717 12.1283 10.3816 12.1274C10.5443 12.1268 10.7071 12.1267 10.8698 12.1267C10.9471 12.1266 11.0245 12.1264 11.1018 12.126C11.8136 12.1226 12.4881 12.157 13.0452 12.6316C13.3532 12.9614 13.5287 13.3934 13.7021 13.7978C14.1002 14.6992 14.5593 15.5736 15.1402 16.3798C15.1728 16.4253 15.1728 16.4253 15.2061 16.4718C15.6796 17.2251 15.6796 17.2251 16.3397 17.7411C16.3577 16.9808 16.3757 16.2206 16.3942 15.4373C16.2323 15.3855 16.2323 15.3855 16.0671 15.3326C15.6838 15.0726 15.3463 14.7376 15.2492 14.2854C15.1953 13.6858 15.2397 13.2306 15.6479 12.7539C16.0472 12.3426 16.4559 12.1608 17.0481 12.1337C17.1683 12.1316 17.2885 12.131 17.4087 12.1311C17.4541 12.1309 17.4994 12.1307 17.5462 12.1305C17.6952 12.13 17.8443 12.1299 17.9933 12.1299C18.0977 12.1297 18.2021 12.1295 18.3064 12.1294C18.525 12.129 18.7435 12.129 18.962 12.129C19.2407 12.129 19.5194 12.1283 19.7981 12.1274C20.0137 12.1268 20.2292 12.1267 20.4448 12.1267C20.5475 12.1266 20.6501 12.1264 20.7528 12.126C22.3216 12.1204 22.3216 12.1204 22.9271 12.643C23.3392 13.0695 23.4364 13.5643 23.4347 14.1303C23.4349 14.1918 23.4349 14.1918 23.435 14.2545C23.4352 14.343 23.4354 14.4316 23.4354 14.5201C23.4356 14.7085 23.4367 14.8968 23.4378 15.0852C23.4399 15.4355 23.4416 15.7858 23.4415 16.136C23.4415 16.3802 23.4427 16.6243 23.4449 16.8684C23.4455 16.9613 23.4455 17.0541 23.4451 17.147C23.4446 17.2769 23.4457 17.4066 23.4473 17.5365C23.4467 17.5747 23.4462 17.6129 23.4456 17.6523C23.4499 17.8558 23.4763 17.9433 23.6109 18.1038C23.7801 18.2312 23.867 18.2689 24.0821 18.2647C24.433 18.1009 24.5769 17.825 24.7671 17.5087C24.8349 17.399 24.9027 17.2892 24.9705 17.1795C25.0044 17.1242 25.0383 17.0689 25.0732 17.0119C25.2188 16.7762 25.3693 16.5436 25.5202 16.311C25.5787 16.2206 25.6371 16.1301 25.6955 16.0396C25.7254 15.9933 25.7554 15.9469 25.7862 15.8991C25.9627 15.6255 26.1385 15.3514 26.3142 15.0773C26.3508 15.0203 26.3874 14.9633 26.4251 14.9046C26.6059 14.6225 26.7857 14.3399 26.9636 14.0561C27.9396 12.4992 27.9396 12.4992 28.6145 12.227C28.9152 12.158 29.2092 12.1321 29.5179 12.1311C29.5882 12.1307 29.6584 12.1304 29.7308 12.1301C29.8066 12.13 29.8824 12.1299 29.9582 12.1299C30.037 12.1297 30.1158 12.1295 30.1947 12.1294C30.3595 12.129 30.5244 12.129 30.6892 12.129C30.8991 12.129 31.109 12.1283 31.3189 12.1274C31.4816 12.1268 31.6444 12.1267 31.8071 12.1267C31.8844 12.1266 31.9617 12.1264 32.0391 12.126C32.7576 12.1226 33.463 12.155 34.0055 12.6623C34.4197 13.1809 34.493 13.6478 34.4417 14.2854C34.3404 14.7179 33.9991 15.0839 33.7329 15.4373C33.678 15.5106 33.6232 15.584 33.5683 15.6574C33.4181 15.8578 33.2672 16.0578 33.1162 16.2577C32.9671 16.4553 32.8184 16.6531 32.6697 16.851C32.6106 16.9295 32.5516 17.0081 32.4925 17.0866C32.4633 17.1255 32.434 17.1644 32.4039 17.2044C32.1381 17.5578 32.1381 17.5578 32.0494 17.6757C31.9906 17.754 31.9317 17.8323 31.8729 17.9106C31.7222 18.1111 31.5712 18.3114 31.4197 18.5113C31.2711 18.7075 31.1234 18.9043 30.9765 19.1017C30.9261 19.1691 30.8754 19.2364 30.8244 19.3034C30.7605 19.3874 30.6978 19.4723 30.6353 19.5573C30.5841 19.6256 30.5841 19.6256 30.532 19.6953C30.4373 19.8835 30.4305 19.9945 30.4615 20.202C30.5389 20.351 30.6391 20.479 30.7443 20.611C30.7884 20.6686 30.7884 20.6686 30.8335 20.7274C30.8957 20.8085 30.9582 20.8894 31.0211 20.9701C31.1424 21.1264 31.2609 21.2847 31.3793 21.4431C31.4677 21.5613 31.5565 21.6792 31.6455 21.7971C31.8236 22.0331 32.0013 22.2694 32.179 22.5057C32.238 22.5843 32.2971 22.6628 32.3562 22.7414C32.4743 22.8984 32.5925 23.0555 32.7106 23.2126C32.7545 23.271 32.7545 23.271 32.7993 23.3305C32.8581 23.4087 32.9169 23.487 32.9757 23.5652C33.1269 23.7665 33.2785 23.9675 33.4309 24.1679C34.5734 25.6735 34.5734 25.6735 34.4417 26.5897C34.3051 27.0277 34.0335 27.3982 33.6239 27.6369C33.1204 27.8756 32.6274 27.8772 32.0802 27.8742C31.9895 27.8743 31.8989 27.8745 31.8083 27.8748C31.6193 27.8751 31.4304 27.8746 31.2414 27.8737C31.0007 27.8725 30.76 27.8732 30.5193 27.8744C30.3325 27.8752 30.1457 27.8749 29.9588 27.8744C29.8701 27.8742 29.7815 27.8744 29.6928 27.8749C28.9883 27.878 28.4105 27.8102 27.8839 27.323C27.5848 27.0167 27.3268 26.6744 27.0638 26.3396C26.932 26.1726 26.7971 26.008 26.6618 25.8436C26.6133 25.7845 26.5648 25.7253 26.5163 25.6661C26.4926 25.6372 26.4689 25.6083 26.4445 25.5785C26.3203 25.427 26.1963 25.2753 26.0723 25.1237C26.0223 25.0626 25.9723 25.0015 25.9223 24.9404C25.6224 24.5739 25.6224 24.5739 25.5474 24.4822C25.4977 24.4214 25.448 24.3607 25.3983 24.3C25.2691 24.1421 25.14 23.9842 25.0112 23.8262C24.9713 23.7773 24.9713 23.7773 24.9306 23.7274C24.8802 23.6657 24.8299 23.6039 24.7796 23.5421C24.4888 23.1314 24.4888 23.1314 24.0821 22.8723C23.8751 22.8765 23.7765 22.9091 23.6103 23.029C23.4363 23.2431 23.4452 23.3954 23.4496 23.6595C23.4491 23.7053 23.4487 23.7511 23.4482 23.7982C23.447 23.9445 23.4475 24.0906 23.4483 24.2369C23.4498 25.2553 23.3968 26.0821 22.6304 26.8646C21.775 27.64 20.7593 27.8881 19.6148 27.8623C18.5021 27.8136 17.5979 27.2534 16.7214 26.6421C16.6863 26.6178 16.6512 26.5936 16.615 26.5686C16.3762 26.4033 16.1392 26.2356 15.9035 26.0662C15.8728 26.0441 15.8421 26.022 15.8105 25.9993C15.3548 25.6706 14.9174 25.324 14.4859 24.9666C14.4468 24.9344 14.4077 24.9022 14.3675 24.8691C13.8312 24.4232 13.3153 23.9571 12.8139 23.4755C12.7306 23.3956 12.6469 23.3162 12.5632 23.2367C12.2557 22.9431 11.9703 22.6433 11.7008 22.3166C11.6019 22.1985 11.4988 22.0867 11.3916 21.9756C9.58742 20.0441 8.23845 17.6822 7.03311 15.3784C7.01389 15.3418 6.99467 15.3051 6.97487 15.2674C6.91997 15.1626 6.86541 15.0576 6.81096 14.9526C6.76376 14.8617 6.76376 14.8617 6.71561 14.7691C6.47205 14.2607 6.42854 13.7185 6.61736 13.1826C6.79758 12.7741 7.08775 12.4896 7.50572 12.2988C7.85531 12.1644 8.2052 12.1323 8.58062 12.1311ZM7.83393 13.5C7.70579 13.6699 7.71278 13.8183 7.72488 14.0236C7.77228 14.1628 7.77228 14.1628 7.845 14.2983C7.87114 14.3501 7.89728 14.402 7.92421 14.4554C7.95289 14.5105 7.98158 14.5657 8.01113 14.6225C8.04073 14.6803 8.07033 14.7382 8.10083 14.7978C8.19272 14.9765 8.28573 15.1546 8.37917 15.3326C8.40653 15.3849 8.43389 15.4372 8.46208 15.4911C8.87483 16.2767 9.32529 17.0392 9.7968 17.7934C9.83324 17.8518 9.83324 17.8518 9.87041 17.9113C10.474 18.8718 11.1428 19.7945 11.8687 20.6732C11.9322 20.75 11.9322 20.75 11.9969 20.8284C12.4555 21.3737 12.927 21.9135 13.451 22.4021C13.5578 22.5046 13.6556 22.6111 13.7532 22.7217C13.911 22.8984 14.0817 23.048 14.2665 23.1983C14.3784 23.2924 14.4813 23.3914 14.5847 23.494C14.7941 23.6979 15.0191 23.8767 15.2516 24.0557C15.3883 24.1622 15.5219 24.2713 15.6548 24.3822C16.3421 24.9526 17.0869 25.4509 17.8391 25.9385C17.8925 25.9734 17.9458 26.0083 18.0007 26.0443C18.8231 26.5712 19.5962 26.8081 20.5787 26.6358C21.1394 26.4903 21.7008 26.2038 22.0111 25.7175C22.1664 25.4446 22.2053 25.2264 22.2032 24.9181C22.2038 24.8748 22.2045 24.8314 22.2051 24.7867C22.207 24.6492 22.2076 24.5118 22.2079 24.3743C22.2187 22.7189 22.2187 22.7189 22.7056 22.193C23.0648 21.8649 23.4475 21.7116 23.9424 21.6942C24.4638 21.713 24.8798 21.8584 25.2582 22.2069C25.4941 22.4592 25.7032 22.7307 25.914 23.0023C26.0912 23.2302 26.2762 23.451 26.4642 23.6707C26.7219 23.9728 26.9729 24.2788 27.2196 24.5893C27.4107 24.8295 27.6058 25.0665 27.8006 25.3039C27.9046 25.4305 28.008 25.5575 28.1112 25.6847C28.5294 26.2868 28.5294 26.2868 29.0984 26.6945C29.2165 26.6999 29.3347 26.7022 29.453 26.7029C29.4887 26.7032 29.5245 26.7034 29.5613 26.7037C29.6795 26.7045 29.7976 26.7048 29.9158 26.7051C29.998 26.7054 30.0803 26.7057 30.1625 26.706C30.3349 26.7066 30.5074 26.7069 30.6798 26.707C30.9005 26.7073 31.1212 26.7086 31.3418 26.7101C31.5117 26.7111 31.6816 26.7113 31.8515 26.7114C31.9329 26.7116 32.0142 26.712 32.0955 26.7127C32.2095 26.7136 32.3234 26.7135 32.4373 26.7131C32.5021 26.7133 32.5668 26.7135 32.6336 26.7137C32.8688 26.6875 33.0092 26.6017 33.1775 26.4458C33.273 26.2719 33.2633 26.157 33.2422 25.9614C33.1657 25.812 33.0645 25.6844 32.9594 25.5524C32.9152 25.4948 32.9152 25.4948 32.8702 25.436C32.808 25.3548 32.7455 25.2739 32.6826 25.1933C32.5612 25.037 32.4428 24.8787 32.3244 24.7203C32.236 24.6021 32.1472 24.4842 32.0582 24.3663C31.8801 24.1303 31.7024 23.894 31.5247 23.6576C31.4656 23.5791 31.4066 23.5006 31.3475 23.422C31.2294 23.265 31.1112 23.1079 30.9931 22.9508C30.9492 22.8924 30.9492 22.8924 30.9044 22.8329C30.8456 22.7547 30.7868 22.6764 30.728 22.5982C30.5768 22.3969 30.4251 22.1959 30.2728 21.9955C29.149 20.5146 29.149 20.5146 29.2208 19.8082C29.3121 19.3034 29.5705 18.9321 29.889 18.5297C29.9577 18.4416 30.0263 18.3534 30.0949 18.2651C30.1291 18.2211 30.1634 18.1771 30.1986 18.1318C30.3451 17.9415 30.4871 17.7484 30.6285 17.5546C30.9388 17.1298 31.2545 16.7091 31.5715 16.289C31.7489 16.0538 31.9258 15.8183 32.1028 15.5828C32.2569 15.3777 32.4113 15.1729 32.5662 14.9683C32.5983 14.9258 32.6305 14.8832 32.6636 14.8394C32.7251 14.758 32.7866 14.6768 32.8483 14.5956C33.1198 14.2599 33.1198 14.2599 33.2695 13.8698C33.2311 13.644 33.1353 13.5582 32.9696 13.3953C32.8128 13.32 32.6773 13.3354 32.5021 13.3345C32.4653 13.3342 32.4285 13.334 32.3906 13.3337C32.2686 13.3329 32.1466 13.3326 32.0246 13.3323C31.9398 13.332 31.855 13.3317 31.7703 13.3314C31.5924 13.3308 31.4145 13.3305 31.2366 13.3304C31.0089 13.3301 30.7812 13.3288 30.5535 13.3273C30.3783 13.3263 30.2031 13.3261 30.028 13.326C29.944 13.3258 29.8601 13.3254 29.7762 13.3247C29.6586 13.3238 29.541 13.3239 29.4234 13.3243C29.3566 13.3241 29.2897 13.3239 29.2208 13.3237C29.0274 13.3447 28.9263 13.3894 28.7712 13.5C28.6778 13.6105 28.6778 13.6105 28.6025 13.7401C28.5726 13.7883 28.5427 13.8364 28.5119 13.886C28.4805 13.9379 28.4492 13.9898 28.4168 14.0432C28.3486 14.1535 28.2803 14.2637 28.2119 14.374C28.1777 14.4296 28.1434 14.4852 28.1081 14.5425C27.962 14.7783 27.8114 15.0113 27.6603 15.2442C27.6017 15.3349 27.5431 15.4256 27.4846 15.5162C27.4546 15.5626 27.4247 15.609 27.3938 15.6568C27.2197 15.9269 27.0464 16.1975 26.8731 16.4681C26.8369 16.5246 26.8007 16.5811 26.7634 16.6392C26.5912 16.9078 26.4193 17.1765 26.2484 17.4457C26.17 17.5691 26.0915 17.6924 26.013 17.8157C25.9581 17.902 25.9035 17.9884 25.8489 18.0748C25.142 19.1841 25.142 19.1841 24.4813 19.3918C23.9814 19.4896 23.4971 19.4365 23.0462 19.2071C22.7423 19.0087 22.5504 18.7903 22.3919 18.4741C22.3705 18.432 22.3492 18.3899 22.3271 18.3465C22.223 18.0311 22.2204 17.6987 22.2214 17.3703C22.2213 17.3104 22.2213 17.3104 22.2211 17.2492C22.2209 17.1632 22.2208 17.0771 22.2208 16.9911C22.2206 16.7604 22.2189 16.5298 22.2175 16.2991C22.2158 16.0064 22.2146 15.7137 22.2147 15.4211C22.2147 15.1836 22.2134 14.9462 22.2113 14.7087C22.2107 14.6185 22.2106 14.5282 22.211 14.438C22.2116 14.3119 22.2104 14.1859 22.2089 14.0599C22.2094 14.0228 22.21 13.9857 22.2106 13.9475C22.2061 13.7444 22.1789 13.663 22.0421 13.5043C21.8057 13.3215 21.622 13.3349 21.3286 13.3345C21.2806 13.3342 21.2327 13.334 21.1832 13.3337C21.024 13.3329 20.8649 13.3326 20.7057 13.3323C20.5953 13.332 20.4848 13.3317 20.3744 13.3314C20.1426 13.3308 19.9108 13.3305 19.679 13.3304C19.382 13.3301 19.085 13.3288 18.7879 13.3273C18.5597 13.3263 18.3315 13.3261 18.1033 13.326C17.9938 13.3258 17.8843 13.3254 17.7748 13.3247C17.6216 13.3238 17.4684 13.3239 17.3151 13.3243C17.2472 13.3236 17.2472 13.3236 17.178 13.3228C16.9258 13.3246 16.7638 13.3447 16.5578 13.5C16.4308 13.6684 16.4191 13.8199 16.4488 14.0236C16.5483 14.1767 16.6597 14.3081 16.8304 14.3901C16.9599 14.3938 17.0894 14.3945 17.2189 14.3934C17.2888 14.3929 17.3586 14.3924 17.4306 14.392C17.4845 14.3914 17.5383 14.3907 17.5938 14.3901C17.5904 14.8403 17.5862 15.2904 17.5809 15.7406C17.5785 15.9496 17.5763 16.1587 17.5749 16.3678C17.5734 16.5698 17.5712 16.7718 17.5685 16.9738C17.5676 17.0506 17.567 17.1274 17.5666 17.2042C17.5643 17.6733 17.5409 18.0442 17.2905 18.4578C16.9762 18.7441 16.6561 18.8576 16.2238 18.8701C15.7479 18.8498 15.5059 18.7389 15.1811 18.4087C14.5893 17.741 14.0871 17.0232 13.6135 16.275C13.5936 16.2442 13.5736 16.2134 13.5531 16.1816C13.1751 15.5955 12.8947 14.9628 12.5973 14.3367C12.5015 14.1356 12.4051 13.9348 12.3049 13.7356C12.2779 13.6811 12.2509 13.6266 12.2231 13.5704C12.1286 13.4286 12.0854 13.4011 11.9232 13.3429C11.7488 13.3267 11.7488 13.3267 11.5525 13.3286C11.4972 13.3282 11.4972 13.3282 11.4409 13.3277C11.3195 13.327 11.1981 13.3271 11.0766 13.3272C10.992 13.327 10.9074 13.3268 10.8228 13.3265C10.6456 13.3261 10.4683 13.3261 10.2911 13.3264C10.0642 13.3267 9.8374 13.3258 9.61055 13.3246C9.43584 13.3238 9.26114 13.3238 9.08643 13.324C9.0028 13.3239 8.91917 13.3237 8.83554 13.3231C8.71848 13.3225 8.60146 13.3228 8.4844 13.3234C8.41786 13.3234 8.35132 13.3234 8.28276 13.3233C8.09045 13.3447 7.98842 13.3902 7.83393 13.5Z" fill="#6A7B61"/>
</svg>
