<svg width="40" height="41" viewBox="0 0 40 41" fill="none" xmlns="http://www.w3.org/2000/svg">
<path d="M8.08062 12.5442C8.15087 12.5438 8.22113 12.5435 8.29352 12.5432C8.36931 12.5431 8.4451 12.543 8.5209 12.543C8.59973 12.5428 8.67856 12.5426 8.75738 12.5424C8.92223 12.5421 9.08708 12.542 9.25193 12.5421C9.46182 12.5421 9.6717 12.5414 9.88159 12.5405C10.0443 12.5399 10.2071 12.5398 10.3698 12.5398C10.4471 12.5397 10.5245 12.5395 10.6018 12.5391C11.3136 12.5357 11.9881 12.5701 12.5452 13.0446C12.8532 13.3744 13.0287 13.8065 13.2021 14.2109C13.6002 15.1123 14.0593 15.9867 14.6402 16.7928C14.6728 16.8384 14.6728 16.8384 14.7061 16.8849C15.1796 17.6382 15.1796 17.6382 15.8397 18.1542C15.8577 17.3939 15.8757 16.6337 15.8942 15.8504C15.7323 15.7985 15.7323 15.7985 15.5671 15.7457C15.1838 15.4856 14.8463 15.1507 14.7492 14.6985C14.6953 14.0989 14.7397 13.6437 15.1479 13.167C15.5472 12.7557 15.9559 12.5739 16.5481 12.5468C16.6683 12.5446 16.7885 12.5441 16.9087 12.5442C16.9541 12.544 16.9994 12.5438 17.0462 12.5436C17.1952 12.5431 17.3443 12.543 17.4933 12.543C17.5977 12.5428 17.7021 12.5426 17.8064 12.5424C18.025 12.5421 18.2435 12.542 18.462 12.5421C18.7407 12.5421 19.0194 12.5414 19.2981 12.5405C19.5137 12.5399 19.7292 12.5398 19.9448 12.5398C20.0475 12.5397 20.1501 12.5395 20.2528 12.5391C21.8216 12.5335 21.8216 12.5335 22.4271 13.0561C22.8392 13.4826 22.9364 13.9773 22.9347 14.5434C22.9349 14.6049 22.9349 14.6049 22.935 14.6676C22.9352 14.7561 22.9354 14.8446 22.9354 14.9332C22.9356 15.1216 22.9367 15.3099 22.9378 15.4983C22.9399 15.8486 22.9416 16.1988 22.9415 16.5491C22.9415 16.7933 22.9427 17.0374 22.9449 17.2815C22.9455 17.3744 22.9455 17.4672 22.9451 17.5601C22.9446 17.69 22.9457 17.8197 22.9473 17.9496C22.9467 17.9878 22.9462 18.026 22.9456 18.0654C22.9499 18.2689 22.9763 18.3563 23.1109 18.5169C23.2801 18.6443 23.367 18.682 23.5821 18.6778C23.933 18.514 24.0769 18.2381 24.2671 17.9218C24.3349 17.812 24.4027 17.7023 24.4705 17.5925C24.5044 17.5372 24.5383 17.482 24.5732 17.425C24.7188 17.1893 24.8693 16.9567 25.0202 16.7241C25.0787 16.6337 25.1371 16.5432 25.1955 16.4527C25.2254 16.4064 25.2554 16.36 25.2862 16.3122C25.4627 16.0386 25.6385 15.7645 25.8142 15.4904C25.8508 15.4334 25.8874 15.3764 25.9251 15.3177C26.1059 15.0356 26.2857 14.753 26.4636 14.4692C27.4396 12.9123 27.4396 12.9123 28.1145 12.6401C28.4152 12.5711 28.7092 12.5452 29.0179 12.5442C29.0882 12.5438 29.1584 12.5435 29.2308 12.5432C29.3066 12.5431 29.3824 12.543 29.4582 12.543C29.537 12.5428 29.6158 12.5426 29.6947 12.5424C29.8595 12.5421 30.0244 12.542 30.1892 12.5421C30.3991 12.5421 30.609 12.5414 30.8189 12.5405C30.9816 12.5399 31.1444 12.5398 31.3071 12.5398C31.3844 12.5397 31.4617 12.5395 31.5391 12.5391C32.2576 12.5357 32.963 12.5681 33.5055 13.0754C33.9197 13.594 33.993 14.0609 33.9417 14.6985C33.8404 15.131 33.4991 15.497 33.2329 15.8504C33.178 15.9237 33.1232 15.9971 33.0683 16.0705C32.9181 16.2709 32.7672 16.4709 32.6162 16.6708C32.4671 16.8684 32.3184 17.0662 32.1697 17.2641C32.1106 17.3426 32.0516 17.4212 31.9925 17.4997C31.9633 17.5386 31.934 17.5774 31.9039 17.6175C31.6381 17.9709 31.6381 17.9709 31.5494 18.0888C31.4906 18.1671 31.4317 18.2454 31.3729 18.3236C31.2222 18.5242 31.0712 18.7245 30.9197 18.9244C30.7711 19.1206 30.6234 19.3174 30.4765 19.5148C30.4261 19.5822 30.3754 19.6495 30.3244 19.7165C30.2605 19.8005 30.1978 19.8854 30.1353 19.9704C30.0841 20.0387 30.0841 20.0387 30.032 20.1084C29.9373 20.2966 29.9305 20.4076 29.9615 20.615C30.0389 20.7641 30.1391 20.8921 30.2443 21.0241C30.2884 21.0817 30.2884 21.0817 30.3335 21.1405C30.3957 21.2216 30.4582 21.3025 30.5211 21.3832C30.6424 21.5395 30.7609 21.6978 30.8793 21.8562C30.9677 21.9744 31.0565 22.0923 31.1455 22.2101C31.3236 22.4462 31.5013 22.6825 31.679 22.9188C31.738 22.9974 31.7971 23.0759 31.8562 23.1545C31.9743 23.3115 32.0925 23.4686 32.2106 23.6257C32.2545 23.684 32.2545 23.684 32.2993 23.7436C32.3581 23.8218 32.4169 23.9 32.4757 23.9783C32.6269 24.1796 32.7785 24.3805 32.9309 24.581C34.0734 26.0866 34.0734 26.0866 33.9417 27.0028C33.8051 27.4407 33.5335 27.8113 33.1239 28.05C32.6204 28.2887 32.1274 28.2903 31.5802 28.2873C31.4895 28.2874 31.3989 28.2876 31.3083 28.2879C31.1193 28.2882 30.9304 28.2877 30.7414 28.2867C30.5007 28.2856 30.26 28.2862 30.0193 28.2875C29.8325 28.2883 29.6457 28.288 29.4588 28.2875C29.3701 28.2873 29.2815 28.2875 29.1928 28.288C28.4883 28.291 27.9105 28.2233 27.3839 27.7361C27.0848 27.4298 26.8268 27.0875 26.5638 26.7527C26.432 26.5857 26.2971 26.4211 26.1618 26.2567C26.1133 26.1975 26.0648 26.1384 26.0163 26.0792C25.9926 26.0503 25.9689 26.0213 25.9445 25.9915C25.8203 25.84 25.6963 25.6884 25.5723 25.5368C25.5223 25.4757 25.4723 25.4146 25.4223 25.3535C25.1224 24.987 25.1224 24.987 25.0474 24.8953C24.9977 24.8345 24.948 24.7738 24.8983 24.713C24.7691 24.5552 24.64 24.3973 24.5112 24.2393C24.4713 24.1904 24.4713 24.1904 24.4306 24.1405C24.3802 24.0787 24.3299 24.017 24.2796 23.9552C23.9888 23.5444 23.9888 23.5444 23.5821 23.2853C23.3751 23.2896 23.2765 23.3222 23.1103 23.4421C22.9363 23.6562 22.9452 23.8085 22.9496 24.0726C22.9491 24.1184 22.9487 24.1641 22.9482 24.2113C22.947 24.3576 22.9475 24.5037 22.9483 24.65C22.9498 25.6684 22.8968 26.4951 22.1304 27.2777C21.275 28.0531 20.2593 28.3012 19.1148 28.2754C18.0021 28.2267 17.0979 27.6665 16.2214 27.0552C16.1863 27.0309 16.1512 27.0067 16.115 26.9817C15.8762 26.8164 15.6392 26.6487 15.4035 26.4792C15.3728 26.4572 15.3421 26.4351 15.3105 26.4124C14.8548 26.0837 14.4174 25.7371 13.9859 25.3797C13.9468 25.3475 13.9077 25.3153 13.8675 25.2821C13.3312 24.8363 12.8153 24.3701 12.3139 23.8885C12.2306 23.8087 12.1469 23.7292 12.0632 23.6498C11.7557 23.3562 11.4703 23.0563 11.2008 22.7297C11.1019 22.6116 10.9988 22.4998 10.8916 22.3887C9.08742 20.4571 7.73845 18.0953 6.53311 15.7915C6.51389 15.7549 6.49467 15.7182 6.47487 15.6805C6.41997 15.5757 6.36541 15.4707 6.31096 15.3657C6.26376 15.2748 6.26376 15.2748 6.21561 15.1822C5.97205 14.6737 5.92854 14.1316 6.11736 13.5957C6.29758 13.1872 6.58775 12.9027 7.00572 12.7119C7.35531 12.5775 7.7052 12.5454 8.08062 12.5442ZM7.33393 13.9131C7.20579 14.083 7.21278 14.2314 7.22488 14.4367C7.27228 14.5759 7.27228 14.5759 7.345 14.7114C7.37114 14.7632 7.39728 14.815 7.42421 14.8685C7.45289 14.9236 7.48158 14.9787 7.51113 15.0355C7.54073 15.0934 7.57033 15.1513 7.60083 15.2109C7.69272 15.3896 7.78573 15.5677 7.87917 15.7457C7.90653 15.798 7.93389 15.8503 7.96208 15.9042C8.37483 16.6898 8.82529 17.4523 9.2968 18.2065C9.33324 18.2649 9.33324 18.2649 9.37041 18.3244C9.974 19.2849 10.6428 20.2075 11.3687 21.0863C11.4322 21.1631 11.4322 21.1631 11.4969 21.2415C11.9555 21.7868 12.427 22.3266 12.951 22.8151C13.0578 22.9177 13.1556 23.0242 13.2532 23.1348C13.411 23.3115 13.5817 23.4611 13.7665 23.6114C13.8784 23.7055 13.9813 23.8045 14.0847 23.9071C14.2941 24.1109 14.5191 24.2898 14.7516 24.4687C14.8883 24.5752 15.0219 24.6844 15.1548 24.7952C15.8421 25.3657 16.5869 25.864 17.3391 26.3516C17.3925 26.3865 17.4458 26.4214 17.5007 26.4574C18.3231 26.9843 19.0962 27.2212 20.0787 27.0489C20.6394 26.9034 21.2008 26.6168 21.5111 26.1306C21.6664 25.8577 21.7053 25.6395 21.7032 25.3312C21.7038 25.2879 21.7045 25.2445 21.7051 25.1998C21.707 25.0623 21.7076 24.9249 21.7079 24.7874C21.7187 23.132 21.7187 23.132 22.2056 22.6061C22.5648 22.278 22.9475 22.1247 23.4424 22.1073C23.9638 22.1261 24.3798 22.2715 24.7582 22.62C24.9941 22.8723 25.2032 23.1438 25.414 23.4154C25.5912 23.6432 25.7762 23.8641 25.9642 24.0838C26.2219 24.3859 26.4729 24.6919 26.7196 25.0024C26.9107 25.2425 27.1058 25.4796 27.3006 25.717C27.4046 25.8436 27.508 25.9706 27.6112 26.0978C28.0294 26.6999 28.0294 26.6999 28.5984 27.1075C28.7165 27.113 28.8347 27.1153 28.953 27.116C28.9887 27.1162 29.0245 27.1165 29.0613 27.1168C29.1795 27.1175 29.2976 27.1179 29.4158 27.1182C29.498 27.1185 29.5803 27.1188 29.6625 27.1191C29.8349 27.1196 30.0074 27.1199 30.1798 27.1201C30.4005 27.1204 30.6212 27.1217 30.8418 27.1232C31.0117 27.1241 31.1816 27.1244 31.3515 27.1245C31.4329 27.1247 31.5142 27.1251 31.5955 27.1258C31.7095 27.1267 31.8234 27.1266 31.9373 27.1262C32.0021 27.1264 32.0668 27.1266 32.1336 27.1268C32.3688 27.1005 32.5092 27.0148 32.6775 26.8588C32.773 26.6849 32.7633 26.5701 32.7422 26.3745C32.6657 26.2251 32.5645 26.0975 32.4594 25.9655C32.4152 25.9079 32.4152 25.9079 32.3702 25.8491C32.308 25.7679 32.2455 25.687 32.1826 25.6064C32.0612 25.45 31.9428 25.2918 31.8244 25.1334C31.736 25.0152 31.6472 24.8973 31.5582 24.7794C31.3801 24.5434 31.2024 24.3071 31.0247 24.0707C30.9656 23.9922 30.9066 23.9137 30.8475 23.8351C30.7294 23.678 30.6112 23.521 30.4931 23.3639C30.4492 23.3055 30.4492 23.3055 30.4044 23.246C30.3456 23.1678 30.2868 23.0895 30.228 23.0113C30.0768 22.81 29.9251 22.609 29.7728 22.4085C28.649 20.9276 28.649 20.9276 28.7208 20.2213C28.8121 19.7165 29.0705 19.3452 29.389 18.9428C29.4577 18.8547 29.5263 18.7664 29.5949 18.6782C29.6291 18.6342 29.6634 18.5902 29.6986 18.5449C29.8451 18.3546 29.9871 18.1615 30.1285 17.9676C30.4388 17.5429 30.7545 17.1222 31.0715 16.7021C31.2489 16.4669 31.4258 16.2314 31.6028 15.9959C31.7569 15.7908 31.9113 15.586 32.0662 15.3814C32.0983 15.3388 32.1305 15.2963 32.1636 15.2524C32.2251 15.1711 32.2866 15.0898 32.3483 15.0087C32.6198 14.673 32.6198 14.673 32.7695 14.2829C32.7311 14.0571 32.6353 13.9713 32.4696 13.8084C32.3128 13.7331 32.1773 13.7485 32.0021 13.7476C31.9653 13.7473 31.9285 13.7471 31.8906 13.7468C31.7686 13.746 31.6466 13.7457 31.5246 13.7454C31.4398 13.7451 31.355 13.7448 31.2703 13.7445C31.0924 13.7439 30.9145 13.7436 30.7366 13.7434C30.5089 13.7432 30.2812 13.7419 30.0535 13.7404C29.8783 13.7394 29.7031 13.7392 29.528 13.7391C29.444 13.7389 29.3601 13.7385 29.2762 13.7378C29.1586 13.7369 29.041 13.737 28.9234 13.7374C28.8566 13.7372 28.7897 13.737 28.7208 13.7368C28.5274 13.7578 28.4263 13.8025 28.2712 13.9131C28.1778 14.0235 28.1778 14.0235 28.1025 14.1532C28.0726 14.2014 28.0427 14.2495 28.0119 14.2991C27.9805 14.351 27.9492 14.4029 27.9168 14.4563C27.8486 14.5666 27.7803 14.6768 27.7119 14.787C27.6777 14.8427 27.6434 14.8983 27.6081 14.9556C27.462 15.1914 27.3114 15.4244 27.1603 15.6573C27.1017 15.748 27.0431 15.8386 26.9846 15.9293C26.9546 15.9757 26.9247 16.0221 26.8938 16.0699C26.7197 16.34 26.5464 16.6106 26.3731 16.8812C26.3369 16.9377 26.3007 16.9941 26.2634 17.0523C26.0912 17.3209 25.9193 17.5895 25.7484 17.8588C25.67 17.9822 25.5915 18.1055 25.513 18.2288C25.4581 18.3151 25.4035 18.4015 25.3489 18.4879C24.642 19.5971 24.642 19.5971 23.9813 19.8049C23.4814 19.9027 22.9971 19.8495 22.5462 19.6202C22.2423 19.4218 22.0504 19.2034 21.8919 18.8872C21.8705 18.8451 21.8492 18.803 21.8271 18.7596C21.723 18.4441 21.7204 18.1117 21.7214 17.7834C21.7213 17.7235 21.7213 17.7235 21.7211 17.6623C21.7209 17.5762 21.7208 17.4902 21.7208 17.4042C21.7206 17.1735 21.7189 16.9428 21.7175 16.7122C21.7158 16.4195 21.7146 16.1268 21.7147 15.8342C21.7147 15.5967 21.7134 15.3593 21.7113 15.1218C21.7107 15.0316 21.7106 14.9413 21.711 14.8511C21.7116 14.725 21.7104 14.599 21.7089 14.473C21.7094 14.4359 21.71 14.3988 21.7106 14.3606C21.7061 14.1575 21.6789 14.0761 21.5421 13.9174C21.3057 13.7346 21.122 13.748 20.8286 13.7476C20.7806 13.7473 20.7327 13.7471 20.6832 13.7468C20.524 13.746 20.3649 13.7457 20.2057 13.7454C20.0953 13.7451 19.9848 13.7448 19.8744 13.7445C19.6426 13.7439 19.4108 13.7436 19.179 13.7434C18.882 13.7432 18.585 13.7419 18.2879 13.7404C18.0597 13.7394 17.8315 13.7392 17.6033 13.7391C17.4938 13.7389 17.3843 13.7385 17.2748 13.7378C17.1216 13.7369 16.9684 13.737 16.8151 13.7374C16.7472 13.7366 16.7472 13.7366 16.678 13.7359C16.4258 13.7377 16.2638 13.7578 16.0578 13.9131C15.9308 14.0815 15.9191 14.233 15.9488 14.4367C16.0483 14.5898 16.1597 14.7212 16.3304 14.8032C16.4599 14.8069 16.5894 14.8076 16.7189 14.8065C16.7888 14.806 16.8586 14.8055 16.9306 14.805C16.9845 14.8044 17.0383 14.8038 17.0938 14.8032C17.0904 15.2534 17.0862 15.7035 17.0809 16.1537C17.0785 16.3627 17.0763 16.5718 17.0749 16.7809C17.0734 16.9829 17.0712 17.1848 17.0685 17.3868C17.0676 17.4637 17.067 17.5405 17.0666 17.6173C17.0643 18.0864 17.0409 18.4573 16.7905 18.8708C16.4762 19.1572 16.1561 19.2707 15.7238 19.2832C15.2479 19.2629 15.0059 19.152 14.6811 18.8217C14.0893 18.1541 13.5871 17.4363 13.1135 16.6881C13.0936 16.6573 13.0736 16.6265 13.0531 16.5947C12.6751 16.0086 12.3947 15.3758 12.0973 14.7498C12.0015 14.5486 11.9051 14.3479 11.8049 14.1487C11.7779 14.0942 11.7509 14.0396 11.7231 13.9835C11.6286 13.8417 11.5854 13.8142 11.4232 13.756C11.2488 13.7398 11.2488 13.7398 11.0525 13.7416C10.9972 13.7412 10.9972 13.7412 10.9409 13.7408C10.8195 13.7401 10.6981 13.7402 10.5766 13.7403C10.492 13.7401 10.4074 13.7398 10.3228 13.7396C10.1456 13.7392 9.96834 13.7392 9.7911 13.7395C9.56424 13.7398 9.3374 13.7389 9.11055 13.7377C8.93584 13.7369 8.76114 13.7369 8.58643 13.737C8.5028 13.737 8.41917 13.7367 8.33554 13.7362C8.21848 13.7356 8.10146 13.7359 7.9844 13.7365C7.91786 13.7365 7.85132 13.7365 7.78276 13.7364C7.59045 13.7578 7.48842 13.8033 7.33393 13.9131Z" fill="white"/>
</svg>
