<svg width="631" height="358" viewBox="0 0 631 358" fill="none" xmlns="http://www.w3.org/2000/svg">
<path d="M118.294 152.845H88.3899L88.3699 179.763H104.646L104.666 182.792H88.3899V236.289H66.8164V149.736H118.294V152.845Z" fill="#6A7B61"/>
<path d="M170.533 233.18H175.956V236.289H143.529V233.18H148.952V152.822H143.529V149.736H175.956V152.845H170.533V233.18Z" fill="#6A7B61"/>
<path d="M229.201 192.634C236.097 192.719 241.437 190.574 245.225 186.197C248.674 182.414 250.274 177.663 250.019 171.941C249.853 166.223 248.002 161.389 244.466 157.433C240.517 153.058 235.426 150.873 229.201 150.873V192.634ZM275.884 236.289H252.039L233.59 195.796H229.185L229.201 236.289H207.627V149.736H248.762C255.656 149.736 261.162 151.756 265.287 155.793C269.075 159.41 271.133 163.952 271.47 169.418C271.804 174.886 270.416 179.766 267.307 184.054C263.859 188.765 259.062 191.751 252.925 193.011C254.942 197.051 262.593 211.478 275.884 236.289Z" fill="#6A7B61"/>
<path d="M366.413 66.7115H369.522V146.423C369.522 159.679 366.279 171.03 359.81 180.483C353.414 189.935 345.634 194.656 336.468 194.656C327.381 194.656 319.639 189.935 313.25 180.483C306.77 171.03 303.533 159.679 303.533 146.423V66.7115H325.107V150.106C325.107 160.416 327.381 168.638 331.923 174.773C336.043 180.299 341.006 182.938 346.811 182.691C352.699 182.447 355.833 178.397 359.87 172.507C364.33 165.756 366.413 157.717 366.413 146.423V66.7115Z" fill="#6A7B61"/>
<path d="M469.807 236.289H404.953V233.18L449.22 152.822H406.065L406.088 149.736H470.944V152.845L426.469 233.18H469.749L469.807 236.289Z" fill="#6A7B61"/>
<path d="M533.774 203.485L520.982 155.803L508.184 203.485H533.774ZM534.549 206.579H507.321L499.378 236.289H496.176L519.392 149.736L540.993 149.713L564.184 236.289H542.482L534.549 206.579Z" fill="#6A7B61"/>
<path d="M355.778 221.507C355.778 232.244 347.072 240.947 336.337 240.947C325.602 240.947 316.896 232.244 316.896 221.507C316.896 210.771 336.337 194.291 336.337 194.291C336.337 194.291 355.778 210.771 355.778 221.507Z" fill="#6A7B61"/>
<path d="M202.375 290.888H199.779L188.231 277.172V290.888H185.178V271.782H187.774L199.296 285.727V271.782H202.375V290.888Z" fill="#6A7B61"/>
<path d="M222.91 275.52L219.459 283.644H226.359L222.91 275.52ZM229.44 290.888L227.556 286.441H218.262L216.378 290.888H213.07L221.484 271.782H224.336L232.747 290.888H229.44Z" fill="#6A7B61"/>
<path d="M243.699 290.888V271.782H246.75V290.888H243.699Z" fill="#6A7B61"/>
<path d="M273.302 290.888H259.812V271.782H262.864V288.121H273.302V290.888Z" fill="#6A7B61"/>
<path d="M312.301 272.836C313.624 273.807 314.454 275.12 314.796 276.773L311.747 277.401C311.574 276.393 311.088 275.58 310.291 274.962C309.494 274.345 308.523 274.036 307.383 274.036C306.262 274.036 305.356 274.305 304.674 274.848C303.99 275.389 303.646 276.088 303.646 276.944C303.646 277.61 303.842 278.133 304.232 278.513C304.622 278.893 305.235 279.17 306.07 279.338L310.206 280.224C313.475 280.946 315.11 282.684 315.11 285.443C315.11 287.229 314.441 288.65 313.101 289.704C311.76 290.76 309.987 291.288 307.781 291.288C305.67 291.288 303.885 290.788 302.421 289.792C300.957 288.793 300.112 287.4 299.883 285.611L303.133 284.93C303.361 286.127 303.912 287.035 304.788 287.651C305.663 288.27 306.755 288.579 308.068 288.579C309.323 288.579 310.306 288.308 311.018 287.767C311.732 287.224 312.087 286.507 312.087 285.611C312.087 284.889 311.883 284.341 311.476 283.959C311.066 283.579 310.377 283.285 309.408 283.076L305.245 282.221C302.031 281.479 300.426 279.748 300.426 277.029C300.426 275.336 301.065 273.973 302.35 272.937C303.633 271.901 305.328 271.382 307.439 271.382C309.36 271.382 310.98 271.87 312.301 272.836Z" fill="#6A7B61"/>
<path d="M335.018 274.549V290.888H331.939V274.549H325.238V271.782H341.749V274.549H335.018Z" fill="#6A7B61"/>
<path d="M369.327 282.45C369.327 285.088 368.587 287.224 367.103 288.851C365.619 290.476 363.672 291.288 361.258 291.288C358.788 291.288 356.796 290.476 355.284 288.851C353.775 287.224 353.018 285.088 353.018 282.45V271.782H356.069V282.45C356.069 284.236 356.544 285.667 357.495 286.741C358.446 287.812 359.698 288.351 361.258 288.351C362.759 288.351 363.972 287.807 364.892 286.726C365.818 285.642 366.276 284.215 366.276 282.45V271.782H369.327V282.45Z" fill="#6A7B61"/>
<path d="M388.865 288.121C391.144 288.121 392.962 287.492 394.311 286.24C395.661 284.985 396.333 283.35 396.333 281.335C396.333 279.318 395.661 277.685 394.311 276.43C392.962 275.175 391.144 274.549 388.865 274.549H385.24V288.121H388.865ZM388.865 271.782C392.077 271.782 394.64 272.672 396.547 274.448C398.458 276.226 399.414 278.52 399.414 281.335C399.414 284.147 398.458 286.443 396.547 288.222C394.64 290 392.077 290.888 388.865 290.888H382.189V271.782H388.865Z" fill="#6A7B61"/>
<path d="M411.568 290.888V271.782H414.619V290.888H411.568Z" fill="#6A7B61"/>
<path d="M441.655 286.384C442.983 285.033 443.649 283.36 443.649 281.363C443.649 279.348 442.983 277.661 441.655 276.302C440.324 274.942 438.687 274.265 436.75 274.265C434.808 274.265 433.181 274.942 431.858 276.302C430.537 277.661 429.876 279.348 429.876 281.363C429.876 283.36 430.537 285.033 431.858 286.384C433.181 287.732 434.808 288.408 436.75 288.408C438.687 288.408 440.324 287.732 441.655 286.384ZM443.835 274.29C445.765 276.232 446.73 278.586 446.73 281.363C446.73 284.137 445.765 286.487 443.835 288.408C441.906 290.328 439.544 291.288 436.75 291.288C433.953 291.288 431.596 290.328 429.677 288.408C427.758 286.487 426.797 284.137 426.797 281.363C426.797 278.571 427.758 276.207 429.677 274.28C431.596 272.348 433.953 271.382 436.75 271.382C439.544 271.382 441.906 272.353 443.835 274.29Z" fill="#6A7B61"/>
</svg>
